<?xml version="1.0" encoding="utf-8"?>
<!-- Generator: Adobe Illustrator 19.0.0, SVG Export Plug-In . SVG Version: 6.00 Build 0)  -->
<svg version="1.1" id="Layer_1" xmlns="http://www.w3.org/2000/svg" xmlns:xlink="http://www.w3.org/1999/xlink" x="0px" y="0px"
	 viewBox="4 -4 24 24" style="enable-background:new 4 -4 24 24;" xml:space="preserve">
<style type="text/css">
	.st0{fill:#44505B;}
</style>
<path class="st0" d="M16,12c-0.2,0-0.3,0-0.4-0.1l-10-5C5.2,6.7,5,6.4,5,6s0.2-0.7,0.6-0.9l10-5c0.3-0.1,0.6-0.1,0.9,0l10,5
	C26.8,5.3,27,5.6,27,6s-0.2,0.7-0.6,0.9l-10,5C16.3,12,16.2,12,16,12z M8.2,6L16,9.9L23.8,6L16,2.1L8.2,6z"/>
<path class="st0" d="M16,17c-0.2,0-0.3,0-0.4-0.1l-10-5c-0.5-0.2-0.7-0.8-0.4-1.3c0.2-0.5,0.8-0.7,1.3-0.4l9.6,4.8l9.6-4.8
	c0.5-0.2,1.1,0,1.3,0.4c0.2,0.5,0,1.1-0.4,1.3l-10,5C16.3,17,16.2,17,16,17z"/>
</svg>
