<?xml version="1.0" encoding="utf-8"?>
<!-- Generator: Adobe Illustrator 19.0.0, SVG Export Plug-In . SVG Version: 6.00 Build 0)  -->
<svg version="1.1" id="Layer_1" xmlns="http://www.w3.org/2000/svg" xmlns:xlink="http://www.w3.org/1999/xlink" x="0px" y="0px"
	 viewBox="-12 89 24 24" style="enable-background:new -12 89 24 24;" xml:space="preserve">
<style type="text/css">
	.st0{fill:#333F49;}
</style>
<path class="st0" d="M0,91c-5.5,0-10,4.5-10,10s4.5,10,10,10s10-4.5,10-10S5.5,91,0,91z M3.7,103.3c0.4,0.4,0.4,1,0,1.4
	C3.5,104.9,3.3,105,3,105s-0.5-0.1-0.7-0.3L0,102.4l-2.3,2.3c-0.2,0.2-0.5,0.3-0.7,0.3s-0.5-0.1-0.7-0.3c-0.4-0.4-0.4-1,0-1.4
	l2.3-2.3l-2.3-2.3c-0.4-0.4-0.4-1,0-1.4c0.4-0.4,1-0.4,1.4,0L0,99.6l2.3-2.3c0.4-0.4,1-0.4,1.4,0c0.4,0.4,0.4,1,0,1.4L1.4,101
	L3.7,103.3z"/>
</svg>
