<?xml version="1.0" encoding="utf-8"?>
<!-- Generator: Adobe Illustrator 19.0.0, SVG Export Plug-In . SVG Version: 6.00 Build 0)  -->
<svg version="1.1" id="Layer_1" xmlns="http://www.w3.org/2000/svg" xmlns:xlink="http://www.w3.org/1999/xlink" x="0px" y="0px"
	 viewBox="-408 286.3 24 24" style="enable-background:new -408 286.3 24 24;" xml:space="preserve">
<style type="text/css">
	.st0{fill:#646E77;}
</style>
<path class="st0" d="M-396,307.3c-7.5,0-11.7-8.2-11.9-8.6c-0.1-0.3-0.1-0.6,0-0.9c0.2-0.3,4.4-8.6,11.9-8.6s11.7,8.2,11.9,8.6
	c0.1,0.3,0.1,0.6,0,0.9C-384.3,299.1-388.5,307.3-396,307.3z M-405.9,298.3c0.9,1.6,4.5,7,9.9,7c5.4,0,8.9-5.4,9.9-7
	c-0.9-1.6-4.5-7-9.9-7C-401.4,291.3-404.9,296.7-405.9,298.3z"/>
<path class="st0" d="M-396,302.3c-2.2,0-4-1.8-4-4c0-2.2,1.8-4,4-4c2.2,0,4,1.8,4,4C-392,300.5-393.8,302.3-396,302.3z M-396,296.3
	c-1.1,0-2,0.9-2,2s0.9,2,2,2c1.1,0,2-0.9,2-2S-394.9,296.3-396,296.3z"/>
</svg>
