<?xml version="1.0" encoding="utf-8"?>
<!-- Generator: Adobe Illustrator 19.0.0, SVG Export Plug-In . SVG Version: 6.00 Build 0)  -->
<svg version="1.1" id="Layer_1" xmlns="http://www.w3.org/2000/svg" xmlns:xlink="http://www.w3.org/1999/xlink" x="0px" y="0px"
	 viewBox="6 -6 24 24" style="enable-background:new 6 -6 24 24;" xml:space="preserve">
<style type="text/css">
	.st0{fill:#008ED7;}
</style>
<path class="st0" d="M18,17.2c-0.5,0-0.9-0.1-1.3-0.3L9,13.1c-1-0.5-1.6-1.5-1.6-2.6V1.2C7.3,0.1,7.9-1,9-1.5l7.7-3.9
	c0.8-0.4,1.7-0.4,2.6,0l0,0L27-1.5C28-1,28.7,0,28.7,1.2v9.2c0,1.1-0.6,2.1-1.6,2.6l-7.7,3.9C18.8,17.1,18.4,17.2,18,17.2z M18-3.7
	c-0.2,0-0.3,0-0.4,0.1L9.8,0.3C9.4,0.5,9.2,0.9,9.2,1.2v9.2c0,0.4,0.2,0.7,0.5,0.9l7.7,3.9c0.3,0.1,0.6,0.1,0.9,0l7.7-3.9
	c0.3-0.2,0.6-0.5,0.6-0.9V1.2c0-0.4-0.2-0.7-0.6-0.9l-7.7-3.9C18.2-3.6,18.1-3.7,18-3.7z"/>
<path class="st0" d="M18,5.8c-0.2,0-0.3,0-0.4-0.1L8.2,1.1C7.7,0.8,7.5,0.2,7.7-0.3C8-0.8,8.6-1,9.1-0.7L18,3.8l8.9-4.4
	c0.5-0.2,1.1,0,1.3,0.4c0.2,0.5,0,1.1-0.4,1.3l-9.4,4.6C18.2,5.8,18.1,5.8,18,5.8z"/>
<path class="st0" d="M18,17.2c-0.6,0-1-0.4-1-1V4.8c0-0.6,0.4-1,1-1c0.6,0,1,0.4,1,1v11.4C18.9,16.7,18.5,17.2,18,17.2z"/>
<path class="st0" d="M22.8,3.4c-0.2,0-0.3,0-0.4-0.1l-9.7-4.8c-0.5-0.2-0.7-0.8-0.4-1.3c0.2-0.5,0.8-0.7,1.3-0.4l9.7,4.8
	c0.5,0.2,0.7,0.8,0.4,1.3C23.5,3.2,23.2,3.4,22.8,3.4z"/>
</svg>
