<?xml version="1.0" encoding="utf-8"?>
<!-- Generator: Adobe Illustrator 19.0.0, SVG Export Plug-In . SVG Version: 6.00 Build 0)  -->
<svg version="1.1" id="Layer_1" xmlns="http://www.w3.org/2000/svg" xmlns:xlink="http://www.w3.org/1999/xlink" x="0px" y="0px"
	 viewBox="4 -4 24 24" style="enable-background:new 4 -4 24 24;" xml:space="preserve">
<style type="text/css">
	.st0{fill:#646E77;}
</style>
<path class="st0" d="M25,9H7C6.4,9,6,8.6,6,8c0-0.6,0.4-1,1-1h18c0.6,0,1,0.4,1,1C26,8.6,25.6,9,25,9z"/>
<path class="st0" d="M25,3H7C6.4,3,6,2.6,6,2s0.4-1,1-1h18c0.6,0,1,0.4,1,1S25.6,3,25,3z"/>
<path class="st0" d="M25,15H7c-0.6,0-1-0.4-1-1s0.4-1,1-1h18c0.6,0,1,0.4,1,1S25.6,15,25,15z"/>
</svg>
