<?xml version="1.0" encoding="utf-8"?>
<!-- Generator: Adobe Illustrator 19.0.0, SVG Export Plug-In . SVG Version: 6.00 Build 0)  -->
<svg version="1.1" xmlns="http://www.w3.org/2000/svg" xmlns:xlink="http://www.w3.org/1999/xlink" x="0px" y="0px"
	 viewBox="4 -4 24 24" style="enable-background:new 4 -4 24 24;" xml:space="preserve">
<style type="text/css">
	.st0{fill:#58636D;}
</style>
<g id="Layer_1">
	<path class="st0" d="M16-3C9.9-3,5,1.9,5,8s4.9,11,11,11s11-4.9,11-11S22.1-3,16-3z M17.7,13.9c0,1-0.8,1.7-1.7,1.7
		s-1.7-0.8-1.7-1.7V7c0-1,0.8-1.7,1.7-1.7S17.7,6,17.7,7V13.9z M17.2,3.3c-0.3,0.3-0.8,0.5-1.2,0.5s-0.9-0.2-1.2-0.5
		C14.5,3,14.3,2.5,14.3,2c0-0.5,0.2-0.9,0.5-1.2c0.7-0.7,1.8-0.7,2.5,0c0.3,0.3,0.5,0.8,0.5,1.2C17.7,2.5,17.5,3,17.2,3.3z"/>
</g>
<g id="Layer_2">
</g>
</svg>
