<?xml version="1.0" encoding="utf-8"?>
<!-- Generator: Adobe Illustrator 19.0.0, SVG Export Plug-In . SVG Version: 6.00 Build 0)  -->
<svg version="1.1" id="Layer_1" xmlns="http://www.w3.org/2000/svg" xmlns:xlink="http://www.w3.org/1999/xlink" x="0px" y="0px"
	 viewBox="4 -4 24 24" style="enable-background:new 4 -4 24 24;" xml:space="preserve">
<style type="text/css">
	.st0{fill:#DEE4E9;}
</style>
<path class="st0" d="M7,18c-0.1,0-0.3,0-0.4-0.1C6.2,17.8,6,17.4,6,17V1c0-1.7,1.3-3,3-3h14c1.7,0,3,1.3,3,3v10c0,1.7-1.3,3-3,3
	H11.4l-3.7,3.7C7.5,17.9,7.3,18,7,18z M9,0C8.4,0,8,0.4,8,1v13.6l2.3-2.3c0.2-0.2,0.4-0.3,0.7-0.3h12c0.6,0,1-0.4,1-1V1
	c0-0.6-0.4-1-1-1H9z"/>
</svg>
