<?xml version="1.0" encoding="utf-8"?>
<!-- Generator: Adobe Illustrator 19.0.0, SVG Export Plug-In . SVG Version: 6.00 Build 0)  -->
<svg version="1.1" id="Layer_1" xmlns="http://www.w3.org/2000/svg" xmlns:xlink="http://www.w3.org/1999/xlink" x="0px" y="0px"
	 viewBox="4 -4 24 24" style="enable-background:new 4 -4 24 24;" xml:space="preserve">
<style type="text/css">
	.st0{fill:#008ED7;}
</style>
<path class="st0" d="M15.9,10c-0.4,0-0.8-0.3-0.9-0.7c-0.2-0.5,0.1-1.1,0.6-1.3c0.6-0.2,2.3-1,2.3-2.1c0-0.9-0.5-1.6-1.3-1.9
	c-1-0.4-2.2,0.2-2.6,1.2c-0.2,0.5-0.8,0.8-1.3,0.6c-0.5-0.2-0.8-0.8-0.6-1.3c0.7-2.1,3-3.2,5.1-2.4c1.6,0.6,2.7,2.1,2.7,3.8
	c0,2.6-3.3,3.8-3.7,3.9C16.1,10,16,10,15.9,10z"/>
<path class="st0" d="M16,19C9.9,19,5,14.1,5,8S9.9-3,16-3S27,1.9,27,8S22.1,19,16,19z M16-1c-5,0-9,4-9,9c0,5,4,9,9,9c5,0,9-4,9-9
	C25,3,21-1,16-1z"/>
<path class="st0" d="M16,14c-0.3,0-0.5-0.1-0.7-0.3C15.1,13.5,15,13.3,15,13s0.1-0.5,0.3-0.7c0.4-0.4,1-0.4,1.4,0
	c0.2,0.2,0.3,0.5,0.3,0.7s-0.1,0.5-0.3,0.7C16.5,13.9,16.3,14,16,14z"/>
</svg>
