<?xml version="1.0" encoding="utf-8"?>
<!-- Generator: Adobe Illustrator 19.0.0, SVG Export Plug-In . SVG Version: 6.00 Build 0)  -->
<svg version="1.1" xmlns="http://www.w3.org/2000/svg" xmlns:xlink="http://www.w3.org/1999/xlink" x="0px" y="0px"
	 viewBox="0 0 20 20" style="enable-background:new 0 0 20 20;" xml:space="preserve">
<style type="text/css">
	.st0{display:none;}
	.st1{display:inline;fill:#1A1A1A;}
	.st2{fill:#1A1A1A;}
</style>
<g id="Layer_1" class="st0">
	<path id="XMLID_6_" class="st1" d="M8.5,9.4H0.6C0.3,9.4,0,9.1,0,8.8s0.3-0.6,0.6-0.6h7.9c0.3,0,0.6,0.3,0.6,0.6S8.9,9.4,8.5,9.4z"
		/>
	<path id="XMLID_5_" class="st1" d="M5.4,12.5c-0.2,0-0.3-0.1-0.4-0.2c-0.2-0.2-0.2-0.6,0-0.9l2.7-2.7L5,6.1C4.7,5.8,4.7,5.4,5,5.2
		s0.6-0.2,0.9,0L9,8.3c0.2,0.2,0.2,0.6,0,0.9l-3.1,3.1C5.7,12.4,5.6,12.5,5.4,12.5z"/>
	<path id="XMLID_10_" class="st1" d="M13.3,20c-0.9,0-1.7-0.7-1.7-1.7v-15c0-0.7,0.5-1.3,1.1-1.6l5-1.7C18.9-0.3,20,0.6,20,1.7v15
		c0,0.7-0.5,1.3-1.1,1.6l-5,1.7C13.7,20,13.5,20,13.3,20z M18.3,1.2c-0.1,0-0.1,0-0.1,0l-5,1.7C13,3,12.9,3.2,12.9,3.3v15
		c0,0.3,0.3,0.5,0.6,0.4l5-1.7c0.2-0.1,0.3-0.2,0.3-0.4v-15C18.8,1.4,18.6,1.2,18.3,1.2z"/>
	<path id="XMLID_2_" class="st1" d="M7.3,4.2c-0.3,0-0.6-0.3-0.6-0.6V2.3C6.7,1,7.7,0,9,0h9.4C18.7,0,19,0.3,19,0.6
		s-0.3,0.6-0.6,0.6H9c-0.6,0-1,0.5-1,1v1.2C7.9,3.9,7.6,4.2,7.3,4.2z"/>
	<path id="XMLID_1_" class="st1" d="M12.3,17.5H9c-1.3,0-2.3-1-2.3-2.3V14c0-0.3,0.3-0.6,0.6-0.6s0.6,0.3,0.6,0.6v1.2
		c0,0.6,0.5,1,1,1h3.3c0.3,0,0.6,0.3,0.6,0.6S12.6,17.5,12.3,17.5z"/>
</g>
<g id="Layer_2">
	<path id="XMLID_36_" class="st2" d="M7.5,8.7c-2.3,0-4.2-1.9-4.2-4.2s1.9-4.2,4.2-4.2s4.2,1.9,4.2,4.2S9.8,8.7,7.5,8.7z M7.5,1.6
		C5.9,1.6,4.6,3,4.6,4.6c0,1.6,1.3,2.9,2.9,2.9s2.9-1.3,2.9-2.9C10.4,3,9.1,1.6,7.5,1.6z"/>
	<path id="XMLID_33_" class="st2" d="M18.6,19.6H14c-0.8,0-1.5-0.7-1.5-1.5v-2.9c0-0.8,0.7-1.5,1.5-1.5h4.6c0.8,0,1.5,0.7,1.5,1.5
		v2.9C20,18.9,19.4,19.6,18.6,19.6z M14,15c-0.1,0-0.2,0.1-0.2,0.2v2.9c0,0.1,0.1,0.2,0.2,0.2h4.6c0.1,0,0.2-0.1,0.2-0.2v-2.9
		c0-0.1-0.1-0.2-0.2-0.2H14z"/>
	<path id="XMLID_30_" class="st2" d="M17.7,15h-2.9c-0.3,0-0.6-0.3-0.6-0.6v-1.9c0-1.2,0.9-2.1,2.1-2.1s2.1,0.9,2.1,2.1v1.9
		C18.4,14.7,18.1,15,17.7,15z M15.4,13.8h1.7v-1.3c0-0.5-0.4-0.8-0.8-0.8c-0.5,0-0.8,0.4-0.8,0.8V13.8z"/>
	<path id="XMLID_21_" class="st2" d="M10.4,17.9H0.6c-0.3,0-0.6-0.3-0.6-0.6v-2.9c0-2.2,1.8-4,4-4h7.3c0.7,0,1.4,0.2,2,0.5
		c0.3,0.2,0.4,0.6,0.2,0.9c-0.2,0.3-0.6,0.4-0.9,0.2c-0.4-0.2-0.9-0.4-1.4-0.4H4c-1.5,0-2.7,1.2-2.7,2.7v2.3h9.2
		c0.3,0,0.6,0.3,0.6,0.6C11.1,17.7,10.8,17.9,10.4,17.9z"/>
</g>
</svg>
