<?xml version="1.0" encoding="utf-8"?>
<!-- Generator: Adobe Illustrator 19.0.0, SVG Export Plug-In . SVG Version: 6.00 Build 0)  -->
<svg version="1.1" id="Layer_1" xmlns="http://www.w3.org/2000/svg" xmlns:xlink="http://www.w3.org/1999/xlink" x="0px" y="0px"
	 viewBox="0 0 14 14" style="enable-background:new 0 0 14 14;" xml:space="preserve">
<g>
	<path d="M13.9,13.3l-3.4-3.4c0.9-1,1.5-2.4,1.5-3.9c0-3.3-2.7-6-6-6C2.7,0,0,2.7,0,6s2.7,6,6,6c1.5,0,2.9-0.6,3.9-1.5l3.4,3.4
		c0.1,0.1,0.2,0.1,0.3,0.1s0.2,0,0.3-0.1C14,13.7,14,13.4,13.9,13.3z M0.8,6c0-2.8,2.3-5.1,5.1-5.1c2.8,0,5.1,2.3,5.1,5.1
		S8.8,11.1,6,11.1C3.1,11.1,0.8,8.8,0.8,6z"/>
</g>
</svg>
