<?xml version="1.0" encoding="utf-8"?>
<!-- Generator: Adobe Illustrator 19.0.0, SVG Export Plug-In . SVG Version: 6.00 Build 0)  -->
<svg version="1.1" id="Layer_1" xmlns="http://www.w3.org/2000/svg" xmlns:xlink="http://www.w3.org/1999/xlink" x="0px" y="0px"
	 viewBox="152 -187 414 414" style="enable-background:new 152 -187 414 414;" xml:space="preserve">
<style type="text/css">
	.st0{fill:#C5FFDF;}
	.st1{fill:#67BBA6;}
	.st2{fill:#3A3B3B;}
</style>
<path class="st0" d="M364.4,97.4c-1.3-2.1-3.5-3.4-6-3.4l-109.2,0.1h0c-18.2,0-33-14.8-33-33L216-154.7c0-1,0.1-2,0.1-3l-17.2,0
	c-18.2,0-33,14.8-33,33l0.1,215.8c0,18.2,14.8,33,33,33h0l109.2-0.1c2.5,0,4.7,1.3,6,3.4l43.4,71.7l34-56.4L364.4,97.4z"/>
<g>
	<path class="st1" d="M486.5,38.3H231.5c-3.9,0-7-3.1-7-7s3.1-7,7-7h254.9c3.9,0,7,3.1,7,7S490.3,38.3,486.5,38.3z"/>
	<path class="st1" d="M486.5-11.7H231.5c-3.9,0-7-3.1-7-7s3.1-7,7-7h254.9c3.9,0,7,3.1,7,7S490.3-11.7,486.5-11.7z"/>
	<path class="st1" d="M486.5-61.7H231.5c-3.9,0-7-3.1-7-7s3.1-7,7-7h254.9c3.9,0,7,3.1,7,7S490.3-61.7,486.5-61.7z"/>
</g>
<path class="st2" d="M552.1-158.1c-8.8-8.8-20.7-13.8-33.2-13.7h0L199-171.7c-25.9,0-46.9,21.1-47,47l0.1,215.8c0,25.9,21,47,47,47
	h0l105.3-0.1l42.7,70.5c0,0,0.1,0.1,0.1,0.1c2.3,3.6,6.3,5.8,10.5,5.8h0c4.3,0,8.2-2.2,10.5-5.8c0,0,0.1-0.1,0.1-0.1l42.6-70.6
	l108.1-0.1c25.9,0,47-21.1,47-47l-0.1-215.8C565.9-137.4,560.9-149.3,552.1-158.1z M519,123.9L407,124c-2.5,0-4.7,1.3-6,3.4
	l-43.3,71.7l-43.4-71.7c-1.3-2.1-3.5-3.4-6-3.4l-109.2,0.1h0c-18.2,0-33-14.8-33-33L166-124.7c0-18.2,14.8-33,33-33l319.9-0.2h0
	c18.2,0,33,14.8,33,33L552,90.9C552,109.1,537.3,123.9,519,123.9z"/>
</svg>
