<?xml version="1.0" encoding="utf-8"?>
<!-- Generator: Adobe Illustrator 19.0.0, SVG Export Plug-In . SVG Version: 6.00 Build 0)  -->
<svg version="1.1" id="Layer_1" xmlns="http://www.w3.org/2000/svg" xmlns:xlink="http://www.w3.org/1999/xlink" x="0px" y="0px"
	 viewBox="-42 9 24 24" style="enable-background:new -42 9 24 24;" xml:space="preserve">
<style type="text/css">
	.st0{fill:#3B3C3C;}
</style>
<path class="st0" d="M-34,33c-1.7,0-3-1.3-3-3s1.3-3,3-3s3,1.3,3,3S-32.3,33-34,33z M-34,29c-0.6,0-1,0.4-1,1s0.4,1,1,1s1-0.4,1-1
	S-33.4,29-34,29z"/>
<path class="st0" d="M-22,33c-1.7,0-3-1.3-3-3s1.3-3,3-3s3,1.3,3,3S-20.3,33-22,33z M-22,29c-0.6,0-1,0.4-1,1s0.4,1,1,1s1-0.4,1-1
	S-21.4,29-22,29z"/>
<path class="st0" d="M-22.6,26C-22.7,26-22.7,26-22.6,26h-10.6c-1.5,0-2.8-1.1-3-2.6l-1.5-11.5c-0.1-0.5-0.5-0.9-1-0.9H-41
	c-0.6,0-1-0.4-1-1s0.4-1,1-1h2.2c1.5,0,2.8,1.1,3,2.6l0.3,2.4H-19c0.3,0,0.6,0.1,0.8,0.4c0.2,0.2,0.3,0.5,0.2,0.8l-1.7,8.4
	C-20,25-21.2,26-22.6,26z M-22.7,24c0.5,0,0.9-0.3,1-0.8l1.4-7.2h-15l0.9,7.1c0.1,0.5,0.5,0.9,1,0.9H-22.7z"/>
</svg>
