<?xml version="1.0" encoding="utf-8"?>
<!-- Generator: Adobe Illustrator 19.0.0, SVG Export Plug-In . SVG Version: 6.00 Build 0)  -->
<svg version="1.1" id="Layer_1" xmlns="http://www.w3.org/2000/svg" xmlns:xlink="http://www.w3.org/1999/xlink" x="0px" y="0px"
	 viewBox="-33 5 24 24" style="enable-background:new -33 5 24 24;" xml:space="preserve">
<style type="text/css">
	.st0{fill:#3B3C3C;}
</style>
<path class="st0" d="M-27,24c-0.3,0-0.5-0.1-0.7-0.3c-0.4-0.4-0.4-1,0-1.4l12-12c0.4-0.4,1-0.4,1.4,0c0.4,0.4,0.4,1,0,1.4l-12,12
	C-26.5,23.9-26.7,24-27,24z"/>
<path class="st0" d="M-15,24c-0.3,0-0.5-0.1-0.7-0.3l-12-12c-0.4-0.4-0.4-1,0-1.4c0.4-0.4,1-0.4,1.4,0l12,12c0.4,0.4,0.4,1,0,1.4
	C-14.5,23.9-14.7,24-15,24z"/>
</svg>
