<?xml version="1.0" encoding="utf-8"?>
<!-- Generator: Adobe Illustrator 19.0.0, SVG Export Plug-In . SVG Version: 6.00 Build 0)  -->
<svg version="1.1" id="Layer_1" xmlns="http://www.w3.org/2000/svg" xmlns:xlink="http://www.w3.org/1999/xlink" x="0px" y="0px"
	 viewBox="-110 233.9 374 374" style="enable-background:new -110 233.9 374 374;" xml:space="preserve">
<style type="text/css">
	.st0{fill:#D194C2;}
	.st1{fill:#3A3B3B;}
	.st2{fill:#ECC4E2;}
</style>
<path class="st0" d="M56,463.8c-2,0-4-0.9-5.3-2.5l-37-43.3c-2.5-2.9-2.2-7.4,0.8-9.9c2.9-2.5,7.4-2.2,9.9,0.8L56.9,447l80.8-65.7
	c3-2.4,7.4-2,9.8,1s2,7.4-1,9.8l-86.1,70C59.2,463.3,57.6,463.8,56,463.8z"/>
<path class="st1" d="M53.7,599l19,8.3c1.8,0.8,3.8,0.8,5.6,0l21.4-9.2c75.1-31.5,123.9-105,123.9-186.4v-95.9c0-2.6-1.4-5-3.7-6.2
	L79.3,234.7c-2.1-1.1-4.6-1.1-6.7,0l-136.7,74.9c-2.2,1.2-3.6,3.6-3.6,6.1v97.8C-67.6,494-20,566.7,53.7,599z M-53.7,319.8L76,248.7
	l133.5,71.1v91.7c0,75.8-45.5,144.2-115.4,173.5H94l-18.6,8l-16.2-7.1c-68.6-30-113-97.7-113-172.6L-53.7,319.8z"/>
<path class="st2" d="M124.1,545.1L124.1,545.1l-18.7,8.1l-16.2-7.1c-68.6-30-113-97.7-113-172.6v-70.1l-30,16.4v93.7
	c0.1,74.9,44.4,142.6,113,172.6l16.2,7.1l18.6-8l0,0c38.7-16.3,70.9-45.1,91.5-81.7C168.1,521.2,147.2,535.4,124.1,545.1z"/>
</svg>
