<?xml version="1.0" encoding="utf-8"?>
<!-- Generator: Adobe Illustrator 19.0.0, SVG Export Plug-In . SVG Version: 6.00 Build 0)  -->
<svg version="1.1" id="Layer_1" xmlns="http://www.w3.org/2000/svg" xmlns:xlink="http://www.w3.org/1999/xlink" x="0px" y="0px"
	 viewBox="157 -192 424 424" style="enable-background:new 157 -192 424 424;" xml:space="preserve">
<style type="text/css">
	.st0{fill:#C5FFDF;}
	.st1{fill:#D4E1F4;}
	.st2{fill:#3A3B3B;}
	.st3{fill:#67BBA6;}
</style>
<path class="st0" d="M231,108.7V13L191-4v142.7c0,7.2,5.8,13,13,13h18.6c2.2-12.8,10.1-23.9,21.6-30H244
	C236.8,121.7,231,115.9,231,108.7z"/>
<path class="st0" d="M283.9,121.7c11.4,6.1,19.4,17.2,21.6,30h96.1v-30H283.9z"/>
<path class="st1" d="M244.1,121.7h39.7C271.5,115.1,256.5,115.1,244.1,121.7z"/>
<path class="st2" d="M184-26.6c-3.9,0-7,3.1-7,7v158.4c0,14.9,12.1,27,27,27h25c3.9,0,7-3.1,7-7s-3.1-7-7-7h-25c-7.2,0-13-5.8-13-13
	V-19.6C191-23.5,187.9-26.6,184-26.6z"/>
<path class="st2" d="M400.5,49.2v102.6H299c-3.9,0-7,3.1-7,7s3.1,7,7,7h160c3.9,0,7-3.1,7-7s-3.1-7-7-7h-44.5V56.2H567v82.6
	c0,7.2-5.8,13-13,13h-25c-3.9,0-7,3.1-7,7s3.1,7,7,7h25c14.9,0,27-12.1,27-27V49.2c0-0.1,0-0.1,0-0.2c0-0.1,0-0.3,0-0.4
	c0-0.1,0-0.2,0-0.3c0-0.1,0-0.2-0.1-0.4c0-0.1,0-0.2-0.1-0.3c0-0.1-0.1-0.2-0.1-0.3s-0.1-0.2-0.1-0.3c0-0.1-0.1-0.2-0.1-0.3
	c0-0.1-0.1-0.2-0.1-0.3c0-0.1-0.1-0.2-0.1-0.3c-0.1-0.1-0.1-0.2-0.2-0.3c-0.1-0.1-0.1-0.2-0.2-0.3c-0.1-0.1-0.1-0.2-0.2-0.3
	c-0.1-0.1-0.1-0.2-0.2-0.3c-0.1-0.1-0.2-0.2-0.2-0.3c0,0-0.1-0.1-0.1-0.1l-51.5-56.1c-5.1-5.6-12.3-8.7-19.9-8.7h-93.3V-93
	c0-14.9-12.1-27-27-27H314c-3.9,0-7,3.1-7,7s3.1,7,7,7h73.5c7.2,0,13,5.8,13,13V49.2z M507.7-6.4c3.6,0,7.1,1.5,9.6,4.2l40.8,44.4
	H414.5V-6.4H507.7z"/>
<g>
	<path class="st3" d="M494,200.7c-23.2,0-42-18.8-42-42s18.8-42,42-42s42,18.8,42,42C536,181.9,517.2,200.7,494,200.7z M494,130.7
		c-15.5,0-28,12.5-28,28s12.5,28,28,28s28-12.5,28-28C522,143.3,509.5,130.8,494,130.7z"/>
	<path class="st3" d="M244,14c-48,0-87-39-87-87s39-87,87-87s87,39,87,87C330.9-25,292,13.9,244,14z M244-146c-40.3,0-73,32.7-73,73
		s32.7,73,73,73s73-32.7,73-73C317-113.3,284.3-146,244-146z"/>
	<path class="st3" d="M285.9-65.8h-41.6c-3.9,0-7-3.1-7-7v-41.6c0-3.9,3.1-7,7-7s7,3.1,7,7v34.6h34.6c3.9,0,7,3.1,7,7
		C292.9-69,289.7-65.8,285.9-65.8z"/>
	<path class="st3" d="M264,200.7c-23.2,0-42-18.8-42-42s18.8-42,42-42s42,18.8,42,42C306,181.9,287.2,200.7,264,200.7z M264,130.7
		c-15.5,0-28,12.5-28,28s12.5,28,28,28s28-12.5,28-28C292,143.3,279.5,130.8,264,130.7z"/>
</g>
</svg>
