<?xml version="1.0" encoding="utf-8"?>
<!-- Generator: Adobe Illustrator 19.0.0, SVG Export Plug-In . SVG Version: 6.00 Build 0)  -->
<svg version="1.1" id="Layer_1" xmlns="http://www.w3.org/2000/svg" xmlns:xlink="http://www.w3.org/1999/xlink" x="0px" y="0px"
	 viewBox="0 0 120 28" style="enable-background:new 0 0 120 28;" xml:space="preserve">
<style type="text/css">
	.st0{fill:#7B7B7B;}
	.st1{fill:#B4B4B4;}
</style>
<g id="XMLID_2_">
	<path id="XMLID_3_" class="st0" d="M6.3,4.4c0.3,0,0.4,0.1,0.4,0.4L4.2,21.3h0.2L8.9,4.9C9,4.6,9.2,4.4,9.5,4.4h3.3
		c0.2,0,0.4,0.2,0.4,0.4c0,0.1,0,0.1-7.2,22.4c-0.1,0.3-0.3,0.5-0.6,0.5H0.5c-0.3,0-0.5-0.2-0.5-0.5L2.3,5c0.1-0.3,0.4-0.6,0.7-0.6
		H6.3z"/>
	<path id="XMLID_5_" class="st0" d="M18.4,4.4c0.3,0,0.4,0.2,0.4,0.4l-4.7,22.3c-0.1,0.3-0.4,0.6-0.7,0.6h-3.3
		c-0.2,0-0.5-0.2-0.5-0.4c0,0,0-0.1,4.7-22.4c0.1-0.3,0.4-0.6,0.7-0.6H18.4z"/>
	<path id="XMLID_7_" class="st0" d="M31.4,0c0.3,0,0.4,0.2,0.4,0.4L31.4,3c-0.1,0.3-0.4,0.6-0.7,0.6h-5.5l-5,23.6
		c-0.1,0.3-0.4,0.6-0.7,0.6h-3.3c-0.3,0-0.5-0.2-0.5-0.4c0,0,0-0.1,5.1-23.8h-5.5c-0.3,0-0.4-0.2-0.4-0.6l0.5-2.5
		C15.4,0.2,15.7,0,16,0H31.4z"/>
	<path id="XMLID_9_" class="st0" d="M35,4.4c0.4,0,1.6,0,1.6,1.3c0,0.2,0,0.4-4.6,21.5c-0.1,0.3-0.4,0.6-0.7,0.6H28
		c-0.2,0-0.5-0.2-0.5-0.4c0,0,0-0.1,1.6-7.8h-1.3l-1.6,7.7c-0.1,0.3-0.4,0.6-0.7,0.6h-3.3c-0.2,0-0.5-0.2-0.5-0.4c0,0,0-0.1,4.4-21
		c0.4-1.9,1.8-1.9,2.3-1.9H35z M28.6,16H30l1.7-8h-1.3L28.6,16z"/>
	<path id="XMLID_12_" class="st0" d="M44.4,4.4c1.4,0,1.6,0.7,1.6,1.2c0,0.2,0,0.4-0.1,0.6h0.1c0.1-0.5,0.4-1.9,2.3-1.9h4.1
		c0.4,0,1.6,0,1.6,1.3c0,0.2,0,0.4-4.5,21.5c-0.1,0.3-0.4,0.6-0.7,0.6h-3.3c-0.2,0-0.5-0.2-0.5-0.4c0,0,0-0.1,4.1-19.3H48l-4.1,19.2
		c-0.1,0.3-0.4,0.6-0.7,0.6h-3.3c-0.2,0-0.4-0.2-0.4-0.4c0-0.1,0-0.1,4.1-19.4h-1.3l-4.1,19.2c-0.1,0.3-0.4,0.6-0.7,0.6h-3.3
		c-0.2,0-0.5-0.2-0.5-0.4c0,0,0-0.1,4.4-21c0.4-1.9,1.9-1.9,2.4-1.9H44.4z"/>
	<path id="XMLID_14_" class="st0" d="M60,4.4c0.3,0,0.4,0.2,0.4,0.4l-4.7,22.3c-0.1,0.3-0.4,0.6-0.7,0.6h-3.3
		c-0.2,0-0.5-0.2-0.5-0.4c0,0,0-0.1,4.7-22.4c0.1-0.3,0.4-0.6,0.7-0.6H60z"/>
	<path id="XMLID_16_" class="st0" d="M65.7,4.4c0.3,0,0.4,0.2,0.4,0.4l1.1,11.5L69.6,5c0.1-0.3,0.4-0.6,0.7-0.6h2.9
		c0.3,0,0.4,0.2,0.4,0.4l-4.7,22.3c-0.1,0.3-0.4,0.6-0.7,0.6h-2.9c-0.2,0-0.5-0.2-0.5-0.4c0,0,0-0.1-1.2-10.7l-2.3,10.6
		c-0.1,0.3-0.4,0.6-0.7,0.6h-2.9c-0.3,0-0.5-0.2-0.5-0.4c0,0,0-0.1,4.7-22.4c0.1-0.3,0.4-0.6,0.7-0.6H65.7z"/>
	<path id="XMLID_18_" class="st1" d="M71,27.8c-0.2,0-0.5-0.2-0.5-0.4c0,0,0-0.1,0.6-2.9c0.1-0.3,0.4-0.6,0.7-0.6h3.8l1.2-5.8h-2.4
		c-0.4,0-1.6,0-1.6-1.3c0-0.2,0-0.4,2.1-10.4c0.4-1.9,1.8-1.9,2.3-1.9h6.6c0.3,0,0.4,0.2,0.4,0.4l-0.5,2.6C83.8,7.8,83.5,8,83.2,8
		h-4.1l-1.4,6.3h2.4c0.4,0,1.6,0,1.6,1.3c0,0.2,0,0.4-2.1,10.2c-0.4,1.9-1.8,1.9-2.3,1.9H71z"/>
	<path id="XMLID_20_" class="st1" d="M90,4.4c0.3,0,0.4,0.2,0.4,0.4l-2,9.4h1.3l2-9.3c0.1-0.3,0.4-0.6,0.7-0.6h3.3
		c0.3,0,0.4,0.2,0.4,0.4l-4.7,22.3c-0.1,0.3-0.4,0.6-0.7,0.6h-3.3c-0.3,0-0.5-0.2-0.5-0.4c0,0,0-0.1,2-9.5h-1.3l-2,9.3
		c-0.1,0.3-0.4,0.6-0.7,0.6h-3.3c-0.2,0-0.5-0.2-0.5-0.4c0,0,0-0.1,4.8-22.4c0.1-0.3,0.4-0.6,0.7-0.6H90z"/>
	<path id="XMLID_22_" class="st1" d="M99.8,4.4h6.4c0.4,0,1.6,0,1.6,1.3c0,0.2,0,0.4-4.2,20.1c-0.4,1.9-1.8,1.9-2.3,1.9h-6.4
		c-0.4,0-1.6,0-1.6-1.3c0-0.2,0-0.4,4.2-20.1C98,4.5,99.3,4.4,99.8,4.4z M103,8h-1.3l-3.4,16.2h1.3L103,8z"/>
	<path id="XMLID_25_" class="st1" d="M113.9,21.9h-3.4l-1.1,5.3c-0.1,0.3-0.4,0.6-0.7,0.6h-3.3c-0.2,0-0.5-0.2-0.5-0.4
		c0,0,0-0.1,4.7-22.4c0.1-0.3,0.4-0.6,0.7-0.6h7.3c0.4,0,1.6,0,1.6,1.3c0,0.2,0,0.4-3,14.2C115.8,21.9,114.4,21.9,113.9,21.9z
		 M111.3,18.3h1.3L114.8,8h-1.3L111.3,18.3z"/>
</g>
</svg>
