<?xml version="1.0" encoding="utf-8"?>
<!-- Generator: Adobe Illustrator 19.0.0, SVG Export Plug-In . SVG Version: 6.00 Build 0)  -->
<svg version="1.1" id="Layer_1" xmlns="http://www.w3.org/2000/svg" xmlns:xlink="http://www.w3.org/1999/xlink" x="0px" y="0px"
	 viewBox="-408 286.3 24 24" style="enable-background:new -408 286.3 24 24;" xml:space="preserve">
<style type="text/css">
	.st0{fill:#2C2C2C;}
</style>
<path class="st0" d="M-400,310.3c-1.7,0-3-1.3-3-3s1.3-3,3-3s3,1.3,3,3S-398.3,310.3-400,310.3z M-400,306.3c-0.6,0-1,0.4-1,1
	s0.4,1,1,1s1-0.4,1-1S-399.4,306.3-400,306.3z"/>
<path class="st0" d="M-388,310.3c-1.7,0-3-1.3-3-3s1.3-3,3-3s3,1.3,3,3S-386.3,310.3-388,310.3z M-388,306.3c-0.6,0-1,0.4-1,1
	s0.4,1,1,1s1-0.4,1-1S-387.4,306.3-388,306.3z"/>
<path class="st0" d="M-388.6,303.3C-388.7,303.3-388.7,303.3-388.6,303.3h-10.6c-1.5,0-2.8-1.1-3-2.6l-1.5-11.5
	c-0.1-0.5-0.5-0.9-1-0.9h-2.2c-0.6,0-1-0.4-1-1s0.4-1,1-1h2.2c1.5,0,2.8,1.1,3,2.6l0.3,2.4h16.5c0.3,0,0.6,0.1,0.8,0.4
	c0.2,0.2,0.3,0.5,0.2,0.8l-1.7,8.4C-386,302.3-387.2,303.3-388.6,303.3z M-388.7,301.3c0.5,0,0.9-0.3,1-0.8l1.4-7.2h-15l0.9,7.1
	c0.1,0.5,0.5,0.9,1,0.9H-388.7z"/>
</svg>
