<?xml version="1.0" encoding="utf-8"?>
<!-- Generator: Adobe Illustrator 19.0.0, SVG Export Plug-In . SVG Version: 6.00 Build 0)  -->
<svg version="1.1" id="Layer_1" xmlns="http://www.w3.org/2000/svg" xmlns:xlink="http://www.w3.org/1999/xlink" x="0px" y="0px"
	 viewBox="-45 45 8 12" style="enable-background:new -45 45 8 12;" xml:space="preserve">
<style type="text/css">
	.st0{fill:#383838;}
</style>
<path id="XMLID_2_" class="st0" d="M-37.6,49.5c-0.1,0-0.3,0-0.4-0.1l-3-3l-3,3c-0.2,0.2-0.6,0.2-0.8,0c-0.2-0.2-0.2-0.6,0-0.8
	l3.4-3.4c0.2-0.2,0.6-0.2,0.8,0l3.4,3.4c0.2,0.2,0.2,0.6,0,0.8C-37.3,49.5-37.5,49.5-37.6,49.5z"/>
<path id="XMLID_1_" class="st0" d="M-44.4,52.5c0.1,0,0.3,0.1,0.4,0.2l3,3l3-3c0.2-0.2,0.6-0.2,0.8,0c0.2,0.1,0.2,0.5,0,0.7
	l-3.4,3.4c-0.2,0.2-0.6,0.2-0.8,0l-3.4-3.4c-0.2-0.2-0.2-0.6,0-0.8C-44.7,52.5-44.5,52.5-44.4,52.5z"/>
</svg>
