<?xml version="1.0" encoding="utf-8"?>
<!-- Generator: Adobe Illustrator 19.0.0, SVG Export Plug-In . SVG Version: 6.00 Build 0)  -->
<svg version="1.1" id="Layer_1" xmlns="http://www.w3.org/2000/svg" xmlns:xlink="http://www.w3.org/1999/xlink" x="0px" y="0px"
	 viewBox="-37 39 24 24" style="enable-background:new -37 39 24 24;" xml:space="preserve">
<style type="text/css">
	.st0{fill:#FFFFFF;}
</style>
<path class="st0" d="M-17,61c-0.6,0-1-0.4-1-1v-2c0-1.7-1.3-3-3-3h-8c-1.7,0-3,1.3-3,3v2c0,0.6-0.4,1-1,1s-1-0.4-1-1v-2
	c0-2.8,2.2-5,5-5h8c2.8,0,5,2.2,5,5v2C-16,60.6-16.4,61-17,61z"/>
<path class="st0" d="M-25,51c-2.8,0-5-2.2-5-5s2.2-5,5-5s5,2.2,5,5S-22.2,51-25,51z M-25,43c-1.7,0-3,1.3-3,3s1.3,3,3,3s3-1.3,3-3
	S-23.3,43-25,43z"/>
</svg>
