<?xml version="1.0" encoding="utf-8"?>
<!-- Generator: Adobe Illustrator 19.0.0, SVG Export Plug-In . SVG Version: 6.00 Build 0)  -->
<svg version="1.1" id="Layer_1" xmlns="http://www.w3.org/2000/svg" xmlns:xlink="http://www.w3.org/1999/xlink" x="0px" y="0px"
	 viewBox="-37 39 24 24" style="enable-background:new -37 39 24 24;" xml:space="preserve">
<style type="text/css">
	.st0{fill:#FFFFFF;}
</style>
<path class="st0" d="M-29,63c-1.7,0-3-1.3-3-3s1.3-3,3-3s3,1.3,3,3S-27.3,63-29,63z M-29,59c-0.6,0-1,0.4-1,1s0.4,1,1,1s1-0.4,1-1
	S-28.4,59-29,59z"/>
<path class="st0" d="M-17,63c-1.7,0-3-1.3-3-3s1.3-3,3-3s3,1.3,3,3S-15.3,63-17,63z M-17,59c-0.6,0-1,0.4-1,1s0.4,1,1,1s1-0.4,1-1
	S-16.4,59-17,59z"/>
<path class="st0" d="M-17.6,56C-17.7,56-17.7,56-17.6,56h-10.6c-1.5,0-2.8-1.1-3-2.6l-1.5-11.5c-0.1-0.5-0.5-0.9-1-0.9H-36
	c-0.6,0-1-0.4-1-1s0.4-1,1-1h2.2c1.5,0,2.8,1.1,3,2.6l0.3,2.4H-14c0.3,0,0.6,0.1,0.8,0.4c0.2,0.2,0.3,0.5,0.2,0.8l-1.7,8.4
	C-15,55-16.2,56-17.6,56z M-17.7,54c0.5,0,0.9-0.3,1-0.8l1.4-7.2h-15l0.9,7.1c0.1,0.5,0.5,0.9,1,0.9H-17.7z"/>
</svg>
