<?xml version="1.0" encoding="utf-8"?>
<!-- Generator: Adobe Illustrator 19.0.0, SVG Export Plug-In . SVG Version: 6.00 Build 0)  -->
<svg version="1.1" id="Layer_1" xmlns="http://www.w3.org/2000/svg" xmlns:xlink="http://www.w3.org/1999/xlink" x="0px" y="0px"
	 viewBox="-408 286.3 24 24" style="enable-background:new -408 286.3 24 24;" xml:space="preserve">
<style type="text/css">
	.st0{fill:#FFFFFF;}
</style>
<path class="st0" d="M-388,299.3h-16c-0.6,0-1-0.4-1-1s0.4-1,1-1h16c0.6,0,1,0.4,1,1S-387.4,299.3-388,299.3z"/>
<path class="st0" d="M-398,305.3c-0.3,0-0.5-0.1-0.7-0.3l-6-6c-0.4-0.4-0.4-1,0-1.4l6-6c0.4-0.4,1-0.4,1.4,0s0.4,1,0,1.4l-5.3,5.3
	l5.3,5.3c0.4,0.4,0.4,1,0,1.4C-397.5,305.2-397.7,305.3-398,305.3z"/>
</svg>
