<?xml version="1.0" encoding="utf-8"?>
<!-- Generator: Adobe Illustrator 19.0.0, SVG Export Plug-In . SVG Version: 6.00 Build 0)  -->
<svg version="1.1" xmlns="http://www.w3.org/2000/svg" xmlns:xlink="http://www.w3.org/1999/xlink" x="0px" y="0px"
	 viewBox="0 0 24 24" style="enable-background:new 0 0 24 24;" xml:space="preserve">
<style type="text/css">
	.st0{display:none;}
	.st1{display:inline;fill:#232323;}
	.st2{fill:#232323;}
</style>
<g id="Layer_1" class="st0">
	<path id="XMLID_6_" class="st1" d="M21.6,8.6l-0.4,0c-1.1-4.1-4.9-7.1-9.2-7.1c-4.3,0-8.1,2.9-9.2,7.1l-0.4,0C1.1,8.6,0,9.7,0,11
		v2.6C0,14.9,1.1,16,2.4,16h0.3c0.4,3,2.9,5.3,6,5.3h0.6c0.3,0.7,1,1.2,1.8,1.2h2c1.1,0,2-0.9,2-2c0-1.1-0.9-2-2-2h-2
		c-0.8,0-1.5,0.5-1.8,1.2H8.6c-2.5,0-4.5-2-4.5-4.5V9.5C4.9,5.8,8.2,3.1,12,3.1c3.8,0,7.1,2.7,7.9,6.4v5.7c0,0.4,0.3,0.8,0.8,0.8h1
		c1.3,0,2.4-1.1,2.4-2.4V11C24,9.7,22.9,8.6,21.6,8.6z M11,20.1h2c0.2,0,0.4,0.2,0.4,0.4c0,0.2-0.2,0.4-0.4,0.4h-2
		c-0.2,0-0.4-0.2-0.4-0.4C10.6,20.3,10.8,20.1,11,20.1z M1.5,13.6V11c0-0.5,0.4-0.8,0.8-0.8l0.2,0v4.3H2.4
		C1.9,14.5,1.5,14.1,1.5,13.6z M22.5,13.6c0,0.5-0.4,0.8-0.8,0.8h-0.2v-4.3l0.2,0c0.5,0,0.8,0.4,0.8,0.8V13.6z"/>
</g>
<g id="Layer_2">
	<path id="XMLID_10_" class="st2" d="M21.9,22.9L20.4,6.7c0-0.4-0.4-0.8-0.9-0.8h-3V4.6C16.6,2.1,14.5,0,12,0C9.5,0,7.4,2.1,7.4,4.6
		v1.4h-3C4,5.9,3.6,6.3,3.6,6.7L2.1,23c0,0.2,0.1,0.5,0.2,0.7s0.4,0.3,0.6,0.3H21c0,0,0,0,0,0c0.5,0,0.9-0.4,0.9-0.9
		C21.9,23,21.9,23,21.9,22.9z M9.1,4.6c0-1.6,1.3-2.9,2.9-2.9c1.6,0,2.9,1.3,2.9,2.9v1.4H9.1V4.6z M3.9,22.2L5.2,7.6h2.2v1.5
		c0,0.5,0.4,0.9,0.9,0.9s0.9-0.4,0.9-0.9V7.6h5.7v1.5c0,0.5,0.4,0.9,0.9,0.9c0.5,0,0.9-0.4,0.9-0.9V7.6h2.2l1.3,14.6H3.9L3.9,22.2z"
		/>
</g>
</svg>
