<?xml version="1.0" encoding="utf-8"?>
<!-- Generator: Adobe Illustrator 19.0.0, SVG Export Plug-In . SVG Version: 6.00 Build 0)  -->
<svg version="1.1" id="Layer_1" xmlns="http://www.w3.org/2000/svg" xmlns:xlink="http://www.w3.org/1999/xlink" x="0px" y="0px"
	 viewBox="10 -9 24 24" style="enable-background:new 10 -9 24 24;" xml:space="preserve">
<style type="text/css">
	.st0{fill:#FFFFFF;}
</style>
<path class="st0" d="M31,4H13c-0.6,0-1-0.4-1-1c0-0.6,0.4-1,1-1h18c0.6,0,1,0.4,1,1C32,3.6,31.6,4,31,4z"/>
<path class="st0" d="M31-2H13c-0.6,0-1-0.4-1-1s0.4-1,1-1h18c0.6,0,1,0.4,1,1S31.6-2,31-2z"/>
<path class="st0" d="M31,10H13c-0.6,0-1-0.4-1-1s0.4-1,1-1h18c0.6,0,1,0.4,1,1S31.6,10,31,10z"/>
</svg>
