<?xml version="1.0" encoding="utf-8"?>
<!-- Generator: Adobe Illustrator 19.0.0, SVG Export Plug-In . SVG Version: 6.00 Build 0)  -->
<svg version="1.1" id="Layer_1" xmlns="http://www.w3.org/2000/svg" xmlns:xlink="http://www.w3.org/1999/xlink" x="0px" y="0px"
	 viewBox="-42 9 24 24" style="enable-background:new -42 9 24 24;" xml:space="preserve">
<style type="text/css">
	.st0{fill:#FFFFFF;}
</style>
<path class="st0" d="M-28,31.7h-4c-0.4,0-0.7-0.3-0.7-0.7v-7.3H-35c-0.4,0-0.7-0.3-0.7-0.7v-4c0-0.4,0.3-0.7,0.7-0.7h2.3V16
	c0-3.2,2.6-5.7,5.7-5.7h3c0.4,0,0.7,0.3,0.7,0.7v4c0,0.4-0.3,0.7-0.7,0.7h-3c-0.2,0-0.3,0.1-0.3,0.3v2.3h3.3c0.2,0,0.4,0.1,0.6,0.3
	c0.1,0.2,0.2,0.4,0.1,0.6l-1,4c-0.1,0.3-0.4,0.5-0.7,0.5h-2.3V31C-27.3,31.4-27.6,31.7-28,31.7z M-31.3,30.3h2.6V23
	c0-0.4,0.3-0.7,0.7-0.7h2.4l0.6-2.6H-28c-0.4,0-0.7-0.3-0.7-0.7v-3c0-0.9,0.8-1.7,1.7-1.7h2.3v-2.6H-27c-2.4,0-4.3,1.9-4.3,4.3v3
	c0,0.4-0.3,0.7-0.7,0.7h-2.3v2.6h2.3c0.4,0,0.7,0.3,0.7,0.7V30.3z"/>
</svg>
