<?xml version="1.0" encoding="utf-8"?>
<!-- Generator: Adobe Illustrator 19.0.0, SVG Export Plug-In . SVG Version: 6.00 Build 0)  -->
<svg version="1.1" id="Layer_1" xmlns="http://www.w3.org/2000/svg" xmlns:xlink="http://www.w3.org/1999/xlink" x="0px" y="0px"
	 viewBox="-101 58.7 24 24" style="enable-background:new -101 58.7 24 24;" xml:space="preserve">
<style type="text/css">
	.st0{fill:#19191F;}
</style>
<path class="st0" d="M-89,81.7c-6.1,0-11-4.9-11-11c0-6.1,4.9-11,11-11s11,4.9,11,11C-78,76.8-82.9,81.7-89,81.7z M-89,61.7
	c-5,0-9,4-9,9s4,9,9,9c5,0,9-4,9-9S-84,61.7-89,61.7z"/>
<path class="st0" d="M-89,75.7c-0.6,0-1-0.4-1-1v-8c0-0.6,0.4-1,1-1s1,0.4,1,1v8C-88,75.3-88.4,75.7-89,75.7z"/>
<path class="st0" d="M-85,71.7h-8c-0.6,0-1-0.4-1-1s0.4-1,1-1h8c0.6,0,1,0.4,1,1S-84.4,71.7-85,71.7z"/>
</svg>
