<?xml version="1.0" encoding="utf-8"?>
<!-- Generator: Adobe Illustrator 19.0.0, SVG Export Plug-In . SVG Version: 6.00 Build 0)  -->
<svg version="1.1" id="Layer_1" xmlns="http://www.w3.org/2000/svg" xmlns:xlink="http://www.w3.org/1999/xlink" x="0px" y="0px"
	 viewBox="-42 9 24 24" style="enable-background:new -42 9 24 24;" xml:space="preserve">
<style type="text/css">
	.st0{fill:#DB0C13;}
</style>
<path class="st0" d="M-23,32h-5c-0.6,0-1-0.4-1-1s0.4-1,1-1h5c0.6,0,1-0.4,1-1V13c0-0.6-0.4-1-1-1h-5c-0.6,0-1-0.4-1-1s0.4-1,1-1h5
	c1.7,0,3,1.3,3,3v16C-20,30.7-21.3,32-23,32z"/>
<path class="st0" d="M-31,26c-0.3,0-0.5-0.1-0.7-0.3c-0.4-0.4-0.4-1,0-1.4l3.3-3.3l-3.3-3.3c-0.4-0.4-0.4-1,0-1.4s1-0.4,1.4,0l4,4
	c0.4,0.4,0.4,1,0,1.4l-4,4C-30.5,25.9-30.7,26-31,26z"/>
<path class="st0" d="M-27,22h-12c-0.6,0-1-0.4-1-1s0.4-1,1-1h12c0.6,0,1,0.4,1,1S-26.4,22-27,22z"/>
</svg>
