<?xml version="1.0" encoding="utf-8"?>
<!-- Generator: Adobe Illustrator 23.0.4, SVG Export Plug-In . SVG Version: 6.00 Build 0)  -->
<svg version="1.1" id="Layer_1" xmlns="http://www.w3.org/2000/svg" xmlns:xlink="http://www.w3.org/1999/xlink" x="0px" y="0px"
	 viewBox="0 0 24 24" style="enable-background:new 0 0 24 24;" xml:space="preserve">
<style type="text/css">
	.st0{fill:#549F27;}
</style>
<path class="st0" d="M19.5,23.4c-0.1,0-0.2,0-0.3,0c-3.2-0.4-6.4-1.5-9.1-3.2c-2.5-1.6-4.7-3.8-6.3-6.3C2,11.2,0.9,8,0.6,4.8
	C0.5,4,0.8,3.2,1.3,2.6c0.5-0.6,1.2-1,2-1.1c0.1,0,0.2,0,0.3,0h3l0,0c1.5,0,2.8,1.1,3,2.6C9.7,5,9.9,5.9,10.2,6.7
	c0.4,1.1,0.1,2.3-0.7,3.2l-0.7,0.7c1.2,1.8,2.7,3.4,4.6,4.6l0.7-0.7c0.8-0.8,2.1-1.1,3.2-0.7c0.8,0.3,1.7,0.5,2.6,0.6
	c1.5,0.2,2.6,1.5,2.6,3v3c0,0.8-0.3,1.6-0.9,2.1C21,23,20.3,23.4,19.5,23.4L19.5,23.4z M6.6,3.5L6.6,3.5h-3C3.2,3.5,3,3.7,2.8,3.9
	S2.5,4.4,2.6,4.6c0.3,2.9,1.3,5.8,2.9,8.2c1.5,2.3,3.4,4.3,5.7,5.7c2.5,1.6,5.3,2.6,8.2,2.9c0.4,0,0.6-0.1,0.8-0.3
	c0.2-0.2,0.3-0.4,0.3-0.7v-3l0,0c0-0.5-0.4-0.9-0.9-1c-1-0.1-2-0.4-3-0.8c-0.4-0.1-0.8-0.1-1.1,0.2l-1.3,1.3
	c-0.3,0.3-0.8,0.4-1.2,0.2c-2.7-1.5-4.9-3.7-6.4-6.4C6.4,10.5,6.4,10,6.8,9.7l1.3-1.3c0.3-0.3,0.4-0.7,0.2-1.1c-0.4-1-0.6-2-0.8-3
	C7.6,3.9,7.1,3.5,6.6,3.5z M18.5,10.5c-0.5,0-0.9-0.3-1-0.8c-0.3-1.6-1.6-2.8-3.2-3.2c-0.5-0.1-0.9-0.6-0.8-1.2
	c0.1-0.5,0.6-0.9,1.2-0.8C17.1,5,19,6.8,19.4,9.2c0.1,0.5-0.2,1.1-0.8,1.2C18.6,10.4,18.6,10.5,18.5,10.5z M22.5,10.4
	c-0.5,0-0.9-0.4-1-0.9c-0.4-3.7-3.3-6.6-7.1-7.1c-0.5-0.1-0.9-0.6-0.9-1.1c0.1-0.5,0.6-0.9,1.1-0.9c4.7,0.5,8.3,4.1,8.8,8.8
	C23.5,9.7,23.1,10.2,22.5,10.4C22.6,10.4,22.5,10.4,22.5,10.4z"/>
</svg>
