<?xml version="1.0" encoding="utf-8"?>
<!-- Generator: Adobe Illustrator 19.0.0, SVG Export Plug-In . SVG Version: 6.00 Build 0)  -->
<svg version="1.1" id="Layer_1" xmlns="http://www.w3.org/2000/svg" xmlns:xlink="http://www.w3.org/1999/xlink" x="0px" y="0px"
	 viewBox="-42 9 24 24" style="enable-background:new -42 9 24 24;" xml:space="preserve">
<style type="text/css">
	.st0{fill:#FFFFFF;}
</style>
<path class="st0" d="M-30,29.2c-0.7,0-7,0-8.8-0.5c-1.2-0.3-2.1-1.2-2.4-2.4c-0.3-1.9-0.5-3.7-0.5-5.5c0-1.8,0.1-3.6,0.5-5.4
	c0.3-1.3,1.2-2.2,2.5-2.6c1.8-0.5,8.1-0.5,8.8-0.5c0.3,0,7,0,8.8,0.4c1.2,0.3,2.2,1.3,2.5,2.5c0,0,0,0,0,0c0.3,1.8,0.5,3.6,0.5,5.5
	c0,1.8-0.2,3.6-0.5,5.4c-0.3,1.3-1.2,2.2-2.5,2.6C-23,29.2-29.3,29.2-30,29.2z M-30,13.7c-1.9,0-7.1,0.1-8.4,0.4
	c-0.7,0.2-1.3,0.8-1.4,1.5c-0.3,1.7-0.4,3.4-0.4,5.1c0,1.7,0.1,3.5,0.4,5.2c0.2,0.6,0.7,1.2,1.4,1.4c1.3,0.4,6.5,0.4,8.4,0.4
	s7.1-0.1,8.4-0.4c0.7-0.2,1.3-0.8,1.4-1.5c0.3-1.6,0.4-3.4,0.4-5.1c0-1.7-0.1-3.5-0.4-5.2c-0.2-0.7-0.7-1.3-1.4-1.5
	C-22.9,13.8-28.1,13.7-30,13.7z"/>
<path class="st0" d="M-32.2,24.7c-0.1,0-0.2,0-0.4-0.1c-0.2-0.1-0.4-0.4-0.4-0.6v-6.5c0-0.3,0.1-0.5,0.4-0.6c0.2-0.1,0.5-0.1,0.7,0
	l5.8,3.3c0.2,0.1,0.4,0.4,0.4,0.6s-0.1,0.5-0.4,0.6l-5.8,3.3C-32,24.7-32.1,24.7-32.2,24.7z M-31.5,18.7v4.1l3.6-2L-31.5,18.7z"/>
</svg>
