<?xml version="1.0" encoding="utf-8"?>
<!-- Generator: Adobe Illustrator 23.0.4, SVG Export Plug-In . SVG Version: 6.00 Build 0)  -->
<svg version="1.1" id="Layer_1" xmlns="http://www.w3.org/2000/svg" xmlns:xlink="http://www.w3.org/1999/xlink" x="0px" y="0px"
	 viewBox="0 0 24 24" style="enable-background:new 0 0 24 24;" xml:space="preserve">
<style type="text/css">
	.st0{fill:#FF9C00;}
</style>
<path class="st0" d="M19,23h-5c-0.6,0-1-0.4-1-1s0.4-1,1-1h5c0.6,0,1-0.4,1-1V4c0-0.6-0.4-1-1-1h-5c-0.6,0-1-0.4-1-1s0.4-1,1-1h5
	c1.7,0,3,1.3,3,3v16C22,21.7,20.7,23,19,23z"/>
<path class="st0" d="M11,17c-0.3,0-0.5-0.1-0.7-0.3c-0.4-0.4-0.4-1,0-1.4l3.3-3.3l-3.3-3.3c-0.4-0.4-0.4-1,0-1.4s1-0.4,1.4,0l4,4
	c0.4,0.4,0.4,1,0,1.4l-4,4C11.5,16.9,11.3,17,11,17z"/>
<path class="st0" d="M15,13H3c-0.6,0-1-0.4-1-1s0.4-1,1-1h12c0.6,0,1,0.4,1,1S15.6,13,15,13z"/>
</svg>
