<?xml version="1.0" encoding="utf-8"?>
<!-- Generator: Adobe Illustrator 19.0.0, SVG Export Plug-In . SVG Version: 6.00 Build 0)  -->
<svg version="1.1" id="Layer_1" xmlns="http://www.w3.org/2000/svg" xmlns:xlink="http://www.w3.org/1999/xlink" x="0px" y="0px"
	 viewBox="0 0 30 20" style="enable-background:new 0 0 30 20;" xml:space="preserve">
<g id="XMLID_28_">
	<g id="XMLID_29_">
		<path id="XMLID_30_" d="M27.9,8.6l-0.8-3.1c0.2,0,0.4-0.2,0.4-0.5V4.5c0-1.1-0.9-2-2-2H22v-1c0-0.5-0.4-1-1-1H3c-0.5,0-1,0.4-1,1
			V10c0,0.3,0.2,0.5,0.5,0.5C2.8,10.5,3,10.3,3,10V1.5c0,0,0,0,0,0h18c0,0,0,0,0,0V10c0,0.3,0.2,0.5,0.5,0.5c0.3,0,0.5-0.2,0.5-0.5
			V9.5h5.5c0,0,0,0,0,0c0,0,0,0,0,0c0.7,0,1.3,0.4,1.5,1.1h-1.5c-0.3,0-0.5,0.2-0.5,0.5v1c0,0.8,0.7,1.5,1.5,1.5H29v2.1h-1.2
			c-0.4-1.2-1.5-2-2.8-2s-2.4,0.8-2.8,2H22V12c0-0.3-0.2-0.5-0.5-0.5c-0.3,0-0.5,0.2-0.5,0.5v3.5h-9.7c-0.4-1.2-1.5-2-2.8-2
			s-2.4,0.8-2.8,2H3c0,0,0,0,0,0v-1h2c0.3,0,0.5-0.2,0.5-0.5c0-0.3-0.2-0.5-0.5-0.5H0.5C0.2,13.5,0,13.7,0,14c0,0.3,0.2,0.5,0.5,0.5
			H2v1c0,0.5,0.4,1,1,1h2.5c0,0,0,0,0,0c0,1.6,1.3,3,3,3s3-1.3,3-3c0,0,0,0,0,0H22c0,0,0,0,0,0c0,1.6,1.3,3,3,3s3-1.3,3-3
			c0,0,0,0,0,0h1.5c0.3,0,0.5-0.2,0.5-0.5v-5C30,9.8,29.1,8.7,27.9,8.6z M22,3.5h3.5c0.6,0,1,0.5,1,1v0H22V3.5z M22,8.5V5.5h4.2
			l0.8,3.1L22,8.5L22,8.5z M8.5,18.5c-1.1,0-2-0.9-2-2s0.9-2,2-2s2,0.9,2,2S9.6,18.5,8.5,18.5z M25,18.5c-1.1,0-2-0.9-2-2s0.9-2,2-2
			c1.1,0,2,0.9,2,2S26.1,18.5,25,18.5z M29,12.5h-0.5c-0.3,0-0.5-0.2-0.5-0.5v-0.5H29L29,12.5L29,12.5z"/>
	</g>
</g>
<g id="XMLID_25_">
	<g id="XMLID_26_">
		<path id="XMLID_5_" d="M8.5,15.5c-0.5,0-1,0.4-1,1s0.4,1,1,1s1-0.4,1-1C9.5,16,9,15.5,8.5,15.5z"/>
	</g>
</g>
<g id="XMLID_22_">
	<g id="XMLID_23_">
		<path id="XMLID_4_" d="M25,15.5c-0.5,0-1,0.4-1,1s0.4,1,1,1c0.5,0,1-0.4,1-1S25.5,15.5,25,15.5z"/>
	</g>
</g>
<g id="XMLID_19_">
	<g id="XMLID_20_">
		<path id="XMLID_3_" d="M19.5,13.5h-7c-0.3,0-0.5,0.2-0.5,0.5s0.2,0.5,0.5,0.5h7c0.3,0,0.5-0.2,0.5-0.5S19.8,13.5,19.5,13.5z"/>
	</g>
</g>
<g id="XMLID_16_">
	<g id="XMLID_17_">
		<path id="XMLID_2_" d="M7.5,11.5h-6C1.2,11.5,1,11.7,1,12c0,0.3,0.2,0.5,0.5,0.5h6C7.8,12.5,8,12.3,8,12C8,11.7,7.8,11.5,7.5,11.5
			z"/>
	</g>
</g>
<g id="XMLID_13_">
	<g id="XMLID_14_">
		<path id="XMLID_1_" d="M16.3,5.2c-0.2-0.2-0.5-0.2-0.7,0l-4.2,4.2L9.3,7.2C9.1,7,8.8,7,8.7,7.2c-0.2,0.2-0.2,0.5,0,0.7l2.5,2.5
			c0.1,0.1,0.2,0.1,0.3,0.1c0.1,0,0.2,0,0.3-0.1l4.5-4.5C16.5,5.6,16.5,5.3,16.3,5.2z"/>
	</g>
</g>
</svg>
