<?xml version="1.0" encoding="utf-8"?>
<!-- Generator: Adobe Illustrator 19.0.0, SVG Export Plug-In . SVG Version: 6.00 Build 0)  -->
<svg version="1.1" id="Layer_1" xmlns="http://www.w3.org/2000/svg" xmlns:xlink="http://www.w3.org/1999/xlink" x="0px" y="0px"
	 viewBox="7 -10 24 24" style="enable-background:new 7 -10 24 24;" xml:space="preserve">
<style type="text/css">
	.st0{fill:#1A1A1A;}
</style>
<path class="st0" d="M13,9c-0.3,0-0.5-0.1-0.7-0.3c-0.4-0.4-0.4-1,0-1.4l12-12c0.4-0.4,1-0.4,1.4,0s0.4,1,0,1.4l-12,12
	C13.5,8.9,13.3,9,13,9z"/>
<path class="st0" d="M25,9c-0.3,0-0.5-0.1-0.7-0.3l-12-12c-0.4-0.4-0.4-1,0-1.4s1-0.4,1.4,0l12,12c0.4,0.4,0.4,1,0,1.4
	C25.5,8.9,25.3,9,25,9z"/>
</svg>
