<?xml version="1.0" encoding="utf-8"?>
<!-- Generator: Adobe Illustrator 19.0.0, SVG Export Plug-In . SVG Version: 6.00 Build 0)  -->
<svg version="1.1" xmlns="http://www.w3.org/2000/svg" xmlns:xlink="http://www.w3.org/1999/xlink" x="0px" y="0px"
	 viewBox="0 0 30 20" style="enable-background:new 0 0 30 20;" xml:space="preserve">
<style type="text/css">
	.st0{display:none;}
	.st1{display:inline;}
</style>
<g id="Layer_1" class="st0">
	<g id="XMLID_28_" class="st1">
		<g id="XMLID_29_">
			<path id="XMLID_30_" d="M27.9,8.6l-0.8-3.1c0.2,0,0.4-0.2,0.4-0.5V4.5c0-1.1-0.9-2-2-2H22v-1c0-0.5-0.4-1-1-1H3c-0.5,0-1,0.4-1,1
				V10c0,0.3,0.2,0.5,0.5,0.5C2.8,10.5,3,10.3,3,10V1.5c0,0,0,0,0,0h18c0,0,0,0,0,0V10c0,0.3,0.2,0.5,0.5,0.5c0.3,0,0.5-0.2,0.5-0.5
				V9.5h5.5c0,0,0,0,0,0c0,0,0,0,0,0c0.7,0,1.3,0.4,1.5,1.1h-1.5c-0.3,0-0.5,0.2-0.5,0.5v1c0,0.8,0.7,1.5,1.5,1.5H29v2.1h-1.2
				c-0.4-1.2-1.5-2-2.8-2s-2.4,0.8-2.8,2H22V12c0-0.3-0.2-0.5-0.5-0.5c-0.3,0-0.5,0.2-0.5,0.5v3.5h-9.7c-0.4-1.2-1.5-2-2.8-2
				s-2.4,0.8-2.8,2H3c0,0,0,0,0,0v-1h2c0.3,0,0.5-0.2,0.5-0.5c0-0.3-0.2-0.5-0.5-0.5H0.5C0.2,13.5,0,13.7,0,14
				c0,0.3,0.2,0.5,0.5,0.5H2v1c0,0.5,0.4,1,1,1h2.5c0,0,0,0,0,0c0,1.6,1.3,3,3,3s3-1.3,3-3c0,0,0,0,0,0H22c0,0,0,0,0,0
				c0,1.6,1.3,3,3,3s3-1.3,3-3c0,0,0,0,0,0h1.5c0.3,0,0.5-0.2,0.5-0.5v-5C30,9.8,29.1,8.7,27.9,8.6z M22,3.5h3.5c0.6,0,1,0.5,1,1v0
				H22V3.5z M22,8.5V5.5h4.2l0.8,3.1L22,8.5L22,8.5z M8.5,18.5c-1.1,0-2-0.9-2-2s0.9-2,2-2s2,0.9,2,2S9.6,18.5,8.5,18.5z M25,18.5
				c-1.1,0-2-0.9-2-2s0.9-2,2-2c1.1,0,2,0.9,2,2S26.1,18.5,25,18.5z M29,12.5h-0.5c-0.3,0-0.5-0.2-0.5-0.5v-0.5H29L29,12.5L29,12.5z
				"/>
		</g>
	</g>
	<g id="XMLID_25_" class="st1">
		<g id="XMLID_26_">
			<path id="XMLID_5_" d="M8.5,15.5c-0.5,0-1,0.4-1,1s0.4,1,1,1s1-0.4,1-1C9.5,16,9,15.5,8.5,15.5z"/>
		</g>
	</g>
	<g id="XMLID_22_" class="st1">
		<g id="XMLID_23_">
			<path id="XMLID_4_" d="M25,15.5c-0.5,0-1,0.4-1,1s0.4,1,1,1c0.5,0,1-0.4,1-1S25.5,15.5,25,15.5z"/>
		</g>
	</g>
	<g id="XMLID_19_" class="st1">
		<g id="XMLID_20_">
			<path id="XMLID_3_" d="M19.5,13.5h-7c-0.3,0-0.5,0.2-0.5,0.5s0.2,0.5,0.5,0.5h7c0.3,0,0.5-0.2,0.5-0.5S19.8,13.5,19.5,13.5z"/>
		</g>
	</g>
	<g id="XMLID_16_" class="st1">
		<g id="XMLID_17_">
			<path id="XMLID_2_" d="M7.5,11.5h-6C1.2,11.5,1,11.7,1,12c0,0.3,0.2,0.5,0.5,0.5h6C7.8,12.5,8,12.3,8,12
				C8,11.7,7.8,11.5,7.5,11.5z"/>
		</g>
	</g>
	<g id="XMLID_13_" class="st1">
		<g id="XMLID_14_">
			<path id="XMLID_1_" d="M16.3,5.2c-0.2-0.2-0.5-0.2-0.7,0l-4.2,4.2L9.3,7.2C9.1,7,8.8,7,8.7,7.2c-0.2,0.2-0.2,0.5,0,0.7l2.5,2.5
				c0.1,0.1,0.2,0.1,0.3,0.1c0.1,0,0.2,0,0.3-0.1l4.5-4.5C16.5,5.6,16.5,5.3,16.3,5.2z"/>
		</g>
	</g>
</g>
<g id="Layer_2">
	<g id="XMLID_39_">
		<g id="XMLID_40_">
			<path id="XMLID_41_" d="M25.1,14.2l0.8-1.4l0,0c0.2-0.3,0.3-0.6,0.3-0.9c0-0.5-0.2-0.8-1-0.8h-3.4c0.1-0.2,0.1-0.5,0.1-0.7
				c0.8-4.9-2.6-9.5-7.5-10.3C9.6-0.6,5,2.7,4.2,7.6c-0.1,0.9-0.1,1.8,0,2.7c0,0.2,0.1,0.5,0.1,0.7H1c-0.8,0-1,0.3-1,0.8
				c0,0.3,0.1,0.6,0.3,0.9l0.8,1.4l-0.8,1.4c-0.2,0.3-0.3,0.6-0.3,0.9c0,0.5,0.2,0.8,1,0.8h2.6v1.1c0,0.4,0.1,0.8,0.4,1.1l0,0
				c0.3,0.3,0.7,0.4,1,0.4h16.1c0.8,0,1.5-0.7,1.5-1.5v-1.1h2.6c0.8,0,1-0.3,1-0.8c0-0.3-0.1-0.6-0.3-0.9L25.1,14.2z M7.4,3.3
				L7.4,3.3c3.1-3.1,8.2-3.1,11.4,0c1.5,1.5,2.4,3.6,2.4,5.7c0,0.7-0.1,1.4-0.3,2h-0.8c0.1-0.2,0.1-0.4,0.2-0.7
				c0.7-4-1.9-7.8-5.9-8.5c-4-0.7-7.8,1.9-8.5,5.9c-0.2,0.9-0.2,1.7,0,2.6c0,0.2,0.1,0.4,0.2,0.7H5.3C4.6,8.3,5.4,5.4,7.4,3.3z
				 M8,11.4L8,11.4c-0.2-0.2-0.5-0.3-0.7-0.3H7.1C7,10.8,7,10.5,6.9,10.2C6.8,9.8,6.8,9.4,6.8,9c0-3.5,2.8-6.3,6.3-6.3
				s6.3,2.8,6.3,6.3c0,0.4,0,0.8-0.1,1.2c-0.1,0.3-0.1,0.6-0.2,0.8h-0.2c-0.2,0-0.5,0.1-0.7,0.3l0,0c-0.2,0.2-0.3,0.4-0.3,0.7v1.1
				H8.3v-1.1C8.3,11.8,8.2,11.5,8,11.4z M4,13.5c-0.3,0.3-0.4,0.7-0.4,1v1.8H1c0-0.1,0.1-0.2,0.2-0.3l1-1.7c0.1-0.1,0.1-0.3,0-0.5
				l-1-1.7C1.1,12.2,1.1,12.1,1,12h6.3c0,0,0,0,0,0v1.1H5.1C4.7,13.1,4.3,13.3,4,13.5L4,13.5z M21.7,18.5c0,0.3-0.2,0.5-0.5,0.5H5.1
				c-0.1,0-0.3-0.1-0.4-0.2c-0.1-0.1-0.1-0.2-0.1-0.3v-3.9c0-0.3,0.2-0.5,0.5-0.5h16.1c0.1,0,0.3,0.1,0.4,0.2
				c0.1,0.1,0.2,0.2,0.2,0.4L21.7,18.5z M22.7,16.4v-1.8c0-0.4-0.2-0.8-0.4-1c-0.3-0.3-0.6-0.4-1-0.4h-2.3v-1.1c0,0,0,0,0,0h6.4
				c0,0.1-0.1,0.2-0.2,0.3h0l-1,1.7c-0.1,0.1-0.1,0.3,0,0.5l1,1.7c0.1,0.1,0.1,0.2,0.2,0.3L22.7,16.4L22.7,16.4z"/>
		</g>
	</g>
	<g id="XMLID_34_">
		<g id="XMLID_35_">
			<path id="XMLID_36_" d="M16.5,7c-0.1-0.1-0.2-0.1-0.2-0.1l-1.8-0.4L13.5,5c-0.1-0.2-0.4-0.3-0.7-0.2c-0.1,0-0.1,0.1-0.2,0.2
				l-0.9,1.6L10,6.9C9.8,7,9.6,7.2,9.7,7.5c0,0.1,0.1,0.2,0.1,0.2L11,9l-0.2,1.8c0,0.3,0.2,0.5,0.4,0.5c0.1,0,0.2,0,0.2,0l1.7-0.8
				l1.6,0.7c0.2,0.1,0.5,0,0.6-0.2c0-0.1,0.1-0.2,0-0.3L15.3,9l1.2-1.3C16.6,7.5,16.6,7.2,16.5,7z M14.4,8.6
				c-0.1,0.1-0.1,0.2-0.1,0.4l0.1,1.2l-1.1-0.5c-0.1-0.1-0.3-0.1-0.4,0l-1.1,0.5L12,8.9c0-0.1,0-0.3-0.1-0.4l-0.8-0.9l1.2-0.2
				c0.1,0,0.3-0.1,0.4-0.2l0.6-1l0.6,1c0.1,0.1,0.2,0.2,0.3,0.2l1.2,0.2L14.4,8.6z"/>
		</g>
	</g>
</g>
<g id="Layer_3" class="st0">
	<path id="XMLID_52_" class="st1" d="M10.7,14.1c-0.2,0-0.4,0.2-0.4,0.4c0,0.2,0.2,0.4,0.4,0.4c0.2,0,0.4-0.2,0.4-0.4
		C11.1,14.3,10.9,14.1,10.7,14.1z"/>
	<path id="XMLID_63_" class="st1" d="M20.1,7.5h-1.5c0-1.4,0-4.9,0-6.2C18.6,0.6,18,0,17.3,0H1.2C0.6,0,0,0.6,0,1.2v10
		c0,0.7,0.6,1.2,1.2,1.2h1.5v6.2C2.7,19.4,3.3,20,4,20h16.1c0.7,0,1.2-0.6,1.2-1.2v-10C21.3,8,20.7,7.5,20.1,7.5z M0.8,3.3h16.9V5
		H0.8V3.3z M1.2,0.8h16.1c0.2,0,0.4,0.2,0.4,0.4v1.2H0.8V1.2C0.8,1,1,0.8,1.2,0.8z M1.2,11.7c-0.2,0-0.4-0.2-0.4-0.4V5.8h16.9v1.7H4
		C3.3,7.5,2.7,8,2.7,8.7v2.9H1.2z M20.5,18.7c0,0.2-0.2,0.4-0.4,0.4H4c-0.2,0-0.4-0.2-0.4-0.4v-10c0-0.2,0.2-0.4,0.4-0.4h16.1
		c0.2,0,0.4,0.2,0.4,0.4V18.7z"/>
	<path id="XMLID_59_" class="st1" d="M16.5,10c-0.5,0-0.9,0.1-1.2,0.4C14.9,10.1,14.4,10,14,10c-1.1,0-2.1,0.9-2.1,2.1
		s0.9,2.1,2.1,2.1c0.5,0,0.9-0.1,1.2-0.4c0.4,0.3,0.8,0.4,1.2,0.4c1.1,0,2.1-0.9,2.1-2.1S17.6,10,16.5,10z M12.7,12.1
		c0-0.7,0.6-1.2,1.2-1.2c0.4,0,0.7,0.2,0.9,0.4c0,0,0,0,0,0c0.2,0.2,0.3,0.5,0.3,0.8s-0.1,0.6-0.3,0.8c-0.2,0.3-0.6,0.4-0.9,0.4
		C13.3,13.3,12.7,12.8,12.7,12.1z M16.5,13.3c-0.2,0-0.5-0.1-0.7-0.2c0.2-0.3,0.3-0.7,0.3-1c0-0.4-0.1-0.7-0.3-1
		c0.2-0.1,0.4-0.2,0.7-0.2c0.7,0,1.2,0.6,1.2,1.2S17.2,13.3,16.5,13.3z"/>
	<path id="XMLID_43_" class="st1" d="M7.3,16.6H5.7c-0.2,0-0.4,0.2-0.4,0.4c0,0.2,0.2,0.4,0.4,0.4h1.7c0.2,0,0.4-0.2,0.4-0.4
		C7.7,16.8,7.6,16.6,7.3,16.6z"/>
	<path id="XMLID_42_" class="st1" d="M10.7,16.6H9c-0.2,0-0.4,0.2-0.4,0.4c0,0.2,0.2,0.4,0.4,0.4h1.7c0.2,0,0.4-0.2,0.4-0.4
		C11.1,16.8,10.9,16.6,10.7,16.6z"/>
	<path id="XMLID_38_" class="st1" d="M14,16.6h-1.7c-0.2,0-0.4,0.2-0.4,0.4c0,0.2,0.2,0.4,0.4,0.4H14c0.2,0,0.4-0.2,0.4-0.4
		C14.4,16.8,14.2,16.6,14,16.6z"/>
	<path id="XMLID_37_" class="st1" d="M17.3,16.6h-1.7c-0.2,0-0.4,0.2-0.4,0.4c0,0.2,0.2,0.4,0.4,0.4h1.7c0.2,0,0.4-0.2,0.4-0.4
		C17.7,16.8,17.5,16.6,17.3,16.6z"/>
	<path id="XMLID_33_" class="st1" d="M5.7,15H9c0.2,0,0.4-0.2,0.4-0.4c0-0.2-0.2-0.4-0.4-0.4H5.7c-0.2,0-0.4,0.2-0.4,0.4
		C5.2,14.8,5.4,15,5.7,15z"/>
</g>
</svg>
