<?xml version="1.0" encoding="utf-8"?>
<!-- Generator: Adobe Illustrator 19.0.0, SVG Export Plug-In . SVG Version: 6.00 Build 0)  -->
<svg version="1.1" id="Layer_1" xmlns="http://www.w3.org/2000/svg" xmlns:xlink="http://www.w3.org/1999/xlink" x="0px" y="0px"
	 viewBox="0 0 20 20" style="enable-background:new 0 0 20 20;" xml:space="preserve">
<style type="text/css">
	.st0{fill:#1A1A1A;}
</style>
<g>
	<path class="st0" d="M19.8,9.1l-9.6-8.3l0,0l0,0c0,0,0,0,0,0c0,0,0,0,0,0c0,0,0,0,0,0c0,0,0,0,0,0c0,0,0,0,0,0c0,0,0,0,0,0
		c0,0,0,0,0,0c0,0,0,0,0,0c0,0,0,0,0,0c0,0,0,0,0,0c0,0,0,0,0,0c0,0,0,0,0,0c0,0,0,0,0,0c0,0,0,0,0,0c0,0,0,0,0,0c0,0,0,0,0,0
		c0,0,0,0,0,0c0,0,0,0,0,0c0,0,0,0,0,0c0,0,0,0,0,0c0,0,0,0,0,0c0,0,0,0,0,0c0,0,0,0,0,0c0,0,0,0,0,0c0,0,0,0,0,0c0,0,0,0,0,0l0,0
		c0,0,0,0,0,0L0.2,9.1C0,9.2-0.1,9.5,0.1,9.7c0.1,0.1,0.2,0.2,0.3,0.2c0.1,0,0.2,0,0.2-0.1l2-1.7v10.1c0,0.6,0.4,1.1,1,1.1h4.3h4.2
		h4.3c0.5,0,1-0.5,1-1.1V8.1l2,1.7c0.1,0.1,0.1,0.1,0.2,0.1c0.1,0,0.2-0.1,0.3-0.2C20.1,9.5,20,9.2,19.8,9.1z M16.6,7.4v10.7
		c0,0.1-0.1,0.2-0.2,0.2h-3.5H7.1H3.6c-0.1,0-0.2-0.1-0.2-0.2V7.4c0,0,0,0,0,0L10,1.7L16.6,7.4C16.6,7.4,16.6,7.4,16.6,7.4z"/>
</g>
<path class="st0" d="M10,14.6c-1.8,0-3.3-1.5-3.3-3.3c0-1.8,1.5-3.3,3.3-3.3c1.8,0,3.3,1.5,3.3,3.3C13.3,13.2,11.8,14.6,10,14.6z
	 M10,9C8.7,9,7.6,10,7.6,11.3s1.1,2.4,2.4,2.4c1.3,0,2.4-1.1,2.4-2.4S11.3,9,10,9z"/>
</svg>
