<?xml version="1.0" encoding="utf-8"?>
<!-- Generator: Adobe Illustrator 19.0.0, SVG Export Plug-In . SVG Version: 6.00 Build 0)  -->
<svg version="1.1" id="Layer_1" xmlns="http://www.w3.org/2000/svg" xmlns:xlink="http://www.w3.org/1999/xlink" x="0px" y="0px"
	 viewBox="4 -4 24 24" style="enable-background:new 4 -4 24 24;" xml:space="preserve">
<style type="text/css">
	.st0{fill:#646E77;}
</style>
<path class="st0" d="M16,17C8.5,17,4.3,8.8,4.1,8.4C4,8.2,4,7.8,4.1,7.5C5.4,5.1,7.2,3,9.5,1.3c0.4-0.3,1.1-0.3,1.4,0.2
	c0.3,0.4,0.3,1.1-0.2,1.4C8.8,4.3,7.3,6,6.1,8c0.9,1.6,4.5,7,9.9,7c1.9,0,3.8-0.7,5.3-1.9c0.4-0.3,1.1-0.2,1.4,0.2
	c0.3,0.4,0.2,1.1-0.2,1.4C20.7,16.2,18.4,17,16,17z M24.8,12.2c-0.2,0-0.5-0.1-0.6-0.2c-0.4-0.4-0.5-1-0.1-1.4
	c0.7-0.8,1.3-1.6,1.8-2.5c-0.9-1.6-4.5-7-9.9-7c-0.6,0-1.3,0.1-1.9,0.2c-0.5,0.1-1.1-0.2-1.2-0.7s0.2-1.1,0.7-1.2
	C14.4-0.9,15.2-1,16-1c7.5,0,11.7,8.2,11.9,8.6c0.1,0.3,0.1,0.6,0,0.9c-0.6,1.2-1.4,2.3-2.3,3.4C25.4,12.1,25.1,12.2,24.8,12.2z
	 M15.9,12.1c-1,0-2-0.4-2.7-1.1c-0.8-0.7-1.2-1.7-1.3-2.8c0-1.1,0.3-2.1,1.1-2.9c0.1-0.1,0.1-0.1,0.2-0.2c0.4-0.4,1-0.4,1.4,0
	c0.4,0.4,0.4,1,0,1.4c0,0-0.1,0.1-0.1,0.1c-0.4,0.4-0.6,0.9-0.5,1.4c0,0.5,0.2,1,0.6,1.4c0.8,0.8,2.1,0.7,2.8-0.1
	c0.4-0.4,1-0.4,1.4,0c0.4,0.4,0.4,1,0,1.4C18.1,11.6,17,12.1,15.9,12.1z"/>
<path class="st0" d="M27,20c-0.3,0-0.5-0.1-0.7-0.3l-22-22c-0.4-0.4-0.4-1,0-1.4s1-0.4,1.4,0l22,22c0.4,0.4,0.4,1,0,1.4
	C27.5,19.9,27.3,20,27,20z"/>
</svg>
