<?xml version="1.0" encoding="utf-8"?>
<!-- Generator: Adobe Illustrator 19.0.0, SVG Export Plug-In . SVG Version: 6.00 Build 0)  -->
<svg version="1.1" id="Layer_1" xmlns="http://www.w3.org/2000/svg" xmlns:xlink="http://www.w3.org/1999/xlink" x="0px" y="0px"
	 viewBox="4 -4 24 24" style="enable-background:new 4 -4 24 24;" xml:space="preserve">
<style type="text/css">
	.st0{fill:#008ED7;}
</style>
<path class="st0" d="M16,11.8c-2.1,0-3.8-1.7-3.8-3.8c0-2.1,1.7-3.8,3.8-3.8c2.1,0,3.8,1.7,3.8,3.8C19.8,10.1,18.1,11.8,16,11.8z
	 M16,6.1c-1,0-1.9,0.9-1.9,1.9c0,1,0.9,1.9,1.9,1.9c1,0,1.9-0.9,1.9-1.9C17.9,7,17,6.1,16,6.1z"/>
<path class="st0" d="M16.1,19.4c-1.6,0-2.9-1.3-2.9-2.9c0-0.3-0.2-0.5-0.4-0.6c-0.3-0.1-0.6-0.1-0.7,0.1c-1.2,1.2-3,1.2-4.1,0.1
	c0,0,0,0,0,0c-0.5-0.5-0.8-1.2-0.8-2c0-0.8,0.3-1.5,0.8-2c0.2-0.2,0.3-0.5,0.2-0.7c-0.1-0.2-0.3-0.4-0.6-0.4H7.4
	c-1.6,0-2.9-1.3-2.9-2.9s1.3-2.9,2.9-2.9c0.3,0,0.5-0.2,0.6-0.4C8.2,4.5,8.1,4.3,8,4.1C6.8,2.9,6.8,1.1,7.9,0c1.1-1.1,2.9-1.1,4,0
	c0.2,0.2,0.5,0.3,0.7,0.2c0.1,0,0.1,0,0.2-0.1C13,0,13.1-0.2,13.1-0.4v-0.2c0-1.6,1.3-2.9,2.9-2.9s2.9,1.3,2.9,2.9
	c0,0.3,0.1,0.6,0.4,0.6c0.2,0.1,0.5,0.1,0.7-0.1c0.6-0.6,1.3-0.9,2.1-0.9c0.8,0,1.5,0.3,2,0.8c0,0,0,0,0,0v0c1.1,1.1,1.1,2.9,0,4
	c-0.2,0.2-0.3,0.5-0.2,0.7c0,0.1,0,0.1,0.1,0.2C24,5,24.2,5.1,24.4,5.1h0.2c1.6,0,2.9,1.3,2.9,2.9s-1.3,2.9-2.9,2.9
	c-0.3,0-0.6,0.1-0.6,0.4c0,0,0,0,0,0c-0.1,0.2-0.1,0.5,0.1,0.7c1.2,1.2,1.2,3,0.1,4.1c-1.1,1.1-2.9,1.1-4,0
	c-0.2-0.2-0.5-0.3-0.7-0.2c-0.2,0.1-0.4,0.3-0.4,0.6v0.2C18.9,18.1,17.7,19.4,16.1,19.4z M12.5,14c0.3,0,0.7,0.1,1,0.2
	c0.9,0.3,1.6,1.2,1.6,2.3c0,0,0,0.1,0,0.1c0,0.5,0.4,1,1,1c0.5,0,1-0.4,1-1v-0.2c0-1,0.6-1.9,1.5-2.3c0.9-0.4,2-0.2,2.8,0.5
	c0.2,0.2,0.5,0.3,0.7,0.3c0,0,0,0,0,0c0.3,0,0.5-0.1,0.7-0.3c0.2-0.2,0.3-0.4,0.3-0.7c0-0.3-0.1-0.5-0.3-0.7c-0.8-0.8-1-1.9-0.6-2.8
	C22.6,9.6,23.5,9,24.5,9c0.6,0,1-0.4,1-1c0-0.5-0.4-1-1-1h-0.2c-1,0-1.9-0.6-2.3-1.5c0-0.1-0.1-0.2-0.1-0.3
	c-0.3-0.9-0.1-1.9,0.6-2.6c0.4-0.4,0.4-1,0.1-1.4c0,0,0,0,0,0C22.5,1.1,22.2,1,22,1h0c-0.3,0-0.5,0.1-0.7,0.3
	c-0.8,0.8-1.9,1-2.8,0.6C17.6,1.4,17,0.5,17-0.5c0-0.6-0.4-1-1-1c-0.5,0-1,0.4-1,1v0.2c0,1-0.6,1.9-1.5,2.3c-0.1,0-0.2,0.1-0.3,0.1
	c-0.9,0.3-1.9,0.1-2.6-0.6C10.2,1,9.6,1,9.3,1.3c-0.4,0.4-0.4,1,0,1.3c0.8,0.8,1,1.9,0.6,2.8C9.5,6.5,8.6,7.1,7.5,7.1
	c0,0-0.1,0-0.1,0c-0.5,0-1,0.4-1,1c0,0.5,0.4,1,1,1h0.2c1,0,1.9,0.6,2.3,1.5c0.4,0.9,0.2,2-0.5,2.8c-0.2,0.2-0.3,0.5-0.3,0.7
	c0,0.3,0.1,0.5,0.3,0.7h0c0,0,0,0,0,0c0.4,0.4,1,0.4,1.3,0C11.2,14.2,11.9,14,12.5,14z"/>
</svg>
