<?xml version="1.0" encoding="utf-8"?>
<!-- Generator: Adobe Illustrator 19.0.0, SVG Export Plug-In . SVG Version: 6.00 Build 0)  -->
<svg version="1.1" id="Layer_1" xmlns="http://www.w3.org/2000/svg" xmlns:xlink="http://www.w3.org/1999/xlink" x="0px" y="0px"
	 viewBox="6 -6 24 24" style="enable-background:new 6 -6 24 24;" xml:space="preserve">
<style type="text/css">
	.st0{fill:#008ED7;}
</style>
<path class="st0" d="M22.8,15.7c-0.6,0-1-0.4-1-1v-1.9c0-1.6-1.3-2.8-2.8-2.8h-7.7c-1.6,0-2.8,1.3-2.8,2.8v1.9c0,0.6-0.4,1-1,1
	s-1-0.4-1-1v-1.9c0-2.7,2.2-4.8,4.8-4.8H19c2.7,0,4.8,2.2,4.8,4.8v1.9C23.8,15.2,23.4,15.7,22.8,15.7z"/>
<path class="st0" d="M15.1,6c-2.7,0-4.8-2.2-4.8-4.8s2.2-4.8,4.8-4.8S20-1.5,20,1.2S17.8,6,15.1,6z M15.1-1.7
	c-1.6,0-2.8,1.3-2.8,2.8S13.5,4,15.1,4C16.7,4,18,2.8,18,1.2S16.7-1.7,15.1-1.7z"/>
<path class="st0" d="M28.6,15.7c-0.6,0-1-0.4-1-1v-1.9c0-1.3-0.9-2.4-2.1-2.8c-0.5-0.1-0.9-0.7-0.7-1.2c0.1-0.5,0.7-0.9,1.2-0.7
	c2.1,0.6,3.6,2.5,3.6,4.7v1.9C29.6,15.2,29.1,15.7,28.6,15.7z"/>
<path class="st0" d="M21.8,5.9c-0.4,0-0.9-0.3-1-0.8c-0.1-0.5,0.2-1.1,0.7-1.2c1-0.3,1.8-1,2.1-2.1c0.4-1.5-0.5-3.1-2.1-3.5
	c-0.5-0.1-0.9-0.7-0.7-1.2c0.1-0.5,0.7-0.9,1.2-0.7c2.6,0.7,4.2,3.3,3.5,5.9c-0.4,1.7-1.8,3.1-3.5,3.5C22,5.9,21.9,5.9,21.8,5.9z"/>
</svg>
