<?xml version="1.0" encoding="utf-8"?>
<!-- Generator: Adobe Illustrator 19.0.0, SVG Export Plug-In . SVG Version: 6.00 Build 0)  -->
<svg version="1.1" id="Layer_1" xmlns="http://www.w3.org/2000/svg" xmlns:xlink="http://www.w3.org/1999/xlink" x="0px" y="0px"
	 viewBox="4 -4 24 24" style="enable-background:new 4 -4 24 24;" xml:space="preserve">
<style type="text/css">
	.st0{fill:#008ED7;}
</style>
<path class="st0" d="M23,18H9c-1.7,0-3-1.3-3-3V1c0-1.7,1.3-3,3-3h14c1.7,0,3,1.3,3,3v14C26,16.7,24.7,18,23,18z M9,0
	C8.4,0,8,0.4,8,1v14c0,0.6,0.4,1,1,1h14c0.6,0,1-0.4,1-1V1c0-0.6-0.4-1-1-1H9z"/>
<path class="st0" d="M25,6H7C6.4,6,6,5.6,6,5s0.4-1,1-1h18c0.6,0,1,0.4,1,1S25.6,6,25,6z"/>
<path class="st0" d="M13,18c-0.6,0-1-0.4-1-1V5c0-0.6,0.4-1,1-1s1,0.4,1,1v12C14,17.6,13.6,18,13,18z"/>
</svg>
