<?xml version="1.0" encoding="utf-8"?>
<!-- Generator: Adobe Illustrator 19.0.0, SVG Export Plug-In . SVG Version: 6.00 Build 0)  -->
<svg version="1.1" id="Layer_1" xmlns="http://www.w3.org/2000/svg" xmlns:xlink="http://www.w3.org/1999/xlink" x="0px" y="0px"
	 viewBox="-45 12 18 18" style="enable-background:new -45 12 18 18;" xml:space="preserve">
<style type="text/css">
	.st0{fill:#44505B;}
</style>
<g id="XMLID_6_">
	<path id="XMLID_18_" class="st0" d="M-30.7,17.5c0,0.2-0.1,0.4-0.2,0.6l-6.1,6.1c-0.2,0.2-0.4,0.2-0.6,0.2c-0.2,0-0.4-0.1-0.6-0.2
		l-2.8-2.8c-0.2-0.2-0.3-0.4-0.3-0.6c0-0.2,0.1-0.4,0.2-0.6c0.3-0.3,0.9-0.3,1.2,0l2.2,2.2l5.5-5.5c0.3-0.3,0.9-0.3,1.2,0
		C-30.8,17-30.7,17.2-30.7,17.5z"/>
</g>
</svg>
