<?xml version="1.0" encoding="utf-8"?>
<!-- Generator: Adobe Illustrator 19.0.0, SVG Export Plug-In . SVG Version: 6.00 Build 0)  -->
<svg version="1.1" id="Layer_1" xmlns="http://www.w3.org/2000/svg" xmlns:xlink="http://www.w3.org/1999/xlink" x="0px" y="0px"
	 viewBox="4 -4 24 24" style="enable-background:new 4 -4 24 24;" xml:space="preserve">
<style type="text/css">
	.st0{fill:#59646E;}
</style>
<path class="st0" d="M25,3H7C6.4,3,6,2.6,6,2s0.4-1,1-1h18c0.6,0,1,0.4,1,1S25.6,3,25,3z"/>
<path class="st0" d="M21,19H11c-1.7,0-3-1.3-3-3V2c0-0.6,0.4-1,1-1s1,0.4,1,1v14c0,0.6,0.4,1,1,1h10c0.6,0,1-0.4,1-1V2
	c0-0.6,0.4-1,1-1s1,0.4,1,1v14C24,17.7,22.7,19,21,19z M20,3c-0.6,0-1-0.4-1-1V0c0-0.6-0.4-1-1-1h-4c-0.6,0-1,0.4-1,1v2
	c0,0.6-0.4,1-1,1s-1-0.4-1-1V0c0-1.7,1.3-3,3-3h4c1.7,0,3,1.3,3,3v2C21,2.6,20.6,3,20,3z"/>
<path class="st0" d="M14,14c-0.6,0-1-0.4-1-1V7c0-0.6,0.4-1,1-1s1,0.4,1,1v6C15,13.6,14.6,14,14,14z"/>
<path class="st0" d="M18,14c-0.6,0-1-0.4-1-1V7c0-0.6,0.4-1,1-1s1,0.4,1,1v6C19,13.6,18.6,14,18,14z"/>
</svg>
