<?xml version="1.0" encoding="utf-8"?>
<!-- Generator: Adobe Illustrator 19.0.0, SVG Export Plug-In . SVG Version: 6.00 Build 0)  -->
<svg version="1.1" id="Layer_1" xmlns="http://www.w3.org/2000/svg" xmlns:xlink="http://www.w3.org/1999/xlink" x="0px" y="0px"
	 viewBox="4 -4 24 24" style="enable-background:new 4 -4 24 24;" xml:space="preserve">
<style type="text/css">
	.st0{fill:#008ED7;}
</style>
<path class="st0" d="M16,9c-0.2,0-0.3,0-0.4-0.1l-10-5C5.2,3.7,5,3.4,5,3s0.2-0.7,0.6-0.9l10-5c0.3-0.1,0.6-0.1,0.9,0l10,5
	C26.8,2.3,27,2.6,27,3s-0.2,0.7-0.6,0.9l-10,5C16.3,9,16.2,9,16,9z M8.2,3L16,6.9L23.8,3L16-0.9L8.2,3z"/>
<path class="st0" d="M16,19c-0.2,0-0.3,0-0.4-0.1l-10-5c-0.5-0.2-0.7-0.8-0.4-1.3c0.2-0.5,0.8-0.7,1.3-0.4l9.6,4.8l9.6-4.8
	c0.5-0.2,1.1,0,1.3,0.4c0.2,0.5,0,1.1-0.4,1.3l-10,5C16.3,19,16.2,19,16,19z"/>
<path class="st0" d="M16,14c-0.2,0-0.3,0-0.4-0.1l-10-5C5.1,8.6,4.9,8,5.1,7.6C5.4,7.1,6,6.9,6.4,7.1l9.6,4.8l9.6-4.8
	c0.5-0.2,1.1,0,1.3,0.4c0.2,0.5,0,1.1-0.4,1.3l-10,5C16.3,14,16.2,14,16,14z"/>
</svg>
