<?xml version="1.0" encoding="utf-8"?>
<!-- Generator: Adobe Illustrator 19.0.0, SVG Export Plug-In . SVG Version: 6.00 Build 0)  -->
<svg version="1.1" id="Layer_1" xmlns="http://www.w3.org/2000/svg" xmlns:xlink="http://www.w3.org/1999/xlink" x="0px" y="0px"
	 viewBox="0 0 8 12" style="enable-background:new 0 0 8 12;" xml:space="preserve">
<style type="text/css">
	.st0{fill:#58636D;}
</style>
<path id="XMLID_2_" class="st0" d="M7.4,4.5C7.3,4.5,7.1,4.5,7,4.4l-3-3l-3,3c-0.2,0.2-0.6,0.2-0.8,0C0,4.2,0,3.8,0.2,3.6l3.4-3.4
	c0.2-0.2,0.6-0.2,0.8,0l3.4,3.4C8,3.8,8,4.2,7.8,4.4C7.7,4.5,7.5,4.5,7.4,4.5z"/>
<path id="XMLID_1_" class="st0" d="M0.6,7.5c0.1,0,0.3,0.1,0.4,0.2l3,3l3-3c0.2-0.2,0.6-0.2,0.8,0C8,7.8,8,8.2,7.8,8.4l-3.4,3.4
	c-0.2,0.2-0.6,0.2-0.8,0L0.2,8.4C0,8.2,0,7.8,0.2,7.6C0.3,7.5,0.5,7.5,0.6,7.5z"/>
</svg>
