<?xml version="1.0" encoding="utf-8"?>
<!-- Generator: Adobe Illustrator 19.0.0, SVG Export Plug-In . SVG Version: 6.00 Build 0)  -->
<svg version="1.1" id="Layer_1" xmlns="http://www.w3.org/2000/svg" xmlns:xlink="http://www.w3.org/1999/xlink" x="0px" y="0px"
	 viewBox="0 0 18 18" style="enable-background:new 0 0 18 18;" xml:space="preserve">
<style type="text/css">
	.st0{fill:#20A4E8;}
</style>
<g id="XMLID_6_">
	<path id="XMLID_18_" class="st0" d="M14.3,5.5c0,0.2-0.1,0.4-0.2,0.6l-6.1,6.1c-0.2,0.2-0.4,0.2-0.6,0.2c-0.2,0-0.4-0.1-0.6-0.2
		L4,9.4C3.8,9.2,3.7,9,3.7,8.8c0-0.2,0.1-0.4,0.2-0.6c0.3-0.3,0.9-0.3,1.2,0l2.2,2.2l5.5-5.5c0.3-0.3,0.9-0.3,1.2,0
		C14.2,5,14.3,5.2,14.3,5.5z"/>
</g>
</svg>
