<?xml version="1.0" encoding="utf-8"?>
<!-- Generator: Adobe Illustrator 19.0.0, SVG Export Plug-In . SVG Version: 6.00 Build 0)  -->
<svg version="1.1" id="Layer_1" xmlns="http://www.w3.org/2000/svg" xmlns:xlink="http://www.w3.org/1999/xlink" x="0px" y="0px"
	 viewBox="4 -4 24 24" style="enable-background:new 4 -4 24 24;" xml:space="preserve">
<style type="text/css">
	.st0{fill:#DEE4E9;}
</style>
<path class="st0" d="M24,17H8c-1.7,0-3-1.3-3-3V2c0-1.7,1.3-3,3-3h16c1.7,0,3,1.3,3,3v12C27,15.7,25.7,17,24,17z M8,1
	C7.4,1,7,1.4,7,2v12c0,0.6,0.4,1,1,1h16c0.6,0,1-0.4,1-1V2c0-0.6-0.4-1-1-1H8z"/>
<path class="st0" d="M16,10c-0.2,0-0.4-0.1-0.6-0.2l-10-7C5,2.5,4.9,1.9,5.2,1.4C5.5,1,6.1,0.9,6.6,1.2L16,7.8l9.4-6.6
	c0.5-0.3,1.1-0.2,1.4,0.2c0.3,0.5,0.2,1.1-0.2,1.4l-10,7C16.4,9.9,16.2,10,16,10z"/>
</svg>
