<?xml version="1.0" encoding="utf-8"?>
<!-- Generator: Adobe Illustrator 19.0.0, SVG Export Plug-In . SVG Version: 6.00 Build 0)  -->
<svg version="1.1" id="search-label" xmlns="http://www.w3.org/2000/svg" xmlns:xlink="http://www.w3.org/1999/xlink" x="0px"
	 y="0px" viewBox="-12 89 24 24" xml:space="preserve">
<path d="M-1.5,108c-4.7,0-8.5-3.8-8.5-8.5S-6.2,91-1.5,91S7,94.8,7,99.5S3.2,108-1.5,108z M-1.5,93C-5.1,93-8,95.9-8,99.5
	s2.9,6.5,6.5,6.5S5,103.1,5,99.5S2.1,93-1.5,93z"/>
<path d="M9,111c-0.3,0-0.5-0.1-0.7-0.3l-5.2-5.2c-0.4-0.4-0.4-1,0-1.4s1-0.4,1.4,0l5.2,5.2c0.4,0.4,0.4,1,0,1.4
	C9.5,110.9,9.3,111,9,111z"/>
</svg>
