<?xml version="1.0" encoding="utf-8"?>
<!-- Generator: Adobe Illustrator 19.0.0, SVG Export Plug-In . SVG Version: 6.00 Build 0)  -->
<svg version="1.1" id="Layer_1" xmlns="http://www.w3.org/2000/svg" xmlns:xlink="http://www.w3.org/1999/xlink" x="0px" y="0px"
	 viewBox="-12 14 24 24" style="enable-background:new -12 14 24 24;" xml:space="preserve">
<style type="text/css">
	.st0{fill:#D4313D;}
</style>
<path class="st0" d="M11,31.5L2.6,17.3c-0.4-0.7-1.1-1.2-1.8-1.4c-0.8-0.2-1.6-0.1-2.3,0.4c-0.4,0.2-0.8,0.6-1,1c0,0,0,0,0,0
	L-11,31.5c-0.8,1.4-0.3,3.3,1.1,4.1c0.5,0.3,1,0.4,1.5,0.4H8.5c0.8,0,1.6-0.3,2.1-0.9c0.6-0.6,0.9-1.3,0.9-2.1
	C11.4,32.5,11.3,32,11,31.5z M-1.2,18.8c0.7-0.6,1.8-0.6,2.5,0c0.3,0.3,0.5,0.8,0.5,1.2S1.5,21,1.2,21.3c-0.3,0.3-0.8,0.5-1.2,0.5
	s-0.9-0.2-1.2-0.5C-1.5,21-1.7,20.5-1.7,20S-1.5,19.2-1.2,18.8z M1.7,31.9c0,1-0.8,1.7-1.7,1.7c-1,0-1.7-0.8-1.7-1.7V25
	c0-1,0.8-1.7,1.7-1.7c1,0,1.7,0.8,1.7,1.7V31.9z"/>
</svg>
