<?xml version="1.0" encoding="utf-8"?>
<!-- Generator: Adobe Illustrator 19.0.0, SVG Export Plug-In . SVG Version: 6.00 Build 0)  -->
<svg version="1.1" id="Layer_1" xmlns="http://www.w3.org/2000/svg" xmlns:xlink="http://www.w3.org/1999/xlink" x="0px" y="0px"
	 viewBox="4 -4 24 24" style="enable-background:new 4 -4 24 24;" xml:space="preserve">
<style type="text/css">
	.st0{fill:#44505B;}
</style>
<path class="st0" d="M23,19H9c-1.7,0-3-1.3-3-3v-3c0-0.6,0.4-1,1-1s1,0.4,1,1v3c0,0.6,0.4,1,1,1h14c0.6,0,1-0.4,1-1v-3
	c0-0.6,0.4-1,1-1s1,0.4,1,1v3C26,17.7,24.7,19,23,19z"/>
<path class="st0" d="M20,3c-0.3,0-0.5-0.1-0.7-0.3L16-0.6l-3.3,3.3c-0.4,0.4-1,0.4-1.4,0s-0.4-1,0-1.4l4-4c0.4-0.4,1-0.4,1.4,0l4,4
	c0.4,0.4,0.4,1,0,1.4C20.5,2.9,20.3,3,20,3z"/>
<path class="st0" d="M16,13c-0.6,0-1-0.4-1-1V-2c0-0.6,0.4-1,1-1c0.6,0,1,0.4,1,1v14C17,12.6,16.6,13,16,13z"/>
</svg>
