<?xml version="1.0" encoding="utf-8"?>
<!-- Generator: Adobe Illustrator 19.0.0, SVG Export Plug-In . SVG Version: 6.00 Build 0)  -->
<svg version="1.1" id="Layer_1" xmlns="http://www.w3.org/2000/svg" xmlns:xlink="http://www.w3.org/1999/xlink" x="0px" y="0px"
	 viewBox="60 81 150 40" style="enable-background:new 60 81 150 40;" xml:space="preserve">
<style type="text/css">
	.st0{fill:#F9FAFB;}
</style>
<g id="XMLID_39_">
	<path id="XMLID_40_" class="st0" d="M83.7,94.9h2.5l4.4,12.1h-2.9l-0.9-2.7H83l-0.9,2.7h-2.9L83.7,94.9z M86.4,102.3L85,98.1
		l-1.4,4.3L86.4,102.3L86.4,102.3z"/>
	<path id="XMLID_43_" class="st0" d="M92.2,106.9v-12h4.5c1,0,1.9,0.2,2.6,0.5c0.7,0.3,1.4,0.7,1.9,1.3c0.5,0.5,0.9,1.2,1.1,1.9
		c0.3,0.7,0.4,1.5,0.4,2.3c0,0.9-0.1,1.7-0.4,2.5c-0.3,0.7-0.7,1.4-1.2,1.9s-1.2,0.9-1.9,1.2s-1.6,0.4-2.5,0.4H92.2z M99.9,100.9
		c0-0.5-0.1-1-0.2-1.5c-0.1-0.5-0.3-0.8-0.6-1.1c-0.3-0.3-0.6-0.6-1-0.7c-0.4-0.2-0.8-0.3-1.3-0.3H95v7.2h1.7c0.5,0,1-0.1,1.4-0.3
		c0.4-0.2,0.7-0.4,1-0.8c0.3-0.4,0.5-0.7,0.6-1.1C99.8,101.9,99.9,101.4,99.9,100.9z"/>
	<path id="XMLID_46_" class="st0" d="M114.4,106.9v-7.2l-2.7,5.3h-1.5l-2.6-5.3v7.2h-2.8v-12h3l3.1,6.3l3.1-6.3h3V107L114.4,106.9
		L114.4,106.9z"/>
	<path id="XMLID_48_" class="st0" d="M119.9,106.9v-12h2.8V107L119.9,106.9L119.9,106.9z"/>
	<path id="XMLID_50_" class="st0" d="M128.2,100v6.9h-2.8v-12h2.2l5.6,7.1v-7.1h2.8V107h-2.2L128.2,100z"/>
	<path id="XMLID_52_" class="st0" d="M143.1,106.9v-12h2.8v9.6h5.9v2.4H143.1z"/>
	<path id="XMLID_54_" class="st0" d="M158,107.1c-0.9,0-1.7-0.2-2.4-0.5c-0.7-0.4-1.4-0.8-1.9-1.4c-0.5-0.6-0.9-1.2-1.2-2
		c-0.3-0.7-0.4-1.5-0.4-2.3c0-0.8,0.2-1.6,0.5-2.3c0.3-0.7,0.7-1.4,1.3-1.9c0.5-0.6,1.2-1,1.9-1.3c0.7-0.3,1.5-0.5,2.4-0.5
		c0.9,0,1.7,0.2,2.4,0.5c0.7,0.4,1.4,0.8,1.9,1.4c0.5,0.6,0.9,1.2,1.2,2c0.3,0.7,0.4,1.5,0.4,2.2c0,0.8-0.2,1.6-0.5,2.3
		c-0.3,0.7-0.7,1.4-1.2,1.9c-0.5,0.6-1.2,1-1.9,1.4C159.7,106.9,158.9,107.1,158,107.1z M154.9,100.9c0,0.5,0.1,0.9,0.2,1.4
		c0.1,0.4,0.3,0.8,0.6,1.2c0.3,0.3,0.6,0.6,1,0.8c0.4,0.2,0.9,0.3,1.4,0.3s1-0.1,1.4-0.3c0.4-0.2,0.7-0.5,1-0.8s0.5-0.7,0.6-1.2
		c0.1-0.4,0.2-0.9,0.2-1.3c0-0.5-0.1-0.9-0.2-1.4c-0.1-0.4-0.3-0.8-0.6-1.2c-0.3-0.3-0.6-0.6-1-0.8c-0.4-0.2-0.8-0.3-1.4-0.3
		c-0.5,0-1,0.1-1.4,0.3c-0.4,0.2-0.7,0.5-1,0.8c-0.3,0.3-0.5,0.7-0.6,1.2C155,100,154.9,100.5,154.9,100.9z"/>
	<path id="XMLID_57_" class="st0" d="M174.4,105.8c-0.9,0.9-2,1.3-3.2,1.3c-0.8,0-1.5-0.2-2.2-0.5c-0.7-0.3-1.3-0.7-1.8-1.3
		c-0.5-0.6-0.9-1.2-1.2-2c-0.3-0.8-0.5-1.6-0.5-2.5c0-0.8,0.2-1.6,0.5-2.3c0.3-0.7,0.7-1.4,1.3-1.9c0.5-0.5,1.2-1,1.9-1.3
		c0.7-0.3,1.5-0.5,2.4-0.5c1.1,0,2.1,0.2,2.9,0.7s1.5,1.1,1.9,1.9l-2.1,1.6c-0.3-0.5-0.7-1-1.2-1.3c-0.5-0.3-1.1-0.5-1.7-0.5
		c-0.5,0-0.9,0.1-1.3,0.3s-0.7,0.4-1,0.8c-0.3,0.3-0.5,0.7-0.6,1.2c-0.1,0.4-0.2,0.9-0.2,1.4s0.1,1,0.2,1.4c0.2,0.4,0.4,0.8,0.7,1.1
		c0.3,0.3,0.6,0.6,1,0.8c0.4,0.2,0.8,0.3,1.3,0.3c1.1,0,2.1-0.5,2.9-1.5v-0.4H172v-2h4.7v6.3h-2.3
		C174.4,106.9,174.4,105.8,174.4,105.8z"/>
	<path id="XMLID_59_" class="st0" d="M184.3,107.1c-0.9,0-1.7-0.2-2.4-0.5c-0.7-0.4-1.4-0.8-1.9-1.4c-0.5-0.6-0.9-1.2-1.2-2
		c-0.3-0.7-0.4-1.5-0.4-2.3c0-0.8,0.2-1.6,0.5-2.3c0.3-0.7,0.7-1.4,1.3-1.9c0.5-0.6,1.2-1,1.9-1.3c0.7-0.3,1.5-0.5,2.4-0.5
		s1.7,0.2,2.4,0.5c0.7,0.4,1.4,0.8,1.9,1.4c0.5,0.6,0.9,1.2,1.2,2c0.3,0.7,0.4,1.5,0.4,2.2c0,0.8-0.2,1.6-0.5,2.3
		c-0.3,0.7-0.7,1.4-1.2,1.9c-0.5,0.6-1.2,1-1.9,1.4C185.9,106.9,185.1,107.1,184.3,107.1z M181.1,100.9c0,0.5,0.1,0.9,0.2,1.4
		c0.1,0.4,0.3,0.8,0.6,1.2c0.3,0.3,0.6,0.6,1,0.8c0.4,0.2,0.9,0.3,1.4,0.3s1-0.1,1.4-0.3c0.4-0.2,0.7-0.5,1-0.8s0.5-0.7,0.6-1.2
		c0.1-0.4,0.2-0.9,0.2-1.3c0-0.5-0.1-0.9-0.2-1.4c-0.1-0.4-0.3-0.8-0.6-1.2c-0.3-0.3-0.6-0.6-1-0.8c-0.4-0.2-0.8-0.3-1.4-0.3
		c-0.5,0-1,0.1-1.4,0.3c-0.4,0.2-0.7,0.5-1,0.8c-0.3,0.3-0.5,0.7-0.6,1.2C181.2,100,181.1,100.5,181.1,100.9z"/>
</g>
</svg>
