<?xml version="1.0" encoding="UTF-8" standalone="no"?>
<svg
   xmlns:dc="http://purl.org/dc/elements/1.1/"
   xmlns:cc="http://creativecommons.org/ns#"
   xmlns:rdf="http://www.w3.org/1999/02/22-rdf-syntax-ns#"
   xmlns:svg="http://www.w3.org/2000/svg"
   xmlns="http://www.w3.org/2000/svg"
   viewBox="0 0 120 137.33333"
   height="137.33333"
   width="120"
   xml:space="preserve"
   id="svg2"
   version="1.1"><metadata
     id="metadata8"><rdf:RDF><cc:Work
         rdf:about=""><dc:format>image/svg+xml</dc:format><dc:type
           rdf:resource="http://purl.org/dc/dcmitype/StillImage" /></cc:Work></rdf:RDF></metadata><defs
     id="defs6" /><g
     transform="matrix(1.3333333,0,0,-1.3333333,0,137.33333)"
     id="g10"><g
       transform="scale(0.1)"
       id="g12"><path
         id="path14"
         style="fill:#ed1c24;fill-opacity:1;fill-rule:evenodd;stroke:none"
         d="M 497.316,1016.38 290.719,763.871 476.164,741.398 C 389.168,703.023 373.094,628.801 398.77,585.828 L 305.563,642.426 471.23,288.68 c 0,0 -168.312,63.105 -201.019,74.527 L 199.594,642.027 66.8008,470.855 29.668,619.82 c 56.5898,77.422 194.898,254.903 220.906,295.903 8.289,17.406 -33.98,26.05 -48.41,31.086 74.324,64.591 250.981,77.851 295.152,69.571" /><path
         id="path16"
         style="fill:#231f20;fill-opacity:1;fill-rule:evenodd;stroke:none"
         d="M 59.6914,413.344 C 339.168,361.387 669.711,229.887 806.988,152.781 c 11.434,16.055 20.129,31.977 26.582,48.032 11.004,91.757 -67.168,117.304 -80.351,186.046 -104.742,28.832 -299.106,88.098 -358.176,175.364 -23.328,34.461 -30.523,80.965 -13.52,119.601 16.223,36.801 54.372,58.914 93.633,61.571 29.11,1.984 47.426,-3.957 69.133,-10.981 116.359,-37.766 184.473,-53.773 306.359,-54.019 -59.3,250.593 -237.437,316.773 -385.152,323.945 -89.523,0.4 -187.933,-26.727 -251.129,-46.336 19.317,2.211 45.942,-16.125 35.938,-41.289 L 146.52,881.742 c 4.894,-18.39 8.043,-26.121 -1.891,-42.09 C 98.0391,793.684 57.5547,710.703 50.9023,646.145 47.4453,612.621 58.3477,603.953 75.1406,588.207 98.6484,552.141 70.0508,480.523 59.6914,413.344 Z M 898.598,654.563 c -138.637,-6.575 -230.516,10.972 -362.059,53.734 -19.168,6.199 -35.344,11.445 -59.695,9.793 -30.856,-2.094 -59.27,-17.371 -72.094,-46.492 -13.426,-30.512 -7.137,-68.055 11.234,-95.176 C 482.711,477.91 767.5,406.219 885.91,379.219 885.449,257.563 855.988,178.957 785.715,99.1758 526.738,283.133 228.629,347.445 40.1328,401.973 c 0,181.558 -29.914,174.73 -37.64452,209.851 C -11.6055,675.879 51.0313,796.219 92.0234,850.961 106.277,870 103.863,891.574 93.1602,913.898 388.098,1089.06 806.484,1103.95 898.598,654.563" /><path
         id="path18"
         style="fill:#231f20;fill-opacity:1;fill-rule:evenodd;stroke:none"
         d="m 867.582,397.664 c 15.484,76.031 21.496,166.715 0.973,242.195 -76.071,-4.629 -152.231,5.973 -225.778,25.141 -28.152,7.336 -55.8,15.93 -83.464,24.891 -16.907,5.472 -36.028,12.441 -53.375,15.882 -29.778,5.907 -61.477,1.754 -80.79,-23.949 -21.335,-28.386 -17.601,-69.121 -0.746,-98.664 51.996,-91.101 336.274,-163.988 443.18,-185.496" /><path
         id="path20"
         style="fill:#ffffff;fill-opacity:1;fill-rule:evenodd;stroke:none"
         d="m 792.883,619.363 18.832,-3.437 c 9.277,-61.168 13.019,-136.731 7.742,-201.434 l -17.547,5.664 c 2.75,71.867 1.528,127.844 -9.027,199.207 z m -85.469,18.453 52.387,-9.324 c 13.211,-20.156 17.265,-169.781 8.715,-196.109 -8.09,2.777 -44.664,11.902 -49.125,15.5 5.093,69.82 7.527,128 -11.977,189.933" /><path
         id="path22"
         style="fill:#ed1c24;fill-opacity:1;fill-rule:evenodd;stroke:none"
         d="m 38.7266,174.035 1.539,84.863 C 244.352,215.973 497.234,126.785 691.281,11.0273 L 687.293,5.93359 C 473.043,118.227 184.867,212.082 38.7266,174.035" /><path
         id="path24"
         style="fill:#231f20;fill-opacity:1;fill-rule:evenodd;stroke:none"
         d="m 83.6719,285.398 c 2.7851,6.891 6.7695,17.047 11.5547,28.168 3.7617,8.754 10.0784,25.719 15.2934,24.364 4.566,-1.188 9.144,-2.367 13.71,-3.555 -7.605,-18.086 -15.589,-35.539 -23.308,-53.445 z M 127.27,274.094 c -5.766,6.484 -9.661,13.152 -15.481,19.597 3.649,7.836 7.156,15.891 10.52,24.184 9.746,3.199 19.265,6.766 29.343,9.391 8.555,-2.219 17.114,-4.438 25.661,-6.653 -16.739,-6.179 -34.075,-11.328 -51.129,-16.965 8.453,-12.636 18.64,-24.265 27.828,-36.488 l -26.742,6.934" /><path
         id="path26"
         style="fill:#231f20;fill-opacity:1;fill-rule:evenodd;stroke:none"
         d="m 526.258,129.535 c 5.195,9.199 10.297,18.61 15.469,27.86 0.793,-0.942 16.043,-32.481 16.984,-34.532 1.437,-3.125 2.867,-6.113 6.258,-7.422 1.375,-0.531 2.761,-1.015 4.148,-1.503 4.035,-1.415 6.559,1.964 8.906,4.742 2.676,3.144 8.637,14.965 9.817,17.097 5.164,9.301 10.242,19.043 14.914,27.641 l -16.828,6.406 c -5.153,-9.086 -15.848,-28.605 -15.985,-28.554 -1.128,1.855 -14.316,28.761 -17.906,36.703 -0.578,1.273 -1.07,2.152 -2.055,3.156 -12.585,12.851 -20.05,-7.117 -27.695,-21.047 -5.144,-9.355 -10.285,-19.148 -13.211,-24.305 l 17.184,-6.242" /><path
         id="path28"
         style="fill:#231f20;fill-opacity:1;fill-rule:evenodd;stroke:none"
         d="m 484.227,144.813 c 14.648,-4.61 33.961,6 29.695,21.714 -2.774,10.246 -16.473,14.25 -30.418,19.321 -5.492,1.996 -15.988,5.129 -15.699,7.652 0.203,1.777 1.41,1.691 3.945,1.484 1.172,-0.285 31.758,-11.218 33.176,-11.687 4.101,-1.352 7.808,-1.703 10.594,-0.332 3.988,2.152 13.269,7.164 13.375,7.344 0,0 -35.528,12.867 -50.704,18.382 -13.105,5.375 -32.363,-0.078 -31.507,-15.785 0.347,-6.254 5.777,-10.863 13.199,-14.515 10.785,-4.25 33.078,-12 33.078,-12 6.285,-2.508 1.492,-9.868 -4.703,-7.707 l -41.215,15.129 -17.629,-9.083 54.813,-19.917" /><path
         id="path30"
         style="fill:#231f20;fill-opacity:1;fill-rule:evenodd;stroke:none"
         d="m 314.199,237.738 -49.859,18.043 c -4.836,-8.445 -9.645,-16.945 -14.262,-25.867 l 17.192,-6.25 c 0,0 6.375,12.609 6.515,12.637 l 23.625,-8.586 c 1.84,-3.82 3.711,-7.621 5.688,-11.367 1.898,-3.59 3.437,-6.364 7.156,-8.305 l 20.941,-7.613 c 0,0 -9.113,18.711 -10.511,21.742 11.523,0.594 26.925,8.215 25.336,22.883 -0.922,8.476 -8.176,14.148 -19.872,18.894 -15.613,5.676 -31.214,11.348 -46.824,17.02 -2.734,-4.067 -5.472,-8.137 -8,-12.656 l 47.906,-17.305 c 13.661,-4.328 5.809,-17.496 -5.031,-13.27" /><path
         id="path32"
         style="fill:#231f20;fill-opacity:1;fill-rule:evenodd;stroke:none"
         d="m 176.258,259.184 42.59,22.371 c 0,0 1.273,-17.95 1.882,-26.934 0.411,-0.16 -18.91,7.012 -22.222,7.102 -5.18,0.14 -13.211,-5.825 -13.211,-5.825 l 60.879,-22.128 c -1.973,14.492 -7.414,55.863 -8.781,60.007 -5.653,17.051 -25.2,4.243 -33.704,-0.39 -15.511,-8.457 -34.636,-18.871 -48.058,-26.711 l 20.625,-7.492" /><path
         id="path34"
         style="fill:#231f20;fill-opacity:1;fill-rule:evenodd;stroke:none"
         d="m 356.578,191.203 42.594,22.379 c 0,0 1.269,-17.953 1.879,-26.937 0.41,-0.161 -18.91,7.011 -22.223,7.101 -5.176,0.141 -13.207,-5.828 -13.207,-5.828 l 60.875,-22.125 c -1.973,14.492 -7.414,55.859 -8.781,60.008 -5.652,17.054 -25.199,4.242 -33.703,-0.391 -15.508,-8.457 -34.637,-18.871 -48.059,-26.711 l 20.625,-7.496" /><path
         id="path36"
         style="fill:#231f20;fill-opacity:1;fill-rule:evenodd;stroke:none"
         d="m 597.926,101.355 44.445,18.43 c 0,0 -0.359,-17.988 -0.566,-26.992 0.394,-0.1992 -18.192,8.687 -21.489,9.082 -5.144,0.609 -13.683,-4.6094 -13.683,-4.6094 l 58.625,-27.539 c -0.649,14.6093 -2.324,56.3004 -3.317,60.5544 -4.086,17.492 -24.703,6.504 -33.601,2.66 -16.207,-7.019 -36.195,-15.66 -50.27,-22.253 l 19.856,-9.333" /></g></g></svg>