<?xml version="1.0" encoding="utf-8"?>
<!-- Generator: Adobe Illustrator 19.0.0, SVG Export Plug-In . SVG Version: 6.00 Build 0)  -->
<svg version="1.1" id="Layer_1" xmlns="http://www.w3.org/2000/svg" xmlns:xlink="http://www.w3.org/1999/xlink" x="0px" y="0px"
	 viewBox="0 0 100 100" style="enable-background:new 0 0 100 100;" xml:space="preserve">
<style type="text/css">
	.st0{fill:#DC182D;}
</style>
<polygon id="XMLID_13_" class="st0" points="29.7,66.2 33.6,69.8 59.6,69.8 50,63.5 "/>
<path id="XMLID_12_" class="st0" d="M28.7,65.2l19.9-2.5c0,0-0.3-1,1.2-1.2c1.4-0.2,9.7-1.3,9.7-1.3s3.4-0.1,6.1-2.6
	c0,0,1.9-1.8,3.1-3.9L25.2,62L28.7,65.2z"/>
<path id="XMLID_11_" class="st0" d="M24.2,61.1l-3.1-2.7L76,44l-1.7,2.7c0,0-1.9,4-8.4,5.4c-6.6,1.4-23.4,4.4-23.4,4.4
	s-1.8,0-1.9,1.4L24.2,61.1z"/>
<path id="XMLID_10_" class="st0" d="M34.2,53.9l-14,3.8l-1.4-1.2c0,0-1.8-1.8,1.7-2.9l60.7-19.6c0,0-0.5,1.7-1.5,3.3
	c-1,1.7-2.3,4.3-8.5,5.9l-35.4,9.3C35.9,52.5,34.1,52.6,34.2,53.9z"/>
<path id="XMLID_9_" class="st0" d="M86,21.3L17.9,49.1c0,0-9.4,3.6-2.3,10.5l11,10.2l5.6,0.1L17.5,57c0,0-3.2-2.3,2-4.6l58.2-20.9
	C77.7,31.6,84.3,30,86,21.3z"/>
<path id="XMLID_15_" class="st0" d="M41.1,72.5c-1.3-0.8-2.9-1.2-4.9-1.2c-2.1,0-3.7,0.4-5,1.2c-1.3,0.8-1.9,1.9-1.9,3.2
	c0,1.4,0.7,2.5,2.2,3.4c1.2,0.7,2.7,1,4.6,1c1.4,0,2.6-0.2,3.7-0.6c1-0.4,1.8-0.9,2.4-1.6c0.6-0.7,0.9-1.5,0.9-2.3
	C43,74.4,42.4,73.4,41.1,72.5z M38.5,78.1c-0.6,0.5-1.3,0.7-2.3,0.7c-1,0-1.7-0.2-2.3-0.7c-0.7-0.6-1-1.3-1-2.3c0-1,0.4-1.8,1.1-2.4
	c0.6-0.5,1.3-0.7,2.3-0.7c0.6,0,1.1,0.1,1.6,0.3c0.5,0.2,0.9,0.6,1.2,1c0.3,0.5,0.4,1,0.4,1.7C39.5,76.7,39.1,77.5,38.5,78.1z
	 M22.3,72.7h0.5c0.4,0,0.7,0,0.8,0.1c0.1,0,0.2,0.1,0.3,0.2c0,0.1,0.1,0.2,0.1,0.4V75h-5v-1.5c0-0.3,0-0.4,0.1-0.5
	c0.1-0.1,0.1-0.1,0.3-0.2c0.1,0,0.4-0.1,0.7-0.1h0.6v-1.2h-6.7v1.2h0.6c0.3,0,0.6,0,0.7,0.1c0.1,0,0.2,0.1,0.3,0.2
	c0.1,0.1,0.1,0.3,0.1,0.6v4.7c0,0.2,0,0.4-0.1,0.5c-0.1,0.1-0.2,0.1-0.3,0.2c-0.2,0-0.4,0.1-0.8,0.1h-0.5v1.2h6.7v-1.2h-0.5
	c-0.4,0-0.7,0-0.8,0c-0.1,0-0.2-0.1-0.3-0.2c0-0.1-0.1-0.2-0.1-0.5v-1.6h5v1.6c0,0.3,0,0.5-0.1,0.5c-0.1,0.1-0.2,0.1-0.3,0.2
	c-0.1,0-0.4,0.1-0.8,0.1h-0.4v1.2H29v-1.2h-0.4c-0.5,0-0.8,0-0.9-0.1c-0.1,0-0.2-0.1-0.3-0.2c-0.1-0.1-0.1-0.3-0.1-0.6v-4.6
	c0-0.3,0-0.5,0.1-0.5c0-0.1,0.1-0.1,0.3-0.2c0.1,0,0.4-0.1,0.8-0.1H29v-1.2h-6.7V72.7z M86.1,78.8c-0.2-0.1-0.4-0.3-0.6-0.6
	l-4.1-6.6h-3.3l-3.6,0v1l1.2,0.1c0.5,0,0.7,0.3,0.5,0.7l-3.1,4.9c-0.1,0.2-0.2,0.3-0.3,0.4c-0.1,0.1-0.2,0.1-0.4,0.2
	c-0.2,0-0.4,0.1-0.8,0.1v1.2H77v-1.2c-0.5,0-0.8,0-0.9,0c-0.2,0-0.3-0.1-0.4-0.1c-0.1-0.1-0.1-0.1-0.1-0.2c0-0.1,0.1-0.2,0.2-0.4
	l0.5-0.9h5l0.4,0.8c0.1,0.2,0.2,0.4,0.2,0.5c0,0.1-0.1,0.2-0.2,0.2c-0.1,0.1-0.4,0.1-0.8,0.1l-0.4,0v1.2H87v-1.2
	C86.6,78.9,86.2,78.9,86.1,78.8z M77,76.2l1.8-2.7l1.7,2.7H77z M52.7,72.7h0.7c0.3,0,0.5,0,0.7,0.1c0.1,0,0.2,0.1,0.3,0.2
	c0,0.1,0.1,0.2,0.1,0.5v4.1l-4.8-6h-6.1v1.2h0.7c0.3,0,0.5,0,0.6,0.1c0.1,0,0.2,0.1,0.3,0.2c0.1,0.1,0.1,0.2,0.1,0.4v4.9
	c0,0.2,0,0.3-0.1,0.4c-0.1,0.1-0.2,0.1-0.3,0.2c-0.1,0-0.3,0.1-0.7,0.1h-0.6v1.2h5.2v-1.2H48c-0.3,0-0.5,0-0.7-0.1
	c-0.1,0-0.2-0.1-0.3-0.2c0-0.1-0.1-0.2-0.1-0.5v-4.4l5.1,6.3h4.1v-6.6c0-0.3,0-0.4,0.1-0.5c0.1-0.1,0.1-0.1,0.3-0.2
	c0.1,0,0.4-0.1,0.7-0.1h0.6v-1.2h-5.2V72.7z M72.3,75.8c0-0.9,0-1.6-0.6-2.3c-0.6-0.6-1.4-1.1-2.3-1.4c-1-0.3-2-0.5-3.7-0.5h-7v1.2
	h0.5c0.4,0,0.7,0,0.8,0.1c0.1,0,0.2,0.1,0.3,0.2c0.1,0.1,0.1,0.2,0.1,0.5v4.7c0,0.3,0,0.4-0.1,0.5c-0.1,0.1-0.2,0.2-0.3,0.2
	c-0.1,0-0.4,0.1-0.8,0.1h-0.5v1.2h6.1c0.6,0,1.3,0,2.2-0.1c0.9-0.1,1.4-0.2,1.9-0.4c0.7-0.2,1.3-0.5,1.9-0.9c0.6-0.4,1-0.8,1.3-1.3
	C72.4,76.9,72.3,76.4,72.3,75.8z M68.3,77.4c-0.4,0.5-0.9,0.8-1.5,1c-0.6,0.2-1.2,0.3-2.3,0.3c-0.4,0-0.6,0-0.7,0
	c-0.1,0-0.2-0.1-0.2-0.1c0,0,0-0.2,0-0.3v-5.3H65c1,0,1.5,0.1,2,0.3c0.5,0.2,1,0.5,1.3,1c0.4,0.5,0.3,1,0.3,1.6
	C68.6,76.4,68.6,77,68.3,77.4z"/>
</svg>
