<?xml version="1.0" encoding="utf-8"?>
<!-- Generator: Adobe Illustrator 19.0.0, SVG Export Plug-In . SVG Version: 6.00 Build 0)  -->
<svg version="1.1" id="Layer_1" xmlns="http://www.w3.org/2000/svg" xmlns:xlink="http://www.w3.org/1999/xlink" x="0px" y="0px"
	 viewBox="-42 9 24 24" style="enable-background:new -42 9 24 24;" xml:space="preserve">
<style type="text/css">
	.st0{fill:#19191F;}
</style>
<path class="st0" d="M-38,22h16c0.6,0,1-0.4,1-1s-0.4-1-1-1h-16c-0.6,0-1,0.4-1,1S-38.6,22-38,22z"/>
<path class="st0" d="M-32,28c0.3,0,0.5-0.1,0.7-0.3c0.4-0.4,0.4-1,0-1.4l-5.3-5.3l5.3-5.3c0.4-0.4,0.4-1,0-1.4s-1-0.4-1.4,0l-6,6
	c-0.4,0.4-0.4,1,0,1.4l6,6C-32.5,27.9-32.3,28-32,28z"/>
</svg>
