<?xml version="1.0" encoding="utf-8"?>
<!-- Generator: Adobe Illustrator 19.0.0, SVG Export Plug-In . SVG Version: 6.00 Build 0)  -->
<svg version="1.1" id="Layer_1" xmlns="http://www.w3.org/2000/svg" xmlns:xlink="http://www.w3.org/1999/xlink" x="0px" y="0px"
	 viewBox="-42 9 24 24" style="enable-background:new -42 9 24 24;" xml:space="preserve">
<style type="text/css">
	.st0{fill:#DB0C13;}
</style>
<path class="st0" d="M-22,31c-0.6,0-1-0.4-1-1v-2c0-1.7-1.3-3-3-3h-8c-1.7,0-3,1.3-3,3v2c0,0.6-0.4,1-1,1s-1-0.4-1-1v-2
	c0-2.8,2.2-5,5-5h8c2.8,0,5,2.2,5,5v2C-21,30.6-21.4,31-22,31z"/>
<path class="st0" d="M-30,21c-2.8,0-5-2.2-5-5s2.2-5,5-5s5,2.2,5,5S-27.2,21-30,21z M-30,13c-1.7,0-3,1.3-3,3s1.3,3,3,3s3-1.3,3-3
	S-28.3,13-30,13z"/>
</svg>
