<?xml version="1.0" encoding="utf-8"?>
<!-- Generator: Adobe Illustrator 19.0.0, SVG Export Plug-In . SVG Version: 6.00 Build 0)  -->
<svg version="1.1" id="Layer_1" xmlns="http://www.w3.org/2000/svg" xmlns:xlink="http://www.w3.org/1999/xlink" x="0px" y="0px"
	 viewBox="-42 9 24 24" style="enable-background:new -42 9 24 24;" xml:space="preserve">
<style type="text/css">
	.st0{fill:#FFFFFF;}
</style>
<path class="st0" d="M-33.7,30.7c-2.6,0-5.2-0.7-7.6-2c-0.3-0.2-0.4-0.5-0.3-0.8c0.1-0.3,0.4-0.5,0.7-0.5c1.9,0.1,3.8-0.3,5.5-1.2
	c-4-2.2-5-5.5-5.1-8c-0.1-2.9,0.9-5.2,0.9-5.3c0.1-0.2,0.3-0.4,0.6-0.4c0.3,0,0.5,0.1,0.7,0.3c1.8,2.5,4.6,4.1,7.7,4.2v-0.3
	c0-1.5,0.6-3,1.8-4c2-1.8,5.1-1.7,7,0.2c0.9-0.3,1.7-0.7,2.5-1.3c0.2-0.2,0.6-0.2,0.8,0c0.2,0.2,0.4,0.5,0.3,0.8
	c-0.3,1.4-1,2.7-2,3.7c0,0.2,0,0.4,0,0.6c0,5.4-2.4,9.9-6.5,12.3C-28.9,30-31.3,30.7-33.7,30.7z M-38.1,28.5
	c3.6,1.2,7.4,0.9,10.6-0.9c3.7-2.2,5.8-6.2,5.8-11.1c0-0.2,0-0.5-0.1-0.7c0-0.2,0-0.5,0.2-0.6c0.5-0.5,0.9-1,1.2-1.5
	c-0.5,0.2-1,0.4-1.5,0.6c-0.3,0.1-0.6,0-0.7-0.2c-1.4-1.6-3.7-1.7-5.3-0.4c-0.8,0.7-1.3,1.8-1.3,2.9v1c0,0.4-0.3,0.7-0.7,0.7
	c-3.4,0.1-6.6-1.3-8.8-3.8c-0.7,2.4-1.4,8,5,10.9c0.2,0.1,0.4,0.3,0.4,0.6c0,0.3-0.1,0.5-0.3,0.7C-35,27.5-36.5,28.2-38.1,28.5z"/>
</svg>
