<?xml version="1.0" encoding="utf-8"?>
<!-- Generator: Adobe Illustrator 19.0.0, SVG Export Plug-In . SVG Version: 6.00 Build 0)  -->
<svg version="1.1" id="Layer_1" xmlns="http://www.w3.org/2000/svg" xmlns:xlink="http://www.w3.org/1999/xlink" x="0px" y="0px"
	 viewBox="-42 9 24 24" style="enable-background:new -42 9 24 24;" xml:space="preserve">
<style type="text/css">
	.st0{fill:#FFFFFF;}
</style>
<path class="st0" d="M-25,31.7h-10c-3.2,0-5.7-2.6-5.7-5.7V16c0-3.2,2.6-5.7,5.7-5.7h10c3.2,0,5.7,2.6,5.7,5.7v10
	C-19.3,29.2-21.8,31.7-25,31.7z M-35,11.7c-2.4,0-4.3,1.9-4.3,4.3v10c0,2.4,1.9,4.3,4.3,4.3h10c2.4,0,4.3-1.9,4.3-4.3V16
	c0-2.4-1.9-4.3-4.3-4.3H-35z"/>
<path class="st0" d="M-30,25.7c-2.3,0-4.3-1.7-4.7-4c-0.4-2.6,1.4-5,4-5.4c0.5-0.1,0.9-0.1,1.4,0c2.1,0.3,3.7,1.9,4,4l0,0
	c0.2,1.2-0.1,2.5-0.9,3.5c-0.8,1-1.9,1.7-3.1,1.9C-29.5,25.7-29.7,25.7-30,25.7z M-30,17.7c-0.2,0-0.3,0-0.5,0
	c-1.8,0.3-3,1.9-2.8,3.7c0.1,0.9,0.6,1.6,1.3,2.2c0.7,0.5,1.6,0.7,2.4,0.6c0.9-0.1,1.6-0.6,2.2-1.3c0.5-0.7,0.7-1.6,0.6-2.4l0,0
	c-0.2-1.4-1.3-2.6-2.8-2.8C-29.6,17.7-29.8,17.7-30,17.7z"/>
<path class="st0" d="M-24.5,16.2c-0.2,0-0.4-0.1-0.5-0.2c-0.1-0.1-0.2-0.3-0.2-0.5s0.1-0.4,0.2-0.5c0.3-0.3,0.8-0.3,1,0
	c0.1,0.1,0.2,0.3,0.2,0.5s-0.1,0.4-0.2,0.5C-24.1,16.1-24.3,16.2-24.5,16.2z"/>
</svg>
