<?xml version="1.0" encoding="utf-8"?>
<!-- Generator: Adobe Illustrator 19.0.0, SVG Export Plug-In . SVG Version: 6.00 Build 0)  -->
<svg version="1.1" id="Layer_1" xmlns="http://www.w3.org/2000/svg" xmlns:xlink="http://www.w3.org/1999/xlink" x="0px" y="0px"
	 viewBox="-42 9 24 24" style="enable-background:new -42 9 24 24;" xml:space="preserve">
<style type="text/css">
	.st0{fill:#DB0C13;}
</style>
<path class="st0" d="M-22,30h-16c-1.7,0-3-1.3-3-3V15c0-1.7,1.3-3,3-3h16c1.7,0,3,1.3,3,3v12C-19,28.7-20.3,30-22,30z M-38,14
	c-0.6,0-1,0.4-1,1v12c0,0.6,0.4,1,1,1h16c0.6,0,1-0.4,1-1V15c0-0.6-0.4-1-1-1H-38z"/>
<path class="st0" d="M-30,23c-0.2,0-0.4-0.1-0.6-0.2l-10-7c-0.5-0.3-0.6-0.9-0.2-1.4c0.3-0.5,0.9-0.6,1.4-0.2l9.4,6.6l9.4-6.6
	c0.5-0.3,1.1-0.2,1.4,0.2c0.3,0.5,0.2,1.1-0.2,1.4l-10,7C-29.6,22.9-29.8,23-30,23z"/>
</svg>
