<?xml version="1.0" encoding="utf-8"?>
<!-- Generator: Adobe Illustrator 19.0.0, SVG Export Plug-In . SVG Version: 6.00 Build 0)  -->
<svg version="1.1" id="Capa_1" xmlns="http://www.w3.org/2000/svg" xmlns:xlink="http://www.w3.org/1999/xlink" x="0px" y="0px"
	 viewBox="239 -240.2 485.2 485.2" style="enable-background:new 239 -240.2 485.2 485.2;" xml:space="preserve">
<style type="text/css">
	.st0{fill:#01ABD0;}
</style>
<g>
	<g>
		<path class="st0" d="M710.9,167.4L599.6,56c-16.6,25.8-38.5,47.7-64.3,64.3l111.3,111.3c17.8,17.8,46.6,17.8,64.3,0
			C728.7,213.9,728.7,185.1,710.9,167.4z"/>
		<path class="st0" d="M602.9-58.3c0-100.5-81.5-182-182-182c-100.5,0-182,81.5-182,182s81.5,182,182,182
			C521.4,123.7,602.9,42.2,602.9-58.3z M421,78.2c-75.3,0-136.5-61.2-136.5-136.5S345.7-194.7,421-194.7
			c75.2,0,136.5,61.2,136.5,136.5S496.2,78.2,421,78.2z"/>
		<path class="st0" d="M314.8-58.3h30.3c0-41.8,34-75.8,75.8-75.8v-30.3C362.4-164.4,314.8-116.8,314.8-58.3z"/>
	</g>
</g>
</svg>
