<?xml version="1.0" encoding="utf-8"?>
<!-- Generator: Adobe Illustrator 19.0.0, SVG Export Plug-In . SVG Version: 6.00 Build 0)  -->
<svg version="1.1" id="Layer_1" xmlns="http://www.w3.org/2000/svg" xmlns:xlink="http://www.w3.org/1999/xlink" x="0px" y="0px"
	 viewBox="-243 245 24 24" style="enable-background:new -243 245 24 24;" xml:space="preserve">
<style type="text/css">
	.st0{fill:#232323;}
</style>
<path class="st0" d="M-223,267c-0.6,0-1-0.4-1-1v-2c0-1.7-1.3-3-3-3h-8c-1.7,0-3,1.3-3,3v2c0,0.6-0.4,1-1,1s-1-0.4-1-1v-2
	c0-2.8,2.2-5,5-5h8c2.8,0,5,2.2,5,5v2C-222,266.6-222.4,267-223,267z"/>
<path class="st0" d="M-231,257c-2.8,0-5-2.2-5-5s2.2-5,5-5s5,2.2,5,5S-228.2,257-231,257z M-231,249c-1.7,0-3,1.3-3,3s1.3,3,3,3
	s3-1.3,3-3S-229.3,249-231,249z"/>
</svg>
