<?xml version="1.0" encoding="utf-8"?>
<!-- Generator: Adobe Illustrator 23.0.4, SVG Export Plug-In . SVG Version: 6.00 Build 0)  -->
<svg version="1.1" id="Capa_1" xmlns="http://www.w3.org/2000/svg" xmlns:xlink="http://www.w3.org/1999/xlink" x="0px" y="0px"
	 viewBox="0 0 485.2 485.2" style="enable-background:new 0 0 485.2 485.2;" xml:space="preserve">
<style type="text/css">
	.st0{fill:#52B450;}
</style>
<g>
	<g>
		<path class="st0" d="M471.9,407.6L360.6,296.2c-16.6,25.8-38.5,47.7-64.3,64.3l111.3,111.3c17.8,17.8,46.6,17.8,64.3,0
			C489.7,454.1,489.7,425.3,471.9,407.6z"/>
		<path class="st0" d="M363.9,181.9c0-100.5-81.5-182-182-182s-182,81.5-182,182s81.5,182,182,182S363.9,282.4,363.9,181.9z
			 M182,318.4c-75.3,0-136.5-61.2-136.5-136.5S106.7,45.5,182,45.5c75.2,0,136.5,61.2,136.5,136.5S257.2,318.4,182,318.4z"/>
		<path class="st0" d="M75.8,181.9h30.3c0-41.8,34-75.8,75.8-75.8V75.8C123.4,75.8,75.8,123.4,75.8,181.9z"/>
	</g>
</g>
</svg>
