<?xml version="1.0" encoding="utf-8"?>
<!-- Generator: Adobe Illustrator 19.0.0, SVG Export Plug-In . SVG Version: 6.00 Build 0)  -->
<svg version="1.1" id="Layer_1" xmlns="http://www.w3.org/2000/svg" xmlns:xlink="http://www.w3.org/1999/xlink" x="0px" y="0px"
	 viewBox="0 0 172 40" style="enable-background:new 0 0 172 40;" xml:space="preserve">
<style type="text/css">
	.st0{fill:#1AFB1A;}
	.st1{fill:#FFFFFF;}
</style>
<g id="XMLID_2_">
	<path id="XMLID_3_" class="st0" d="M9.4,6.5C9.8,6.5,10,6.7,10,7L6.5,30.5h0.3l6.3-23.3c0.2-0.4,0.5-0.7,1-0.7h4.7
		c0.4,0,0.6,0.2,0.6,0.6c0,0.1,0,0.2-10.3,32c-0.1,0.4-0.5,0.7-0.9,0.7H1.1c-0.4,0-0.7-0.2-0.7-0.7L3.7,7.3c0.1-0.4,0.5-0.8,1-0.8
		H9.4z"/>
	<path id="XMLID_5_" class="st0" d="M26.7,6.5c0.4,0,0.6,0.3,0.6,0.6L20.6,39c-0.1,0.4-0.5,0.8-1,0.8h-4.7c-0.4,0-0.7-0.2-0.7-0.6
		c0,0,0-0.1,6.8-31.9c0.1-0.4,0.5-0.8,1-0.8H26.7z"/>
	<path id="XMLID_7_" class="st0" d="M45.4,0.1c0.4,0,0.6,0.3,0.6,0.6l-0.8,3.7c-0.1,0.4-0.5,0.8-1,0.8h-7.9L29.2,39
		c-0.1,0.4-0.5,0.8-1,0.8h-4.7c-0.4,0-0.7-0.2-0.7-0.6c0,0,0-0.1,7.2-34h-7.9c-0.4,0-0.6-0.3-0.6-0.8l0.8-3.5c0.1-0.4,0.5-0.8,1-0.8
		H45.4z"/>
	<path id="XMLID_9_" class="st0" d="M50.4,6.5c0.6,0,2.3,0,2.3,1.9c0,0.3,0,0.6-6.5,30.7c-0.1,0.4-0.5,0.8-1,0.8h-4.7
		c-0.4,0-0.7-0.2-0.7-0.6c0,0,0-0.1,2.3-11.1h-1.9L38,39c-0.1,0.4-0.5,0.8-1,0.8h-4.7c-0.4,0-0.7-0.2-0.7-0.6c0,0,0-0.1,6.3-30
		c0.6-2.7,2.6-2.8,3.3-2.8H50.4z M41.4,23h1.9l2.4-11.4h-1.9L41.4,23z"/>
	<path id="XMLID_12_" class="st0" d="M63.9,6.5c1.9,0,2.3,1,2.3,1.8c0,0.3,0,0.6-0.1,0.9h0.2c0.1-0.7,0.6-2.7,3.3-2.7h5.8
		c0.6,0,2.3,0,2.3,1.9c0,0.3,0,0.6-6.4,30.7c-0.1,0.4-0.5,0.8-1,0.8h-4.7c-0.4,0-0.7-0.2-0.7-0.6c0,0,0-0.1,5.9-27.6H69l-5.8,27.5
		c-0.1,0.4-0.6,0.8-1,0.8h-4.7c-0.4,0-0.6-0.2-0.6-0.6c0-0.1,0-0.1,5.9-27.7h-1.9L54.9,39c-0.1,0.4-0.5,0.8-1,0.8h-4.7
		c-0.4,0-0.7-0.2-0.7-0.6c0,0,0-0.1,6.3-30c0.6-2.8,2.7-2.8,3.4-2.8H63.9z"/>
	<path id="XMLID_14_" class="st0" d="M86.2,6.5c0.4,0,0.6,0.3,0.6,0.6L80,39c-0.1,0.4-0.5,0.8-1,0.8h-4.7c-0.4,0-0.7-0.2-0.7-0.6
		c0,0,0-0.1,6.8-31.9c0.1-0.4,0.5-0.8,1-0.8H86.2z"/>
	<path id="XMLID_16_" class="st0" d="M94.3,6.5c0.4,0,0.6,0.3,0.6,0.6l1.5,16.4l3.5-16.3c0.1-0.4,0.5-0.8,1-0.8h4.1
		c0.4,0,0.6,0.3,0.6,0.6L98.9,39c-0.1,0.4-0.5,0.8-1,0.8h-4.1c-0.4,0-0.7-0.2-0.7-0.6c0,0,0-0.1-1.7-15.3L88.2,39
		c-0.1,0.4-0.5,0.8-1,0.8h-4.2c-0.4,0-0.7-0.2-0.7-0.6c0,0,0-0.1,6.8-31.9c0.1-0.4,0.5-0.8,1-0.8H94.3z"/>
	<path id="XMLID_18_" class="st1" d="M101.9,39.8c-0.4,0-0.7-0.2-0.7-0.6c0,0,0-0.1,0.9-4.2c0.1-0.4,0.5-0.8,1-0.8h5.4l1.8-8.3h-3.5
		c-0.6,0-2.3,0-2.3-1.9c0-0.3,0-0.6,3.1-14.8c0.6-2.7,2.6-2.7,3.3-2.7h9.4c0.4,0,0.6,0.3,0.6,0.6l-0.8,3.7c-0.1,0.4-0.5,0.8-1,0.8
		h-5.8l-1.9,9h3.5c0.6,0,2.3,0,2.3,1.9c0,0.3,0,0.6-3,14.6c-0.6,2.7-2.6,2.8-3.3,2.8H101.9z"/>
	<path id="XMLID_20_" class="st1" d="M129,6.5c0.4,0,0.6,0.3,0.6,0.6l-2.9,13.5h1.9l2.9-13.3c0.1-0.4,0.5-0.8,1-0.8h4.7
		c0.4,0,0.6,0.3,0.6,0.6L131.1,39c-0.1,0.4-0.5,0.8-1,0.8h-4.7c-0.4,0-0.7-0.2-0.7-0.6c0,0,0-0.1,2.9-13.5h-1.9L122.9,39
		c-0.1,0.4-0.5,0.8-1,0.8h-4.7c-0.4,0-0.7-0.2-0.7-0.6c0,0,0-0.1,6.8-31.9c0.1-0.4,0.5-0.8,1-0.8H129z"/>
	<path id="XMLID_22_" class="st1" d="M143.1,6.5h9.1c0.6,0,2.3,0,2.3,1.9c0,0.3,0,0.6-6,28.7c-0.6,2.7-2.6,2.8-3.3,2.8H136
		c-0.6,0-2.3,0-2.3-1.9c0-0.2,0-0.6,6-28.6C140.4,6.6,142.3,6.5,143.1,6.5z M147.5,11.6h-1.9l-4.9,23.1h1.9L147.5,11.6z"/>
	<path id="XMLID_25_" class="st1" d="M163.1,31.5h-4.8l-1.6,7.5c-0.1,0.4-0.5,0.8-1,0.8H151c-0.4,0-0.7-0.2-0.7-0.6
		c0,0,0-0.1,6.8-31.9c0.1-0.4,0.5-0.8,1-0.8h10.4c0.6,0,2.3,0,2.3,1.9c0,0.3,0,0.6-4.2,20.4C165.9,31.5,163.8,31.5,163.1,31.5z
		 M159.4,26.4h1.9l3.1-14.8h-1.9L159.4,26.4z"/>
</g>
</svg>
