<?xml version="1.0" encoding="utf-8"?>
<!-- Generator: Adobe Illustrator 19.0.0, SVG Export Plug-In . SVG Version: 6.00 Build 0)  -->
<svg version="1.1" id="Layer_1" xmlns="http://www.w3.org/2000/svg" xmlns:xlink="http://www.w3.org/1999/xlink" x="0px" y="0px"
	 viewBox="4 -2 24 24" style="enable-background:new 4 -2 24 24;" xml:space="preserve">
<style type="text/css">
	.st0{fill:#1A1A1A;}
</style>
<path class="st0" d="M25,11H7c-0.6,0-1-0.4-1-1c0-0.6,0.4-1,1-1h18c0.6,0,1,0.4,1,1C26,10.6,25.6,11,25,11z"/>
<path class="st0" d="M25,5H7C6.4,5,6,4.6,6,4s0.4-1,1-1h18c0.6,0,1,0.4,1,1S25.6,5,25,5z"/>
<path class="st0" d="M25,17H7c-0.6,0-1-0.4-1-1s0.4-1,1-1h18c0.6,0,1,0.4,1,1S25.6,17,25,17z"/>
</svg>
