<?xml version="1.0" encoding="utf-8"?>
<!-- Generator: Adobe Illustrator 19.0.0, SVG Export Plug-In . SVG Version: 6.00 Build 0)  -->
<svg version="1.1" id="Layer_1" xmlns="http://www.w3.org/2000/svg" xmlns:xlink="http://www.w3.org/1999/xlink" x="0px" y="0px"
	 viewBox="0 0 15.9 20" style="enable-background:new 0 0 15.9 20;" xml:space="preserve">
<style type="text/css">
	.st0{fill:#1A1A1A;}
</style>
<g id="XMLID_2_">
	<g id="XMLID_3_">
		<path id="XMLID_4_" class="st0" d="M8,0C5.8,0,4.1,1.7,4.1,3.9V4H1.6C1.4,4,1.2,4.1,1.2,4.3L0,17.4c0,0,0,0,0,0
			C0,18.9,1.3,20,2.9,20h10.2c1.6,0,2.9-1.1,2.9-2.5c0,0,0,0,0,0L14.8,4.3c0-0.2-0.2-0.4-0.4-0.4h-2.5V3.9C11.8,1.7,10.1,0,8,0z
			 M4.9,3.9c0-1.7,1.4-3.1,3.1-3.1S11,2.2,11,3.9V4L4.9,3.9L4.9,3.9L4.9,3.9z M14,4.8l1.1,12.7c0,1-0.9,1.7-2.1,1.7H2.9
			c-1.1,0-2.1-0.8-2.1-1.7L1.9,4.8h2.2v1.9C4.1,6.8,4.3,7,4.5,7s0.4-0.2,0.4-0.4V4.8H11v1.9C11,6.8,11.2,7,11.4,7
			c0.2,0,0.4-0.2,0.4-0.4V4.8L14,4.8L14,4.8z"/>
	</g>
</g>
</svg>
