<?xml version="1.0" encoding="utf-8"?>
<!-- Generator: Adobe Illustrator 19.0.0, SVG Export Plug-In . SVG Version: 6.00 Build 0)  -->
<svg version="1.1" id="Layer_1" xmlns="http://www.w3.org/2000/svg" xmlns:xlink="http://www.w3.org/1999/xlink" x="0px" y="0px"
	 viewBox="-131 311.3 332.9 219.6" style="enable-background:new -131 311.3 332.9 219.6;" xml:space="preserve">
<style type="text/css">
	.st0{fill:#9CE9FF;}
	.st1{display:none;}
	.st2{display:inline;}
	.st3{fill:#272525;}
	.st4{fill:#1A1A1A;}
</style>
<g id="XMLID_2840_">
	<g id="XMLID_2905_">
		<g id="XMLID_2906_">
			<path id="XMLID_2907_" class="st0" d="M-75.7,458.2l0.9,2.8c-3.5-8.9-5.6-18.8-6.3-28.6c0.1,5.4,0.5,11,1.6,16.6
				c1.1,5.6,2.6,11.2,4.9,16.4c4.3,10.5,11.1,19.1,17.9,24.1c-0.2,1.3,3,6.1,6.9,10.2c1,1,1.9,2,2.8,2.9c1,0.8,1.9,1.6,2.7,2.3
				c1.6,1.3,2.7,2.2,2.9,2.1c1.9,1.1,3.8,2.2,5.7,3.4c1.9,1,3.9,2.1,5.8,3.1c-2.6-1.5-5.4-2.9-7.9-4.5c2.5,1.7,5.3,3,7.9,4.5
				c6.3,3.2,12.7,6,19.5,8.5c6.8,2.4,13.8,4.4,21.1,6c7.3,1.5,14.8,2.4,22.5,2.7c7.7,0.4,15.5-0.3,23.3-1.3c2.1-0.4,4.7-1,7.7-1.6
				c1.5-0.3,3-0.7,4.6-1.2s3.3-1,5-1.5s3.4-1.3,5.2-1.9c1.8-0.7,3.6-1.3,5.4-2.2c3.6-1.7,7.3-3.4,10.8-5.6c3.6-1.9,6.9-4.4,10.2-6.6
				c1.6-1.1,3.1-2.4,4.6-3.6c1.5-1.2,3-2.3,4.3-3.6c2.7-2.5,5.2-4.8,7.3-7.1c1.1-1.1,2-2.2,3-3.2c0.9-1,1.7-2,2.4-2.9
				c1.6-2.1,3.4-4.1,4.8-6.4c-0.6,0.9-1.1,1.6-1.5,2.2c-0.4,0.5-0.8,1-1.1,1.4c-0.7,0.9-1.4,1.7-2.8,3.4
				c6.4-9.1,10.9-18.2,13.9-27.4c-0.9,1.5-1.3,1.7-3.2,5.2l2.1-4.5c0.3-1.1,0.5-2.6,0.9-4.2s1-3.4,1.3-5.2c0.3-1.8,0.7-3.7,1-5.4
				c0.4-1.7,0.4-3.2,0.5-4.4c0.1,0.5,0.4-0.1,0.6-1.3c0.1-0.6,0.3-1.4,0.4-2.2c0.1-0.8,0.1-1.7,0.2-2.5l-0.4,1.3
				c0.6-6.3,0.3-13.1-0.3-19.7c-0.5-3.3-0.8-6.5-1.5-9.5c-0.3-1.5-0.6-3-0.9-4.5c-0.4-1.4-0.7-2.8-1-4.2c-0.4-1.5-0.5-2.7-0.5-3.4
				c-1.2-3.4-2.2-6.8-3.6-10c0.4,0.3-0.2-1.8-0.7-3.5c-0.5-1.6-0.9-2.7,0.2-0.4c-3.6-7.2-6.9-14.6-11.4-20.8
				c-7.2-11.5-16.2-22.6-27.4-31.3c-11-8.9-24.3-15.3-38-18.4c0.2,0.1,0.4,0.2,0.6,0.4c-2.4-0.5-4.8-0.8-7.1-1.1s-4.7-0.3-7.1-0.5
				c-0.6,0-1.2-0.1-1.8-0.1s-1.2,0-1.9,0c-1.2,0-2.5,0-3.8,0c-2.6-0.1-5.3,0.2-8.3,0.2c-1,0.2-2.1,0.3-3.2,0.5
				c-1.1,0.2-2.2,0.5-3.4,0.7c-2.3,0.5-4.6,0.9-6.7,1.6c-2.1,0.7-4.1,1.3-5.6,1.9c-1.6,0.6-2.8,1.3-3.5,1.8
				c-2.2,0.8-4.1,1.4-5.9,2.1c-1.7,0.7-3.2,1.5-4.7,2.2c-1.5,0.7-3,1.4-4.6,2.2c-1.6,0.9-3.3,1.8-5.4,2.9c1.2-0.3-0.7,0.9-2.4,1.9
				c-1.7,1-3.2,2-1,1.1c5.9-1.9,5.8-2.8,10.8-4.3l-0.2-0.1c11.1-4.4,22.8-7.3,34.5-8.1c11.7-0.8,23.4,0.7,34.5,4.5
				c7.5,2.3,14.9,5.9,21.7,10.6c6.8,4.7,13.1,10.3,18.6,16.5c6,6.6,11.5,14.1,16,22c4.5,7.8,8.1,15.8,10.8,23.1
				c0.6,1.7,1,3.3,1.3,4.8s0.4,3,0.7,4.5c1.8,6.8,3.2,14.8,3.5,23c0.4,8.2-0.3,16.6-2.2,24.2c0.1-0.3,0.1-0.6,0.2-0.7
				c-0.2,1-0.5,2-0.8,2.9s-0.6,1.8-0.9,2.7s-0.6,1.8-0.9,2.6c-0.4,0.8-0.8,1.7-1.1,2.5c-1.4,3.3-3.3,6.4-5.1,10
				c0.2,0.1-0.5,1.1-0.8,1.7c-0.2,0.1-0.7,0.8-1.5,2c-0.4,0.6-0.8,1.3-1.3,2.1c-0.6,0.8-1.2,1.6-1.9,2.6c-0.7,0.9-1.4,2-2.2,3
				c-0.8,1.1-1.7,2.1-2.6,3.2c-0.9,1.1-1.8,2.3-2.8,3.4s-2.1,2.2-3.2,3.3c-4.3,4.5-9.1,8.4-13.1,11.3c-4,2.8-7.1,4.6-7.7,4.9
				c-0.7,0.5-1.5,0.9-2.3,1.3c-7.9,4-16.5,6.5-24.9,8c-8.4,1.6-16.6,2-24.1,2.1c-3.2,0.5-6.9,0.4-9.7,0.8c-2.6-0.6-3.2,0-6.4-0.5
				c-7.8-2.8-12.5-3.5-8.5-1.9c-6.6-1.1-13-3.4-18.6-5.5c-2.6-1-5.2-1.8-7.8-3c-2.2-0.9-3.3-1.7-4.2-2.6c-2.7-1.4-3.6-1.9-4.6-2.5
				c-0.9-0.7-1.8-1.4-4.4-3.1c-0.3-0.3-1.2-1-2.5-1.8c-1.3-0.9-3.1-1.8-4.7-3c-1.6-1.2-3.4-2.2-4.6-3.3c-1.3-1-2.2-1.8-2.5-2.1
				l0.8,0.6c-0.7-0.6-1.3-1.2-1.9-1.8s-1.1-1.3-1.6-1.9c-1-1.2-2-2.3-2.8-3.6c-0.9-1.2-1.7-2.5-2.7-3.7c-0.9-1.3-1.8-2.6-2.8-4.1
				c-2.7-4.1-5.4-8.3-7.5-12.9c-1.2-2.2-2-4.6-3.1-6.9c-0.8-2.4-1.8-4.7-2.4-7.1c-3-9.6-4.1-19.5-3.9-28.6c-0.6-0.2,0.2,4-0.6,4.2
				c-0.1-5.4,0.4-10.8,1.3-16.2c0.9-5.4,2.3-10.6,3.8-15.8c0.7-1.8,1.7-4,2.2-4.8c1.4-3.1,0.5-2,1.4-4.3l0.6-0.1
				c1.1-3.5,2.6-4.7,4-7.8c-0.1-0.3,0.4-1.4,1-2.5c0.5,0.2,1.8-3.3,2.2-2.9v-0.1c0.4-0.6,0.6-1.1,1.1-1.8c0.2-0.3,0.6-1.3,1.3-2.6
				c0.3-0.7,0.7-1.4,1.1-2.2s0.9-1.6,1.3-2.4c1.7-3.2,3.9-6.3,4.2-6.9l0.5-0.5c1.3-1.5,1.6-2.4,0.7-1.6l1.7-1.8l-0.2,0.2l1.7-1.8
				c0.4-0.3,0.9-0.4,0.6,0.2c0.9-1.1,1.9-2.2,3-3.1c-3.1,2.4-6.8,5.4-9.8,8.2c0.9-1.5,3.2-3.4,4.4-4.8c0.8-0.7,2.2-1.7,3.6-2.8
				c1.4-1.1,2.9-2.4,4.4-3.4c0.6-0.5,0.6-1.3,2-2.2c0.9-0.2,1.5-1.2,2.9-1.8c-0.6,0.6-1.2,1.1-1.9,1.6c-0.6,0.5-1.3,1-1.9,1.5
				c0.3,0.1,1.1-0.5,2-1.2c0.9-0.6,1.9-1.4,2.5-1.7c0.4-0.5,3-2.3,4.7-3.4c-0.5,0.9,1.5-0.6,2.7-1c1.1-0.7,1.8-1.2,1.3-1.1
				c0.1-0.8-4.7,2.6-3.4,1.1c0.6-0.1,2.7-1.6,4-2.3c-0.1-0.3-1,0.3-0.3-0.4c1.4-0.7,2.7-1.9,3.7-2.1c-0.2,0.2-0.8,0.5-1.2,0.7
				c0.9-0.5-1.3,1.3-3.5,3c-2,1.9-4,3.7-2.9,2.9c-0.3,0.1,1.8-2,4.1-3.7c2.3-1.8,4.5-3.5,3.9-3.1c-1.2,0.5,0.6-0.9-0.6-0.3l-1.1,1
				c-1.6,0.8-2.5,0.7-2.1,0.2c1.3-0.7-0.3,0.8-2,2.2c-1.6,1.6-3.2,3.1-2.2,2.3l-0.9,0.5c0.8-0.7,3.1-2.5,4.3-2.8
				c-0.1-0.2,1.1-1.1,2.1-1.8l0.4-0.2c1-0.8,2.6-1.6,1.7-1.5c-3.2,1.9-2.5,0.6-1.8-0.7c0.7-1.3,1.5-2.6-1.7-0.9c3-1-0.6,1.1-3.3,2.8
				c-0.4,0-1.7,0.5-3.8,1.7c-1.7,1.1-0.9,0.8-1.1,1.2c-1,0.5-2.8,1.7-2.8,1.3c-1,1.3-2.2,1.3-3.6,2.6c-1.2,1.2,0.2,0.1-0.6,1
				c-1,0.8-2.1,1.7-3.3,2.6c-1.1,0.9-2.1,1.9-2.9,2.5c-0.8,0.3-2.9,1.5-2,0c2.8-2.6-0.5,1.6,2.3-1.2c-1.7,0.6,2.4-2.6,2.7-3.4
				c-0.6,0.3-1.4,0.8-2.2,1.5c-0.8,0.7-1.7,1.6-2.4,2.3l0.4-0.2c-0.6,0.7-1.7,1.7-2.7,2.8c-1,1.1-2,2.1-2.9,2.7
				c0.1-0.5-0.6,0,0.3-1.1l-2.6,2.2c-0.2,0.3-0.3,0.6,0.2,0.1c-0.7,1.1-1.5,2-2.3,2.6c-0.1,0-0.7,0.7-1.4,1.8
				c-0.8,1.1-1.6,2.6-2.5,4c-1.8,2.9-3.2,5.9-3.2,5.7c-1,1.6-1.6,1.8-2.3,3.5c0,0.1,0.5-0.9,1.3-2.4c0.8-1.4,1.9-3.3,3-5.2
				c2.3-3.6,4.5-6.9,3.8-5.9c-0.6,0.6-3.7,5-6.2,9.7c-1.3,2.3-2.4,4.7-3.4,6.5c-0.9,1.9-1.5,3.2-1.8,3.4c-0.6,1.3-1.3,2.8-0.9,2.6
				c-1.1,2.1-0.2-0.9-1.1,0.6c0,0.1,0.2-0.1,0,0.4l-1,1.4c-1.1,3.5-3.5,8.4-4,12.3c0.1-1.1-0.1-2.5,0.5-5l0.3-0.4
				c0-0.4,0.7-2.3,0.4-2.4c-0.5,1.1-0.9,2.1-1.3,3.2c-0.3,1.1-0.6,2.2-0.8,3.4c-0.2,0.4-0.4,0.9-0.6,1.2h0.1
				c-0.4,0.7-0.4,0.6-0.4,0.3c0,0,0-0.1,0-0.2c-0.6,0.6-1,2.9-1.6,5.6c-0.4,2.7-0.8,5.7-1.3,7.8c-0.1,1.3,0.1,0.1,0,1.7
				c-0.5,2.2-0.8,4-1.1,5.9s-0.5,3.8-0.7,6.2c0.3,1.5,0.4,1.6,0.8-0.2c-0.1,1.2-0.2,2.3-0.2,3.5c-0.9-3.2-0.8,6.6-1.7,3.1
				c-0.2,1.1-0.1,3.2,0.2,5.2c0.3,0.2,0.5,0.5,0.9,3c0.1,3.5,0,2.7,0.2,5.6c-0.2,0.7-0.5-0.3-0.7-0.2c1.1,4.4,0,4,1,8.2
				c0.6,2.6,2.3,7.7,2.7,7.6C-74.9,458.3-75.2,458.4-75.7,458.2z"/>
		</g>
	</g>
	<g id="XMLID_2880_" class="st1">
		<g id="XMLID_2901_" class="st2">
			<path id="XMLID_2902_" class="st3" d="M-108,414c0,10.5-7.7,18.8-19.3,18.8c-11.6,0-19.3-8.3-19.3-18.8s7.7-19.3,19.3-19.3
				C-115.7,394.7-108,403.6-108,414z M-120.9,414c0-14.5-0.2-18.8-6.4-18.8c-6.3,0-6.5,4.4-6.5,18.8c0,14.5,0.3,18.3,6.5,18.3
				C-121.1,432.3-120.9,428.5-120.9,414z"/>
		</g>
		<g id="XMLID_2897_" class="st2">
			<path id="XMLID_2898_" class="st3" d="M-50.6,431.9v0.5h-10.6c-3.7,0-4.9-2.4-6.2-12.2c-0.7-5.3-7-5-7-5h-2.5v11.2
				c0,5.2,0.2,5.5,2.4,5.5v0.5h-15.7v-0.5c2.3,0,2.7-0.1,2.7-5.5v-26.1c0-3.3-0.4-4.7-2.7-4.7v-0.4h15c10.5,0,20,1.3,20,10.1
				c0,7.9-7.3,9.6-12.4,9.6c6.1,0,9.1,1.3,11.7,10.8C-54.8,429.6-52,431.8-50.6,431.9z M-67.6,405.3c0-10.1-1.4-9.6-7.5-9.6h-1.6
				v19.1h1.6C-68.3,414.7-67.6,414.8-67.6,405.3z"/>
		</g>
		<g id="XMLID_2894_" class="st2">
			<path id="XMLID_2895_" class="st3" d="M3.4,418.5v0.5c-3.6,0-3.4,0.3-3.4,10.9c-2.6,1.8-7.9,3-13.5,3c-11.4,0-20.3-7.9-20.3-19.1
				c0-11.2,8.9-19.1,20.3-19.1c7.2,0,10.1,0.8,13.4,3l-1,10.4h-0.4c0-12.2-8.5-12.9-11.9-12.9c-6,0-7.3,4.1-7.3,18.6
				s1.4,18.6,7.3,18.6c4.1,0,5.7-2,5.7-7.1c0-5.8-0.8-6.3-3.7-6.3v-0.5H3.4z"/>
		</g>
		<g id="XMLID_2890_" class="st2">
			<path id="XMLID_2891_" class="st3" d="M39.8,395.2h0.3c13.4,30.6,14.3,32.4,14.3,32.4c1.9,4.2,3.7,4.3,4.8,4.4v0.4H40.7V432
				c4.2,0,1.1-6.2,1.1-6.2l-1.7-3.6H29.8c-1.1,2.4-0.1,9.8,6.2,9.8v0.4H20.8V432c1.6-0.1,4.4-0.5,8.5-9.8L39.8,395.2z M34.4,409.7
				l-4.7,11.9h10L34.4,409.7z"/>
		</g>
		<g id="XMLID_2887_" class="st2">
			<path id="XMLID_2888_" class="st3" d="M104.3,432.3l-19.9-28.4v16.5c0,4.2,0.3,11.4,8,11.4v0.5H75.6v-0.5c7.3,0,8.3-7.2,8.3-11.4
				v-17l-2.5-3.5c-3.2-4.2-5.2-4.1-6.6-4.2v-0.4h16.8l17.9,25.9V407c0-4.9-1.7-11.4-7.5-11.4v-0.4h16v0.4c-6.5,0-8,6.5-8,11.4v25.3
				H104.3z"/>
		</g>
		<g id="XMLID_2884_" class="st2">
			<path id="XMLID_2885_" class="st3" d="M153.1,395.2v0.4c-2.2,0-3.4,0.1-3.4,4.7v26.1c0,5,1.2,5.5,3.4,5.5v0.5h-17.4v-0.5
				c2.2,0,3.4-0.5,3.4-5.5v-26.1c0-4.6-1.2-4.7-3.4-4.7v-0.4H153.1z"/>
		</g>
		<g id="XMLID_2881_" class="st2">
			<path id="XMLID_2882_" class="st3" d="M204.9,419.7l0.5,10.7c-1.4,1-6.8,2.5-12.4,2.5c-11.3,0-21.3-7.1-21.3-19.1
				c0-11.9,10-19.1,21.3-19.1c6.8,0,11.1,1.4,12.4,2.4l-0.5,10.7h-0.4c-1.6-10.9-7.6-12.6-11.4-12.6c-5.9,0-8.3,4.1-8.3,18.6
				s2.6,18.6,8.3,18.6c3.6,0,9.6-2.2,11.4-12.7H204.9z"/>
		</g>
	</g>
</g>
<g id="XMLID_3_">
	<path id="XMLID_4_" class="st4" d="M-100.5,403.7c0,0.5-0.2,0.8-0.6,0.8s-0.6-0.3-0.6-0.8c-0.1-1.2-0.4-2.3-0.8-3.5
		c-0.5-1.2-1.1-2.2-2-3.2c-0.9-0.9-2-1.7-3.2-2.3c-1.3-0.6-2.7-0.9-4.4-0.9h-5v18.7h3.9c1.6,0,2.9-0.5,3.8-1.6
		c0.9-1.1,1.4-2.6,1.6-4.7c0-0.8,0.3-1.1,0.6-1.1c0.4,0,0.6,0.4,0.6,1.1v13.7c0,0.8-0.2,1.1-0.6,1.1c-0.4,0-0.6-0.4-0.6-1.1
		c-0.2-2.1-0.8-3.7-1.6-4.8c-0.9-1-2.1-1.6-3.8-1.6h-3.9v20.7h3.5v1H-131v-1h3.5v-40.4h-3.5v-1h28c0.6,0,1.1,0.1,1.5,0.4
		c0.3,0.3,0.5,0.7,0.6,1.4L-100.5,403.7z"/>
	<path id="XMLID_6_" class="st4" d="M-67.8,392.5l14.2,41.8h3.5v1h-17.4v-1h3.5l-4.1-12.1h-13l-2.7,8.4c-0.1,0.3-0.2,0.6-0.2,0.8
		c0,0.2,0,0.4,0,0.7c0,0.2,0,0.5,0.1,0.7c0.1,0.3,0.3,0.5,0.5,0.8c0.3,0.2,0.6,0.4,1.1,0.6c0.5,0.1,1.1,0.2,1.9,0.2v1h-9.7v-1
		c1.4,0,2.5-0.3,3.3-1c0.8-0.6,1.3-1.4,1.6-2.3l13-38.5h4.4V392.5z M-80.7,421.1h12.2l-6.1-18.2L-80.7,421.1z"/>
	<path id="XMLID_9_" class="st4" d="M-5.9,391.8c0.2,0,0.3,0.2,0.3,0.6V403c0,0.3,0,0.5,0,0.7c0,0.2-0.1,0.3-0.4,0.3
		s-0.5-0.3-0.6-0.9c-0.6-2-1.3-3.7-2.1-5c-0.9-1.3-1.8-2.3-2.8-3c-1-0.7-2-1.2-3.1-1.5c-1.1-0.3-2.1-0.4-3.1-0.4
		c-1.2,0-2.3,0.2-3.2,0.6c-0.9,0.4-1.7,0.9-2.3,1.5c-0.6,0.6-1.1,1.4-1.4,2.2s-0.5,1.6-0.5,2.5c0,1.5,0.3,2.8,0.9,3.9
		c0.6,1,1.5,1.8,2.9,2.2c1,0.3,2.2,0.7,3.6,1c1.4,0.3,2.5,0.6,3.5,0.7c3.8,0.7,6.7,2.3,8.7,4.6c2,2.4,2.9,5.5,2.9,9.3
		c0,1.8-0.3,3.6-0.9,5.3c-0.6,1.7-1.6,3.2-2.8,4.6c-1.2,1.3-2.8,2.4-4.7,3.2c-1.9,0.8-4.1,1.2-6.6,1.2c-1.6,0-3-0.1-4.2-0.4
		c-1.2-0.3-2.2-0.6-3.1-1.1c-0.9-0.4-1.6-0.9-2.3-1.4c-0.6-0.5-1.1-0.9-1.6-1.3l-2,3c-0.4,0.6-0.7,0.9-1,0.9c-0.2,0-0.4-0.1-0.4-0.3
		c-0.1-0.2-0.1-0.4-0.1-0.7v-12.4c0-0.4,0-0.7,0.1-0.8s0.2-0.2,0.3-0.2c0.2,0,0.4,0.3,0.6,0.9c0.4,1.5,1,3,1.7,4.5s1.6,2.9,2.6,4.1
		c1.1,1.2,2.4,2.2,3.9,3c1.5,0.8,3.4,1.1,5.5,1.1c1.6,0,3-0.3,4.2-0.8s2.1-1.2,2.9-2c0.8-0.8,1.3-1.7,1.7-2.6
		c0.4-0.9,0.5-1.8,0.5-2.7c0-1.8-0.4-3.2-1.1-4.3s-2.1-1.9-4.1-2.4c-0.4-0.1-0.9-0.3-1.7-0.4c-0.7-0.2-1.5-0.3-2.4-0.5
		c-0.9-0.2-1.8-0.4-2.7-0.6c-0.9-0.2-1.7-0.4-2.5-0.6c-3.3-0.9-5.7-2.4-7.2-4.4s-2.2-4.5-2.2-7.5c0-1.7,0.3-3.3,0.9-5
		c0.6-1.7,1.5-3.2,2.7-4.5c1.2-1.3,2.7-2.4,4.5-3.2c1.8-0.8,3.9-1.2,6.2-1.2c2.3,0,4.2,0.3,5.7,0.9s2.7,1.2,3.6,1.8l1.7-2.4
		C-6.3,392-6.1,391.8-5.9,391.8z"/>
	<path id="XMLID_11_" class="st4" d="M32.7,393.8h-3.5v18.1h12.2v-18.1H38v-1h17.3v1h-3.5v40.4h3.5v1H38v-1h3.5v-20.9H29.3v20.9h3.5
		v1H15.5v-1H19v-40.4h-3.5v-1h17.3v1H32.7z"/>
	<path id="XMLID_13_" class="st4" d="M86.8,393.8v40.4h3.5v1H73v-1h3.5v-40.4H73v-1h17.3v1H86.8z"/>
	<path id="XMLID_15_" class="st4" d="M109.3,406c0.9-2.6,2.2-5,3.9-7c1.7-2.1,3.9-3.7,6.5-5c2.6-1.3,5.6-1.9,9-1.9
		c3.4,0,6.4,0.6,9,1.9c2.6,1.3,4.7,2.9,6.5,5c1.7,2.1,3.1,4.4,3.9,7c0.9,2.6,1.3,5.3,1.3,8c0,2.8-0.4,5.5-1.3,8.1s-2.2,5-3.9,7
		c-1.7,2.1-3.9,3.7-6.5,5c-2.6,1.3-5.6,1.9-9,1.9s-6.4-0.6-9-1.9c-2.6-1.3-4.7-2.9-6.5-5c-1.7-2.1-3.1-4.4-3.9-7
		c-0.9-2.6-1.3-5.3-1.3-8.1C108,411.3,108.5,408.6,109.3,406z M124.4,394.2c-1.1,0.7-1.9,1.7-2.5,3.1c-0.6,1.4-1,3.2-1.2,5.5
		c-0.2,2.2-0.3,4.9-0.3,8v6.3c0,3.5,0.1,6.4,0.3,8.6c0.2,2.3,0.6,4.1,1.2,5.4c0.6,1.3,1.4,2.3,2.5,2.8s2.5,0.8,4.3,0.8
		s3.3-0.3,4.4-0.8s1.9-1.5,2.5-2.8c0.6-1.3,1-3.2,1.2-5.4c0.2-2.3,0.3-5.2,0.3-8.6v-6.3c0-3.1-0.1-5.8-0.3-8c-0.2-2.2-0.6-4-1.2-5.5
		c-0.6-1.4-1.4-2.5-2.5-3.1c-1.1-0.7-2.5-1-4.4-1C126.9,393.2,125.5,393.5,124.4,394.2z"/>
	<path id="XMLID_18_" class="st4" d="M193.9,392.8h8.1v1c-0.9,0-1.7,0.3-2.4,0.8c-0.7,0.5-1.1,1.3-1.1,2.4v38.8h-2.2l-24.9-35V431
		c0,1.1,0.4,1.9,1.1,2.5c0.7,0.5,1.5,0.8,2.4,0.8v1h-8.1v-1c0.9,0,1.7-0.3,2.4-0.8c0.7-0.5,1.1-1.4,1.1-2.5v-31.8l-4.1-4.8v-1.6
		h12.6l18.6,26.1v-21.8c0-1.1-0.4-1.9-1.1-2.4s-1.5-0.8-2.4-0.8V392.8z"/>
</g>
<g id="XMLID_20_">
	<path id="XMLID_21_" class="st4" d="M-82.5,457.9c-0.2,0.4-0.4,0.7-0.8,0.9c-0.3,0.3-0.7,0.5-1.2,0.6c-0.5,0.2-0.9,0.3-1.5,0.4
		c0.4,0,0.9,0.1,1.4,0.3c0.5,0.2,1,0.4,1.4,0.7c0.4,0.3,0.8,0.7,1,1.2c0.3,0.5,0.4,1,0.4,1.6c0,1.2-0.5,2.1-1.4,2.7
		c-0.9,0.7-2.2,1-3.8,1h-7V467h2v-13.2h-2v-0.3h7c0.6,0,1.2,0.1,1.8,0.2c0.6,0.1,1.1,0.4,1.6,0.6c0.5,0.3,0.8,0.6,1.1,1
		c0.3,0.4,0.4,0.9,0.4,1.4C-82.2,457.1-82.3,457.5-82.5,457.9z M-87,459.6c0.4,0,0.7,0,1.1-0.1c0.3-0.1,0.6-0.2,0.8-0.5
		c0.2-0.3,0.4-0.5,0.5-0.9c0.1-0.4,0.2-0.8,0.2-1.4v-0.3c0-0.5-0.1-0.9-0.2-1.3c-0.1-0.4-0.3-0.6-0.5-0.8c-0.2-0.2-0.5-0.4-0.8-0.5
		s-0.7-0.1-1.1-0.1h-2.6v5.9H-87L-87,459.6z M-87,466.9c1.1,0,1.9-0.3,2.4-0.8c0.4-0.5,0.7-1.3,0.7-2.3v-0.5c0-1.1-0.2-1.9-0.7-2.5
		s-1.2-0.9-2.3-0.9h-2.6v7H-87z"/>
	<path id="XMLID_25_" class="st4" d="M-73.8,467.1c-0.9-0.4-1.7-0.9-2.3-1.6c-0.7-0.7-1.2-1.4-1.6-2.3c-0.4-0.9-0.6-1.8-0.6-2.7
		s0.2-1.8,0.6-2.7c0.4-0.9,0.9-1.6,1.6-2.3c0.7-0.7,1.4-1.2,2.3-1.6c0.9-0.4,1.8-0.6,2.9-0.6c1,0,2,0.2,2.9,0.6
		c0.9,0.4,1.7,0.9,2.3,1.6c0.7,0.7,1.2,1.4,1.6,2.3c0.4,0.9,0.6,1.8,0.6,2.7s-0.2,1.8-0.6,2.7s-0.9,1.6-1.6,2.3
		c-0.7,0.7-1.4,1.2-2.3,1.6c-0.9,0.4-1.8,0.6-2.9,0.6C-72,467.7-72.9,467.5-73.8,467.1z M-72.9,453.9c-0.6,0.2-1,0.5-1.4,1
		s-0.7,1.1-0.9,1.8c-0.2,0.7-0.3,1.6-0.3,2.7v2.1c0,2,0.4,3.5,1.1,4.4c0.8,1,1.9,1.4,3.3,1.4c1.4,0,2.5-0.5,3.3-1.4
		c0.8-1,1.1-2.4,1.1-4.4v-2.1c0-1.1-0.1-2-0.3-2.8c-0.2-0.7-0.5-1.3-0.9-1.8c-0.4-0.5-0.8-0.8-1.4-1c-0.6-0.2-1.2-0.3-1.9-0.3
		C-71.9,453.5-72.3,453.7-72.9,453.9z"/>
	<path id="XMLID_28_" class="st4" d="M-55.3,453.8h-2v10.1c0,1.1,0.3,2,1,2.6c0.6,0.6,1.5,0.9,2.6,0.9c0.5,0,1-0.1,1.5-0.2
		c0.5-0.1,0.9-0.4,1.2-0.7c0.3-0.3,0.6-0.7,0.8-1.1c0.2-0.4,0.3-0.9,0.3-1.5v-10.1h-2v-0.3h4.5v0.3h-2v10.1c0,1.3-0.4,2.2-1.3,2.9
		c-0.8,0.6-2,1-3.5,1c-0.6,0-1.2-0.1-1.9-0.2c-0.6-0.1-1.2-0.3-1.7-0.6c-0.5-0.3-0.9-0.7-1.3-1.2c-0.3-0.5-0.5-1.1-0.5-1.8v-10.1h-2
		v-0.3h6.4L-55.3,453.8L-55.3,453.8z"/>
	<path id="XMLID_30_" class="st4" d="M-35.2,466.9v0.3h-6.4v-0.3h2v-13.2h-2c-0.7,0-1.4,0.3-1.9,1c-0.5,0.6-0.9,1.5-1.1,2.6h-0.5
		l0.4-3.6c0-0.2,0.2-0.4,0.5-0.4h11.7c0.3,0,0.5,0.1,0.5,0.4l0.4,3.6h-0.5c-0.2-1.1-0.5-2-1.1-2.6c-0.5-0.6-1.2-1-1.9-1h-2v13.2
		H-35.2z"/>
	<path id="XMLID_32_" class="st4" d="M-24.6,453.8V467h2v0.3H-29V467h2v-13.2h-2v-0.3h6.4v0.3H-24.6z"/>
	<path id="XMLID_34_" class="st4" d="M-10.6,468c0,0.8,0.1,1.4,0.3,1.9c0.2,0.5,0.5,0.9,0.9,1.1c0.4,0.3,0.8,0.5,1.2,0.5
		c0.5,0.1,0.9,0.1,1.4,0.1c0.1,0,0.2,0,0.2,0.1s-0.1,0.1-0.2,0.1c-0.9,0-1.8,0-2.6-0.1c-0.8-0.1-1.5-0.2-2-0.5
		c-0.6-0.3-1-0.7-1.4-1.2s-0.6-1.2-0.7-2.1v-0.5c-0.8-0.2-1.6-0.5-2.3-0.9c-0.7-0.5-1.3-1-1.9-1.6c-0.5-0.6-0.9-1.3-1.2-2.1
		c-0.3-0.8-0.5-1.6-0.5-2.4c0-0.9,0.2-1.8,0.6-2.7s0.9-1.6,1.6-2.3c0.7-0.7,1.4-1.2,2.3-1.6s1.8-0.6,2.9-0.6c1,0,2,0.2,2.9,0.6
		c0.9,0.4,1.7,0.9,2.3,1.6c0.7,0.7,1.2,1.4,1.6,2.3s0.6,1.8,0.6,2.7c0,0.8-0.2,1.6-0.5,2.4s-0.7,1.5-1.2,2.1s-1.1,1.2-1.9,1.6
		c-0.7,0.5-1.5,0.8-2.3,0.9v0.6H-10.6z M-13.9,453.9c-0.6,0.2-1,0.5-1.4,1s-0.7,1.1-0.9,1.8c-0.2,0.7-0.3,1.6-0.3,2.7v2.1
		c0,2,0.4,3.5,1.1,4.4c0.8,1,1.9,1.4,3.3,1.4s2.5-0.5,3.3-1.4c0.8-1,1.1-2.4,1.1-4.4v-2.1c0-1.1-0.1-2-0.3-2.8
		c-0.2-0.7-0.5-1.3-0.9-1.8s-0.8-0.8-1.4-1c-0.6-0.2-1.2-0.3-1.9-0.3C-12.7,453.6-13.4,453.7-13.9,453.9z"/>
	<path id="XMLID_37_" class="st4" d="M3.7,453.8h-2v10.1c0,1.1,0.3,2,1,2.6c0.6,0.6,1.5,0.9,2.6,0.9c0.5,0,1-0.1,1.5-0.2
		c0.5-0.2,0.9-0.4,1.2-0.7c0.3-0.3,0.6-0.7,0.8-1.1s0.3-0.9,0.3-1.5v-10.1h-2v-0.3h4.5v0.3h-2v10.1c0,1.3-0.4,2.2-1.3,2.9
		c-0.8,0.6-2,1-3.5,1c-0.6,0-1.2-0.1-1.9-0.2c-0.6-0.1-1.2-0.3-1.7-0.6c-0.5-0.3-0.9-0.7-1.3-1.2c-0.3-0.5-0.5-1.1-0.5-1.8v-10.1h-2
		v-0.3h6.4v0.2H3.7z"/>
	<path id="XMLID_39_" class="st4" d="M18.3,466.9h3.8c0.6,0,1-0.1,1.4-0.2c0.4-0.2,0.7-0.4,0.9-0.7c0.2-0.3,0.4-0.7,0.6-1.1
		c0.1-0.4,0.3-0.9,0.4-1.4c0.1-0.3,0.1-0.4,0.3-0.4c0.1,0,0.2,0.2,0.2,0.5v3.1c0,0.4-0.2,0.7-0.7,0.7H14v-0.3h2v-13.2h-2v-0.3h10.6
		c0.4,0,0.6,0.2,0.6,0.5v3.1c0,0.2-0.1,0.3-0.2,0.3c-0.1,0-0.2-0.1-0.2-0.3c0-0.3-0.1-0.6-0.2-1c-0.1-0.4-0.3-0.7-0.5-1.1
		c-0.2-0.3-0.5-0.6-0.9-0.8c-0.4-0.2-0.8-0.3-1.4-0.3h-3.6v6.1h1.9c0.3,0,0.6,0,0.8-0.1s0.4-0.2,0.5-0.4c0.1-0.2,0.2-0.4,0.3-0.6
		s0.1-0.5,0.2-0.8c0-0.2,0.1-0.3,0.2-0.3c0.1,0,0.1,0.1,0.1,0.2v4.2c0,0.2,0,0.3-0.1,0.3s-0.1-0.1-0.2-0.3c-0.1-0.3-0.1-0.6-0.2-0.8
		c-0.1-0.2-0.2-0.4-0.3-0.6c-0.1-0.2-0.3-0.3-0.5-0.4s-0.5-0.1-0.8-0.1h-1.9L18.3,466.9L18.3,466.9z"/>
	<path id="XMLID_41_" class="st4" d="M60.1,467.3h-4.7l-1.5-2c-0.1,0-0.3,0.2-0.6,0.4c-0.3,0.2-0.8,0.5-1.3,0.8
		c-0.5,0.3-1.2,0.5-1.9,0.7c-0.7,0.2-1.5,0.3-2.4,0.3c-1.2,0-2.2-0.3-2.9-0.9s-1.1-1.4-1.1-2.5c0-1,0.4-2,1.3-2.9
		c0.9-0.9,2.2-1.7,4-2.4l-1.1-1.5c-0.2-0.2-0.3-0.4-0.3-0.6s-0.1-0.5-0.1-0.7c0-0.4,0.1-0.7,0.2-1.1c0.2-0.3,0.4-0.6,0.7-0.9
		c0.3-0.3,0.7-0.5,1.2-0.6c0.5-0.2,1-0.2,1.5-0.2c0.9,0,1.6,0.2,2.1,0.5c0.6,0.4,0.9,0.9,0.9,1.6c0,0.3-0.1,0.6-0.2,0.9
		c-0.1,0.3-0.3,0.5-0.5,0.7c-0.2,0.2-0.6,0.5-0.9,0.7c-0.4,0.2-0.9,0.5-1.4,0.7l4,5.3c0.8-0.7,1.5-1.4,1.9-2.2
		c0.5-0.8,0.8-1.5,0.9-2.3h-2.1v-0.3h4.6v0.3h-2c-0.2,0.9-0.5,1.7-1,2.6c-0.5,0.8-1.1,1.6-2,2.4l2.2,2.8h2.5L60.1,467.3L60.1,467.3z
		 M46.2,463.8c0.2,0.5,0.4,0.9,0.7,1.3s0.7,0.7,1.1,1c0.4,0.3,0.9,0.4,1.5,0.4c0.3,0,0.7-0.1,1.1-0.2c0.4-0.1,0.7-0.2,1.1-0.4
		c0.3-0.2,0.7-0.3,1-0.5c0.3-0.2,0.6-0.4,0.9-0.5l-4.2-5.6c-0.6,0.2-1,0.5-1.5,0.7c-0.4,0.2-0.8,0.5-1.1,0.7
		c-0.3,0.3-0.5,0.5-0.6,0.8c-0.1,0.3-0.2,0.6-0.2,1C46,462.9,46,463.3,46.2,463.8z M52.6,455c-0.1-0.2-0.2-0.5-0.3-0.7
		c-0.2-0.2-0.3-0.4-0.6-0.5c-0.2-0.1-0.6-0.2-0.9-0.2c-0.5,0-0.9,0.1-1.3,0.3c-0.4,0.2-0.5,0.6-0.5,1c0,0.2,0,0.4,0.1,0.6
		c0,0.2,0.2,0.4,0.3,0.6l1.5,1.9c0.3-0.1,0.6-0.3,0.8-0.4c0.2-0.1,0.4-0.3,0.6-0.5c0.2-0.2,0.3-0.4,0.4-0.7c0.1-0.3,0.1-0.6,0.1-0.9
		C52.7,455.4,52.7,455.2,52.6,455z"/>
	<path id="XMLID_45_" class="st4" d="M86.2,453.1c0.1,0,0.1,0.1,0.1,0.2v3.7c0,0.1-0.1,0.2-0.2,0.2c-0.1,0-0.2-0.1-0.2-0.2
		c-0.1-0.4-0.2-0.9-0.4-1.3s-0.5-0.8-0.8-1.1c-0.3-0.3-0.7-0.6-1.2-0.8c-0.5-0.2-1.1-0.3-1.7-0.3c-0.4,0-0.9,0.1-1.3,0.2
		c-0.4,0.1-0.8,0.3-1.1,0.5c-0.3,0.2-0.6,0.5-0.8,0.8c-0.2,0.3-0.3,0.7-0.3,1.1c0,0.5,0.1,0.9,0.4,1.2c0.3,0.3,0.6,0.6,1.1,0.8
		c0.4,0.2,0.8,0.3,1.2,0.4s0.7,0.2,1,0.3s0.7,0.2,1,0.2c0.3,0.1,0.7,0.2,1,0.2c1.1,0.3,1.9,0.7,2.4,1.4c0.5,0.6,0.7,1.4,0.7,2.3
		c0,0.7-0.1,1.3-0.4,1.9c-0.3,0.6-0.7,1.1-1.1,1.5c-0.5,0.4-1,0.8-1.7,1c-0.6,0.2-1.4,0.4-2.1,0.4c-0.4,0-0.8,0-1.2-0.1
		s-0.8-0.2-1.1-0.3s-0.6-0.3-0.9-0.5c-0.3-0.2-0.5-0.3-0.7-0.5l-0.9,1.1c-0.1,0.1-0.2,0.2-0.3,0.2s-0.2-0.1-0.2-0.3v-3.7
		c0-0.2,0.1-0.3,0.2-0.3c0.1,0,0.2,0.1,0.3,0.3c0.2,0.6,0.4,1.1,0.7,1.6s0.7,0.9,1.2,1.2c0.4,0.3,0.9,0.6,1.4,0.7
		c0.5,0.2,1.1,0.3,1.6,0.3s1-0.1,1.4-0.2c0.5-0.2,0.9-0.4,1.3-0.6c0.4-0.3,0.7-0.6,0.9-1s0.3-0.9,0.3-1.3c0-0.4-0.1-0.8-0.3-1.2
		s-0.6-0.7-1.1-0.9c-0.4-0.2-0.8-0.3-1.1-0.4c-0.3-0.1-0.6-0.2-1-0.3c-0.3-0.1-0.7-0.2-1-0.3c-0.4-0.1-0.8-0.2-1.3-0.4
		c-1.1-0.3-1.9-0.8-2.4-1.4c-0.5-0.6-0.8-1.3-0.8-2c0-0.5,0.1-1,0.3-1.5s0.5-0.9,1-1.3c0.4-0.4,0.9-0.7,1.6-0.9
		c0.6-0.2,1.3-0.3,2.1-0.3c0.4,0,0.7,0,1,0.1c0.3,0,0.6,0.1,0.8,0.2c0.3,0.1,0.5,0.2,0.8,0.3s0.5,0.2,0.8,0.4l0.7-0.8
		C86,453.2,86.1,453.1,86.2,453.1z"/>
	<path id="XMLID_47_" class="st4" d="M99.9,466.9v0.3h-6.4v-0.3h2v-13.2h-2c-0.7,0-1.4,0.3-1.9,1c-0.5,0.6-0.9,1.5-1.1,2.6H90
		l0.4-3.6c0-0.2,0.2-0.4,0.5-0.4h11.7c0.3,0,0.5,0.1,0.5,0.4l0.4,3.6H103c-0.2-1.1-0.5-2-1.1-2.6c-0.5-0.6-1.2-1-1.9-1h-2v13.2H99.9
		z"/>
	<path id="XMLID_49_" class="st4" d="M110.6,467.1c-0.9-0.4-1.7-0.9-2.3-1.6c-0.7-0.7-1.2-1.4-1.6-2.3c-0.4-0.9-0.6-1.8-0.6-2.7
		s0.2-1.8,0.6-2.7c0.4-0.9,0.9-1.6,1.6-2.3c0.7-0.7,1.4-1.2,2.3-1.6c0.9-0.4,1.8-0.6,2.9-0.6c1,0,2,0.2,2.9,0.6s1.7,0.9,2.3,1.6
		s1.2,1.4,1.6,2.3c0.4,0.9,0.6,1.8,0.6,2.7s-0.2,1.8-0.6,2.7c-0.4,0.9-0.9,1.6-1.6,2.3c-0.7,0.7-1.4,1.2-2.3,1.6
		c-0.9,0.4-1.8,0.6-2.9,0.6C112.5,467.7,111.5,467.5,110.6,467.1z M111.6,453.9c-0.6,0.2-1,0.5-1.4,1s-0.7,1.1-0.9,1.8
		c-0.2,0.7-0.3,1.6-0.3,2.7v2.1c0,2,0.4,3.5,1.1,4.4c0.8,1,1.9,1.4,3.3,1.4s2.5-0.5,3.3-1.4c0.8-1,1.1-2.4,1.1-4.4v-2.1
		c0-1.1-0.1-2-0.3-2.8c-0.2-0.7-0.5-1.3-0.9-1.8s-0.8-0.8-1.4-1c-0.6-0.2-1.2-0.3-1.9-0.3C112.8,453.6,112.1,453.7,111.6,453.9z"/>
	<path id="XMLID_52_" class="st4" d="M136.2,466.9c0.4,0,0.8-0.1,1.1-0.3c0.1,0,0.1,0,0.1,0s0.1,0,0.1,0.1c0,0,0,0.1-0.1,0.1
		c-0.1,0.1-0.2,0.1-0.4,0.2c-0.2,0.1-0.4,0.1-0.6,0.2c-0.2,0.1-0.5,0.1-0.7,0.2c-0.3,0-0.5,0.1-0.8,0.1s-0.6,0-0.9-0.1
		s-0.5-0.2-0.7-0.4c-0.2-0.2-0.4-0.5-0.5-0.7c-0.1-0.3-0.2-0.6-0.2-0.9s-0.1-0.7-0.1-1.1c0-0.4,0-0.7-0.1-1.1
		c-0.1-0.6-0.2-1.1-0.4-1.5c-0.2-0.4-0.4-0.7-0.6-0.9c-0.2-0.2-0.5-0.4-0.8-0.4c-0.3-0.1-0.6-0.1-0.8-0.1h-2v6.7h2v0.3h-6.4V467h2
		v-13.2h-2v-0.3h6.7c0.7,0,1.3,0.1,1.9,0.2c0.6,0.2,1.1,0.4,1.6,0.7c0.4,0.3,0.8,0.6,1.1,1.1c0.3,0.4,0.4,0.9,0.4,1.4
		c0,0.9-0.3,1.6-1,2.2c-0.7,0.6-1.6,1-2.8,1.1c0.5,0.1,0.9,0.2,1.3,0.4c0.4,0.1,0.8,0.3,1.1,0.5c0.3,0.2,0.6,0.5,0.8,0.9
		c0.2,0.4,0.4,0.8,0.5,1.4c0,0.3,0.1,0.6,0.1,0.9c0,0.3,0,0.6,0,0.9c0,0.3,0,0.6,0,0.8c0,0.2,0.1,0.4,0.1,0.6
		C135.4,466.7,135.7,466.9,136.2,466.9z M130.2,459.9c1.8,0,2.7-0.9,2.7-2.7v-0.7c0-1.8-0.9-2.7-2.7-2.7h-2.3v6.1H130.2L130.2,459.9
		z"/>
	<path id="XMLID_55_" class="st4" d="M144,466.9h3.8c0.6,0,1-0.1,1.4-0.2c0.4-0.2,0.7-0.4,0.9-0.7c0.2-0.3,0.4-0.7,0.6-1.1
		c0.1-0.4,0.3-0.9,0.4-1.4c0.1-0.3,0.1-0.4,0.3-0.4c0.1,0,0.2,0.2,0.2,0.5v3.1c0,0.4-0.2,0.7-0.7,0.7h-11.2v-0.3h2v-13.2h-2v-0.3
		h10.6c0.4,0,0.6,0.2,0.6,0.5v3.1c0,0.2-0.1,0.3-0.2,0.3s-0.2-0.1-0.2-0.3c0-0.3-0.1-0.6-0.2-1s-0.3-0.7-0.5-1.1
		c-0.2-0.3-0.5-0.6-0.9-0.8c-0.4-0.2-0.8-0.3-1.4-0.3H144v6.1h1.9c0.3,0,0.6,0,0.8-0.1c0.2-0.1,0.4-0.2,0.5-0.4
		c0.1-0.2,0.2-0.4,0.3-0.6c0.1-0.2,0.1-0.5,0.2-0.8c0-0.2,0.1-0.3,0.2-0.3s0.1,0.1,0.1,0.2v4.2c0,0.2,0,0.3-0.1,0.3
		s-0.1-0.1-0.2-0.3c-0.1-0.3-0.1-0.6-0.2-0.8c-0.1-0.2-0.2-0.4-0.3-0.6c-0.1-0.2-0.3-0.3-0.5-0.4s-0.5-0.1-0.8-0.1H144V466.9z"/>
</g>
</svg>
