<?xml version="1.0" encoding="utf-8"?>
<!-- Generator: Adobe Illustrator 19.0.0, SVG Export Plug-In . SVG Version: 6.00 Build 0)  -->
<svg version="1.1" id="Layer_1" xmlns="http://www.w3.org/2000/svg" xmlns:xlink="http://www.w3.org/1999/xlink" x="0px" y="0px"
	 viewBox="0 0 332.9 219.6" style="enable-background:new 0 0 332.9 219.6;" xml:space="preserve">
<style type="text/css">
	.st0{fill:#EFC5CD;}
	.st1{display:none;}
	.st2{display:inline;}
	.st3{fill:#272525;}
	.st4{fill:#1A1A1A;}
</style>
<g id="XMLID_2840_">
	<g id="XMLID_2905_">
		<g id="XMLID_2906_">
			<path id="XMLID_2907_" class="st0" d="M55.3,146.9l0.9,2.8c-3.5-8.9-5.6-18.8-6.3-28.6c0.1,5.4,0.5,11,1.6,16.6
				c1.1,5.6,2.6,11.2,4.9,16.4c4.3,10.5,11.1,19.1,17.9,24.1c-0.2,1.3,3,6.1,6.9,10.2c1,1,1.9,2,2.8,2.9c1,0.8,1.9,1.6,2.7,2.3
				c1.6,1.3,2.7,2.2,2.9,2.1c1.9,1.1,3.8,2.2,5.7,3.4c1.9,1,3.9,2.1,5.8,3.1c-2.6-1.5-5.4-2.9-7.9-4.5c2.5,1.7,5.3,3,7.9,4.5
				c6.3,3.2,12.7,6,19.5,8.5c6.8,2.4,13.8,4.4,21.1,6c7.3,1.5,14.8,2.4,22.5,2.7c7.7,0.4,15.5-0.3,23.3-1.3c2.1-0.4,4.7-1,7.7-1.6
				c1.5-0.3,3-0.7,4.6-1.2c1.6-0.5,3.3-1,5-1.5c1.7-0.5,3.4-1.3,5.2-1.9c1.8-0.7,3.6-1.3,5.4-2.2c3.6-1.7,7.3-3.4,10.8-5.6
				c3.6-1.9,6.9-4.4,10.2-6.6c1.6-1.1,3.1-2.4,4.6-3.6c1.5-1.2,3-2.3,4.3-3.6c2.7-2.5,5.2-4.8,7.3-7.1c1.1-1.1,2-2.2,3-3.2
				c0.9-1,1.7-2,2.4-2.9c1.6-2.1,3.4-4.1,4.8-6.4c-0.6,0.9-1.1,1.6-1.5,2.2c-0.4,0.5-0.8,1-1.1,1.4c-0.7,0.9-1.4,1.7-2.8,3.4
				c6.4-9.1,10.9-18.2,13.9-27.4c-0.9,1.5-1.3,1.7-3.2,5.2l2.1-4.5c0.3-1.1,0.5-2.6,0.9-4.2c0.4-1.6,1-3.4,1.3-5.2
				c0.3-1.8,0.7-3.7,1-5.4c0.4-1.7,0.4-3.2,0.5-4.4c0.1,0.5,0.4-0.1,0.6-1.3c0.1-0.6,0.3-1.4,0.4-2.2c0.1-0.8,0.1-1.7,0.2-2.5
				l-0.4,1.3c0.6-6.3,0.3-13.1-0.3-19.7c-0.5-3.3-0.8-6.5-1.5-9.5c-0.3-1.5-0.6-3-0.9-4.5c-0.4-1.4-0.7-2.8-1-4.2
				c-0.4-1.5-0.5-2.7-0.5-3.4c-1.2-3.4-2.2-6.8-3.6-10c0.4,0.3-0.2-1.8-0.7-3.5c-0.5-1.6-0.9-2.7,0.2-0.4
				c-3.6-7.2-6.9-14.6-11.4-20.8c-7.2-11.5-16.2-22.6-27.4-31.3c-11-8.9-24.3-15.3-38-18.4c0.2,0.1,0.4,0.2,0.6,0.4
				c-2.4-0.5-4.8-0.8-7.1-1.1c-2.3-0.3-4.7-0.3-7.1-0.5c-0.6,0-1.2-0.1-1.8-0.1c-0.6,0-1.2,0-1.9,0c-1.2,0-2.5,0-3.8,0
				c-2.6-0.1-5.3,0.2-8.3,0.2c-1,0.2-2.1,0.3-3.2,0.5c-1.1,0.2-2.2,0.5-3.4,0.7c-2.3,0.5-4.6,0.9-6.7,1.6c-2.1,0.7-4.1,1.3-5.6,1.9
				c-1.6,0.6-2.8,1.3-3.5,1.8c-2.2,0.8-4.1,1.4-5.9,2.1c-1.7,0.7-3.2,1.5-4.7,2.2c-1.5,0.7-3,1.4-4.6,2.2c-1.6,0.9-3.3,1.8-5.4,2.9
				c1.2-0.3-0.7,0.9-2.4,1.9c-1.7,1-3.2,2-1,1.1c5.9-1.9,5.8-2.8,10.8-4.3l-0.2-0.1c11.1-4.4,22.8-7.3,34.5-8.1
				c11.7-0.8,23.4,0.7,34.5,4.5c7.5,2.3,14.9,5.9,21.7,10.6c6.8,4.7,13.1,10.3,18.6,16.5c6,6.6,11.5,14.1,16,22
				c4.5,7.8,8.1,15.8,10.8,23.1c0.6,1.7,1,3.3,1.3,4.8c0.3,1.5,0.4,3,0.7,4.5c1.8,6.8,3.2,14.8,3.5,23c0.4,8.2-0.3,16.6-2.2,24.2
				c0.1-0.3,0.1-0.6,0.2-0.7c-0.2,1-0.5,2-0.8,2.9c-0.3,0.9-0.6,1.8-0.9,2.7c-0.3,0.9-0.6,1.8-0.9,2.6c-0.4,0.8-0.8,1.7-1.1,2.5
				c-1.4,3.3-3.3,6.4-5.1,10c0.2,0.1-0.5,1.1-0.8,1.7c-0.2,0.1-0.7,0.8-1.5,2c-0.4,0.6-0.8,1.3-1.3,2.1c-0.6,0.8-1.2,1.6-1.9,2.6
				c-0.7,0.9-1.4,2-2.2,3c-0.8,1.1-1.7,2.1-2.6,3.2c-0.9,1.1-1.8,2.3-2.8,3.4c-1,1.1-2.1,2.2-3.2,3.3c-4.3,4.5-9.1,8.4-13.1,11.3
				c-4,2.8-7.1,4.6-7.7,4.9c-0.7,0.5-1.5,0.9-2.3,1.3c-7.9,4-16.5,6.5-24.9,8c-8.4,1.6-16.6,2-24.1,2.1c-3.2,0.5-6.9,0.4-9.7,0.8
				c-2.6-0.6-3.2,0-6.4-0.5c-7.8-2.8-12.5-3.5-8.5-1.9c-6.6-1.1-13-3.4-18.6-5.5c-2.6-1-5.2-1.8-7.8-3c-2.2-0.9-3.3-1.7-4.2-2.6
				c-2.7-1.4-3.6-1.9-4.6-2.5c-0.9-0.7-1.8-1.4-4.4-3.1c-0.3-0.3-1.2-1-2.5-1.8c-1.3-0.9-3.1-1.8-4.7-3c-1.6-1.2-3.4-2.2-4.6-3.3
				c-1.3-1-2.2-1.8-2.5-2.1l0.8,0.6c-0.7-0.6-1.3-1.2-1.9-1.8c-0.6-0.6-1.1-1.3-1.6-1.9c-1-1.2-2-2.3-2.8-3.6
				c-0.9-1.2-1.7-2.5-2.7-3.7c-0.9-1.3-1.8-2.6-2.8-4.1c-2.7-4.1-5.4-8.3-7.5-12.9c-1.2-2.2-2-4.6-3.1-6.9c-0.8-2.4-1.8-4.7-2.4-7.1
				c-3-9.6-4.1-19.5-3.9-28.6c-0.6-0.2,0.2,4-0.6,4.2c-0.1-5.4,0.4-10.8,1.3-16.2c0.9-5.4,2.3-10.6,3.8-15.8c0.7-1.8,1.7-4,2.2-4.8
				c1.4-3.1,0.5-2,1.4-4.3l0.6-0.1c1.1-3.5,2.6-4.7,4-7.8c-0.1-0.3,0.4-1.4,1-2.5c0.5,0.2,1.8-3.3,2.2-2.9l0-0.1
				c0.4-0.6,0.6-1.1,1.1-1.8c0.2-0.3,0.6-1.3,1.3-2.6c0.3-0.7,0.7-1.4,1.1-2.2c0.4-0.8,0.9-1.6,1.3-2.4c1.7-3.2,3.9-6.3,4.2-6.9
				l0.5-0.5c1.3-1.5,1.6-2.4,0.7-1.6l1.7-1.8l-0.2,0.2l1.7-1.8c0.4-0.3,0.9-0.4,0.6,0.2c0.9-1.1,1.9-2.2,3-3.1
				c-3.1,2.4-6.8,5.4-9.8,8.2c0.9-1.5,3.2-3.4,4.4-4.8c0.8-0.7,2.2-1.7,3.6-2.8c1.4-1.1,2.9-2.4,4.4-3.4c0.6-0.5,0.6-1.3,2-2.2
				c0.9-0.2,1.5-1.2,2.9-1.8c-0.6,0.6-1.2,1.1-1.9,1.6c-0.6,0.5-1.3,1-1.9,1.5c0.3,0.1,1.1-0.5,2-1.2c0.9-0.6,1.9-1.4,2.5-1.7
				c0.4-0.5,3-2.3,4.7-3.4c-0.5,0.9,1.5-0.6,2.7-1c1.1-0.7,1.8-1.2,1.3-1.1c0.1-0.8-4.7,2.6-3.4,1.1c0.6-0.1,2.7-1.6,4-2.3
				c-0.1-0.3-1,0.3-0.3-0.4c1.4-0.7,2.7-1.9,3.7-2.1c-0.2,0.2-0.8,0.5-1.2,0.7c0.9-0.5-1.3,1.3-3.5,3c-2,1.9-4,3.7-2.9,2.9
				c-0.3,0.1,1.8-2,4.1-3.7c2.3-1.8,4.5-3.5,3.9-3.1c-1.2,0.5,0.6-0.9-0.6-0.3l-1.1,1c-1.6,0.8-2.5,0.7-2.1,0.2
				c1.3-0.7-0.3,0.8-2,2.2c-1.6,1.6-3.2,3.1-2.2,2.3l-0.9,0.5c0.8-0.7,3.1-2.5,4.3-2.8c-0.1-0.2,1.1-1.1,2.1-1.8l0.4-0.2
				c1-0.8,2.6-1.6,1.7-1.5c-3.2,1.9-2.5,0.6-1.8-0.7c0.7-1.3,1.5-2.6-1.7-0.9c3-1-0.6,1.1-3.3,2.8c-0.4,0-1.7,0.5-3.8,1.7
				c-1.7,1.1-0.9,0.8-1.1,1.2c-1,0.5-2.8,1.7-2.8,1.3c-1,1.3-2.2,1.3-3.6,2.6c-1.2,1.2,0.2,0.1-0.6,1c-1,0.8-2.1,1.7-3.3,2.6
				c-1.1,0.9-2.1,1.9-2.9,2.5c-0.8,0.3-2.9,1.5-2,0c2.8-2.6-0.5,1.6,2.3-1.2c-1.7,0.6,2.4-2.6,2.7-3.4c-0.6,0.3-1.4,0.8-2.2,1.5
				c-0.8,0.7-1.7,1.6-2.4,2.3l0.4-0.2c-0.6,0.7-1.7,1.7-2.7,2.8c-1,1.1-2,2.1-2.9,2.7c0.1-0.5-0.6,0,0.3-1.1L80.2,39
				c-0.2,0.3-0.3,0.6,0.2,0.1c-0.7,1.1-1.5,2-2.3,2.6c-0.1,0-0.7,0.7-1.4,1.8c-0.8,1.1-1.6,2.6-2.5,4c-1.8,2.9-3.2,5.9-3.2,5.7
				c-1,1.6-1.6,1.8-2.3,3.5c0,0.1,0.5-0.9,1.3-2.4c0.8-1.4,1.9-3.3,3-5.2c2.3-3.6,4.5-6.9,3.8-5.9c-0.6,0.6-3.7,5-6.2,9.7
				c-1.3,2.3-2.4,4.7-3.4,6.5c-0.9,1.9-1.5,3.2-1.8,3.4c-0.6,1.3-1.3,2.8-0.9,2.6c-1.1,2.1-0.2-0.9-1.1,0.6c0,0.1,0.2-0.1,0,0.4
				l-1,1.4c-1.1,3.5-3.5,8.4-4,12.3c0.1-1.1-0.1-2.5,0.5-5l0.3-0.4c0-0.4,0.7-2.3,0.4-2.4c-0.5,1.1-0.9,2.1-1.3,3.2
				c-0.3,1.1-0.6,2.2-0.8,3.4c-0.2,0.4-0.4,0.9-0.6,1.2c0,0,0.1,0,0.1,0c-0.4,0.7-0.4,0.6-0.4,0.3c0,0,0-0.1,0-0.2
				c-0.6,0.6-1,2.9-1.6,5.6c-0.4,2.7-0.8,5.7-1.3,7.8c-0.1,1.3,0.1,0.1,0,1.7c-0.5,2.2-0.8,4-1.1,5.9c-0.3,1.9-0.5,3.8-0.7,6.2
				c0.3,1.5,0.4,1.6,0.8-0.2c-0.1,1.2-0.2,2.3-0.2,3.5c-0.9-3.2-0.8,6.6-1.7,3.1c-0.2,1.1-0.1,3.2,0.2,5.2c0.3,0.2,0.5,0.5,0.9,3
				c0.1,3.5,0,2.7,0.2,5.6c-0.2,0.7-0.5-0.3-0.7-0.2c1.1,4.4,0,4,1,8.2c0.6,2.6,2.3,7.7,2.7,7.6C56.1,147,55.8,147.1,55.3,146.9z"/>
		</g>
	</g>
	<g id="XMLID_2880_" class="st1">
		<g id="XMLID_2901_" class="st2">
			<path id="XMLID_2902_" class="st3" d="M23,102.7c0,10.5-7.7,18.8-19.3,18.8c-11.6,0-19.3-8.3-19.3-18.8
				c0-10.5,7.7-19.3,19.3-19.3C15.3,83.4,23,92.3,23,102.7z M10.1,102.7c0-14.5-0.2-18.8-6.4-18.8c-6.3,0-6.5,4.4-6.5,18.8
				c0,14.5,0.3,18.3,6.5,18.3C9.9,121,10.1,117.2,10.1,102.7z"/>
		</g>
		<g id="XMLID_2897_" class="st2">
			<path id="XMLID_2898_" class="st3" d="M80.4,120.6v0.5H69.8c-3.7,0-4.9-2.4-6.2-12.2c-0.7-5.3-7-5-7-5h-2.5v11.2
				c0,5.2,0.2,5.5,2.4,5.5v0.5H40.8v-0.5c2.3,0,2.7-0.1,2.7-5.5V89c0-3.3-0.4-4.7-2.7-4.7v-0.4h15c10.5,0,20,1.3,20,10.1
				c0,7.9-7.3,9.6-12.4,9.6c6.1,0,9.1,1.3,11.7,10.8C76.2,118.3,79,120.5,80.4,120.6z M63.4,94c0-10.1-1.4-9.6-7.5-9.6h-1.6v19.1
				h1.6C62.7,103.4,63.4,103.5,63.4,94z"/>
		</g>
		<g id="XMLID_2894_" class="st2">
			<path id="XMLID_2895_" class="st3" d="M134.4,107.2v0.5c-3.6,0-3.4,0.3-3.4,10.9c-2.6,1.8-7.9,3-13.5,3
				c-11.4,0-20.3-7.9-20.3-19.1c0-11.2,8.9-19.1,20.3-19.1c7.2,0,10.1,0.8,13.4,3l-1,10.4h-0.4c0-12.2-8.5-12.9-11.9-12.9
				c-6,0-7.3,4.1-7.3,18.6c0,14.5,1.4,18.6,7.3,18.6c4.1,0,5.7-2,5.7-7.1c0-5.8-0.8-6.3-3.7-6.3v-0.5H134.4z"/>
		</g>
		<g id="XMLID_2890_" class="st2">
			<path id="XMLID_2891_" class="st3" d="M170.8,83.9h0.3c13.4,30.6,14.3,32.4,14.3,32.4c1.9,4.2,3.7,4.3,4.8,4.4v0.4h-18.5v-0.4
				c4.2,0,1.1-6.2,1.1-6.2l-1.7-3.6h-10.3c-1.1,2.4-0.1,9.8,6.2,9.8v0.4h-15.2v-0.4c1.6-0.1,4.4-0.5,8.5-9.8L170.8,83.9z
				 M165.4,98.4l-4.7,11.9h10L165.4,98.4z"/>
		</g>
		<g id="XMLID_2887_" class="st2">
			<path id="XMLID_2888_" class="st3" d="M235.3,121l-19.9-28.4v16.5c0,4.2,0.3,11.4,8,11.4v0.5h-16.8v-0.5c7.3,0,8.3-7.2,8.3-11.4
				V92.1l-2.5-3.5c-3.2-4.2-5.2-4.1-6.6-4.2v-0.4h16.8l17.9,25.9V95.7c0-4.9-1.7-11.4-7.5-11.4v-0.4h16v0.4c-6.5,0-8,6.5-8,11.4V121
				H235.3z"/>
		</g>
		<g id="XMLID_2884_" class="st2">
			<path id="XMLID_2885_" class="st3" d="M284.1,83.9v0.4c-2.2,0-3.4,0.1-3.4,4.7v26.1c0,5,1.2,5.5,3.4,5.5v0.5h-17.4v-0.5
				c2.2,0,3.4-0.5,3.4-5.5V89c0-4.6-1.2-4.7-3.4-4.7v-0.4H284.1z"/>
		</g>
		<g id="XMLID_2881_" class="st2">
			<path id="XMLID_2882_" class="st3" d="M335.9,108.4l0.5,10.7c-1.4,1-6.8,2.5-12.4,2.5c-11.3,0-21.3-7.1-21.3-19.1
				c0-11.9,10-19.1,21.3-19.1c6.8,0,11.1,1.4,12.4,2.4l-0.5,10.7h-0.4c-1.6-10.9-7.6-12.6-11.4-12.6c-5.9,0-8.3,4.1-8.3,18.6
				c0,14.5,2.6,18.6,8.3,18.6c3.6,0,9.6-2.2,11.4-12.7H335.9z"/>
		</g>
	</g>
</g>
<g id="XMLID_3_">
	<path id="XMLID_4_" class="st4" d="M30.5,92.4c0,0.5-0.2,0.8-0.6,0.8c-0.4,0-0.6-0.3-0.6-0.8c-0.1-1.2-0.4-2.3-0.8-3.5
		c-0.5-1.2-1.1-2.2-2-3.2c-0.9-0.9-2-1.7-3.2-2.3c-1.3-0.6-2.7-0.9-4.4-0.9h-5v18.7h3.9c1.6,0,2.9-0.5,3.8-1.6
		c0.9-1.1,1.4-2.6,1.6-4.7c0-0.8,0.3-1.1,0.6-1.1c0.4,0,0.6,0.4,0.6,1.1v13.7c0,0.8-0.2,1.1-0.6,1.1c-0.4,0-0.6-0.4-0.6-1.1
		c-0.2-2.1-0.8-3.7-1.6-4.8c-0.9-1-2.1-1.6-3.8-1.6h-3.9v20.7h3.5v1H0v-1h3.5V82.5H0v-1h28c0.6,0,1.1,0.1,1.5,0.4
		c0.3,0.3,0.5,0.7,0.6,1.4L30.5,92.4z"/>
	<path id="XMLID_6_" class="st4" d="M63.2,81.2l14.2,41.8h3.5v1H63.5v-1H67l-4.1-12.1h-13l-2.7,8.4c-0.1,0.3-0.2,0.6-0.2,0.8
		c0,0.2,0,0.4,0,0.7c0,0.2,0,0.5,0.1,0.7c0.1,0.3,0.3,0.5,0.5,0.8c0.3,0.2,0.6,0.4,1.1,0.6c0.5,0.1,1.1,0.2,1.9,0.2v1h-9.7v-1
		c1.4,0,2.5-0.3,3.3-1c0.8-0.6,1.3-1.4,1.6-2.3l13-38.5H63.2z M50.3,109.8h12.2l-6.1-18.2L50.3,109.8z"/>
	<path id="XMLID_9_" class="st4" d="M125.1,80.5c0.2,0,0.3,0.2,0.3,0.6v10.6c0,0.3,0,0.5,0,0.7c0,0.2-0.1,0.3-0.4,0.3
		c-0.3,0-0.5-0.3-0.6-0.9c-0.6-2-1.3-3.7-2.1-5c-0.9-1.3-1.8-2.3-2.8-3c-1-0.7-2-1.2-3.1-1.5c-1.1-0.3-2.1-0.4-3.1-0.4
		c-1.2,0-2.3,0.2-3.2,0.6s-1.7,0.9-2.3,1.5c-0.6,0.6-1.1,1.4-1.4,2.2c-0.3,0.8-0.5,1.6-0.5,2.5c0,1.5,0.3,2.8,0.9,3.9
		c0.6,1,1.5,1.8,2.9,2.2c1,0.3,2.2,0.7,3.6,1c1.4,0.3,2.5,0.6,3.5,0.7c3.8,0.7,6.7,2.3,8.7,4.6c2,2.4,2.9,5.5,2.9,9.3
		c0,1.8-0.3,3.6-0.9,5.3c-0.6,1.7-1.6,3.2-2.8,4.6c-1.2,1.3-2.8,2.4-4.7,3.2c-1.9,0.8-4.1,1.2-6.6,1.2c-1.6,0-3-0.1-4.2-0.4
		c-1.2-0.3-2.2-0.6-3.1-1.1c-0.9-0.4-1.6-0.9-2.3-1.4c-0.6-0.5-1.1-0.9-1.6-1.3l-2,3c-0.4,0.6-0.7,0.9-1,0.9c-0.2,0-0.4-0.1-0.4-0.3
		c-0.1-0.2-0.1-0.4-0.1-0.7V111c0-0.4,0-0.7,0.1-0.8c0.1-0.1,0.2-0.2,0.3-0.2c0.2,0,0.4,0.3,0.6,0.9c0.4,1.5,1,3,1.7,4.5
		c0.7,1.5,1.6,2.9,2.6,4.1c1.1,1.2,2.4,2.2,3.9,3c1.5,0.8,3.4,1.1,5.5,1.1c1.6,0,3-0.3,4.2-0.8c1.2-0.5,2.1-1.2,2.9-2
		c0.8-0.8,1.3-1.7,1.7-2.6c0.4-0.9,0.5-1.8,0.5-2.7c0-1.8-0.4-3.2-1.1-4.3c-0.7-1.1-2.1-1.9-4.1-2.4c-0.4-0.1-0.9-0.3-1.7-0.4
		c-0.7-0.2-1.5-0.3-2.4-0.5c-0.9-0.2-1.8-0.4-2.7-0.6c-0.9-0.2-1.7-0.4-2.5-0.6c-3.3-0.9-5.7-2.4-7.2-4.4c-1.5-2-2.2-4.5-2.2-7.5
		c0-1.7,0.3-3.3,0.9-5c0.6-1.7,1.5-3.2,2.7-4.5c1.2-1.3,2.7-2.4,4.5-3.2c1.8-0.8,3.9-1.2,6.2-1.2c2.3,0,4.2,0.3,5.7,0.9
		c1.5,0.6,2.7,1.2,3.6,1.8l1.7-2.4C124.7,80.7,124.9,80.5,125.1,80.5z"/>
	<path id="XMLID_11_" class="st4" d="M163.7,82.5h-3.5v18.1h12.2V82.5H169v-1h17.3v1h-3.5v40.4h3.5v1H169v-1h3.5V102h-12.2v20.9h3.5
		v1h-17.3v-1h3.5V82.5h-3.5v-1h17.3V82.5z"/>
	<path id="XMLID_13_" class="st4" d="M217.8,82.5v40.4h3.5v1h-17.3v-1h3.5V82.5h-3.5v-1h17.3v1H217.8z"/>
	<path id="XMLID_15_" class="st4" d="M240.3,94.7c0.9-2.6,2.2-5,3.9-7c1.7-2.1,3.9-3.7,6.5-5c2.6-1.3,5.6-1.9,9-1.9
		c3.4,0,6.4,0.6,9,1.9c2.6,1.3,4.7,2.9,6.5,5c1.7,2.1,3.1,4.4,3.9,7c0.9,2.6,1.3,5.3,1.3,8c0,2.8-0.4,5.5-1.3,8.1
		c-0.9,2.6-2.2,5-3.9,7c-1.7,2.1-3.9,3.7-6.5,5c-2.6,1.3-5.6,1.9-9,1.9c-3.4,0-6.4-0.6-9-1.9c-2.6-1.3-4.7-2.9-6.5-5
		c-1.7-2.1-3.1-4.4-3.9-7c-0.9-2.6-1.3-5.3-1.3-8.1C239,100,239.5,97.3,240.3,94.7z M255.4,82.9c-1.1,0.7-1.9,1.7-2.5,3.1
		c-0.6,1.4-1,3.2-1.2,5.5c-0.2,2.2-0.3,4.9-0.3,8v6.3c0,3.5,0.1,6.4,0.3,8.6c0.2,2.3,0.6,4.1,1.2,5.4c0.6,1.3,1.4,2.3,2.5,2.8
		c1.1,0.5,2.5,0.8,4.3,0.8c1.8,0,3.3-0.3,4.4-0.8c1.1-0.5,1.9-1.5,2.5-2.8c0.6-1.3,1-3.2,1.2-5.4c0.2-2.3,0.3-5.2,0.3-8.6v-6.3
		c0-3.1-0.1-5.8-0.3-8c-0.2-2.2-0.6-4-1.2-5.5c-0.6-1.4-1.4-2.5-2.5-3.1c-1.1-0.7-2.5-1-4.4-1C257.9,81.9,256.5,82.2,255.4,82.9z"/>
	<path id="XMLID_18_" class="st4" d="M324.9,81.5h8.1v1c-0.9,0-1.7,0.3-2.4,0.8c-0.7,0.5-1.1,1.3-1.1,2.4v38.8h-2.2l-24.9-35v30.2
		c0,1.1,0.4,1.9,1.1,2.5c0.7,0.5,1.5,0.8,2.4,0.8v1h-8.1v-1c0.9,0,1.7-0.3,2.4-0.8c0.7-0.5,1.1-1.4,1.1-2.5V87.9l-4.1-4.8v-1.6h12.6
		l18.6,26.1V85.8c0-1.1-0.4-1.9-1.1-2.4c-0.7-0.5-1.5-0.8-2.4-0.8V81.5z"/>
</g>
<g id="XMLID_20_">
	<path id="XMLID_21_" class="st4" d="M48.5,146.6c-0.2,0.4-0.4,0.7-0.8,0.9c-0.3,0.3-0.7,0.5-1.2,0.6c-0.5,0.2-0.9,0.3-1.5,0.4
		c0.4,0,0.9,0.1,1.4,0.3c0.5,0.2,1,0.4,1.4,0.7s0.8,0.7,1,1.2c0.3,0.5,0.4,1,0.4,1.6c0,1.2-0.5,2.1-1.4,2.7c-0.9,0.7-2.2,1-3.8,1H37
		v-0.3h2v-13.2h-2v-0.3H44c0.6,0,1.2,0.1,1.8,0.2c0.6,0.1,1.1,0.4,1.6,0.6c0.5,0.3,0.8,0.6,1.1,1c0.3,0.4,0.4,0.9,0.4,1.4
		C48.8,145.8,48.7,146.2,48.5,146.6z M44,148.3c0.4,0,0.7,0,1.1-0.1c0.3-0.1,0.6-0.2,0.8-0.5s0.4-0.5,0.5-0.9
		c0.1-0.4,0.2-0.8,0.2-1.4v-0.3c0-0.5-0.1-0.9-0.2-1.3c-0.1-0.4-0.3-0.6-0.5-0.8c-0.2-0.2-0.5-0.4-0.8-0.5c-0.3-0.1-0.7-0.1-1.1-0.1
		h-2.6v5.9H44z M44,155.6c1.1,0,1.9-0.3,2.4-0.8c0.4-0.5,0.7-1.3,0.7-2.3V152c0-1.1-0.2-1.9-0.7-2.5c-0.5-0.6-1.2-0.9-2.3-0.9h-2.6
		v7H44z"/>
	<path id="XMLID_25_" class="st4" d="M57.2,155.8c-0.9-0.4-1.7-0.9-2.3-1.6c-0.7-0.7-1.2-1.4-1.6-2.3c-0.4-0.9-0.6-1.8-0.6-2.7
		c0-0.9,0.2-1.8,0.6-2.7c0.4-0.9,0.9-1.6,1.6-2.3c0.7-0.7,1.4-1.2,2.3-1.6c0.9-0.4,1.8-0.6,2.9-0.6c1,0,2,0.2,2.9,0.6
		c0.9,0.4,1.7,0.9,2.3,1.6c0.7,0.7,1.2,1.4,1.6,2.3c0.4,0.9,0.6,1.8,0.6,2.7c0,0.9-0.2,1.8-0.6,2.7c-0.4,0.9-0.9,1.6-1.6,2.3
		c-0.7,0.7-1.4,1.2-2.3,1.6c-0.9,0.4-1.8,0.6-2.9,0.6C59,156.4,58.1,156.2,57.2,155.8z M58.1,142.6c-0.6,0.2-1,0.5-1.4,1
		c-0.4,0.5-0.7,1.1-0.9,1.8c-0.2,0.7-0.3,1.6-0.3,2.7v2.1c0,2,0.4,3.5,1.1,4.4c0.8,1,1.9,1.4,3.3,1.4c1.4,0,2.5-0.5,3.3-1.4
		c0.8-1,1.1-2.4,1.1-4.4v-2.1c0-1.1-0.1-2-0.3-2.8c-0.2-0.7-0.5-1.3-0.9-1.8c-0.4-0.5-0.8-0.8-1.4-1c-0.6-0.2-1.2-0.3-1.9-0.3
		S58.7,142.4,58.1,142.6z"/>
	<path id="XMLID_28_" class="st4" d="M75.7,142.5h-2v10.1c0,1.1,0.3,2,1,2.6c0.6,0.6,1.5,0.9,2.6,0.9c0.5,0,1-0.1,1.5-0.2
		s0.9-0.4,1.2-0.7c0.3-0.3,0.6-0.7,0.8-1.1c0.2-0.4,0.3-0.9,0.3-1.5v-10.1h-2v-0.3h4.5v0.3h-2v10.1c0,1.3-0.4,2.2-1.3,2.9
		c-0.8,0.6-2,1-3.5,1c-0.6,0-1.2-0.1-1.9-0.2c-0.6-0.1-1.2-0.3-1.7-0.6c-0.5-0.3-0.9-0.7-1.3-1.2c-0.3-0.5-0.5-1.1-0.5-1.8v-10.1h-2
		v-0.3h6.4V142.5z"/>
	<path id="XMLID_30_" class="st4" d="M95.8,155.6v0.3h-6.4v-0.3h2v-13.2h-2c-0.7,0-1.4,0.3-1.9,1c-0.5,0.6-0.9,1.5-1.1,2.6h-0.5
		l0.4-3.6c0-0.2,0.2-0.4,0.5-0.4h11.7c0.3,0,0.5,0.1,0.5,0.4l0.4,3.6h-0.5c-0.2-1.1-0.5-2-1.1-2.6c-0.5-0.6-1.2-1-1.9-1h-2v13.2
		H95.8z"/>
	<path id="XMLID_32_" class="st4" d="M106.4,142.5v13.2h2v0.3h-6.4v-0.3h2v-13.2h-2v-0.3h6.4v0.3H106.4z"/>
	<path id="XMLID_34_" class="st4" d="M120.4,156.7c0,0.8,0.1,1.4,0.3,1.9c0.2,0.5,0.5,0.9,0.9,1.1c0.4,0.3,0.8,0.5,1.2,0.5
		c0.5,0.1,0.9,0.1,1.4,0.1c0.1,0,0.2,0,0.2,0.1c0,0.1-0.1,0.1-0.2,0.1c-0.9,0-1.8,0-2.6-0.1c-0.8-0.1-1.5-0.2-2-0.5
		c-0.6-0.3-1-0.7-1.4-1.2c-0.4-0.5-0.6-1.2-0.7-2.1l0-0.5c-0.8-0.2-1.6-0.5-2.3-0.9c-0.7-0.5-1.3-1-1.9-1.6
		c-0.5-0.6-0.9-1.3-1.2-2.1c-0.3-0.8-0.5-1.6-0.5-2.4c0-0.9,0.2-1.8,0.6-2.7c0.4-0.9,0.9-1.6,1.6-2.3c0.7-0.7,1.4-1.2,2.3-1.6
		c0.9-0.4,1.8-0.6,2.9-0.6c1,0,2,0.2,2.9,0.6c0.9,0.4,1.7,0.9,2.3,1.6c0.7,0.7,1.2,1.4,1.6,2.3c0.4,0.9,0.6,1.8,0.6,2.7
		c0,0.8-0.2,1.6-0.5,2.4c-0.3,0.8-0.7,1.5-1.2,2.1c-0.5,0.6-1.1,1.2-1.9,1.6c-0.7,0.5-1.5,0.8-2.3,0.9V156.7z M117.1,142.6
		c-0.6,0.2-1,0.5-1.4,1c-0.4,0.5-0.7,1.1-0.9,1.8c-0.2,0.7-0.3,1.6-0.3,2.7v2.1c0,2,0.4,3.5,1.1,4.4c0.8,1,1.9,1.4,3.3,1.4
		c1.4,0,2.5-0.5,3.3-1.4c0.8-1,1.1-2.4,1.1-4.4v-2.1c0-1.1-0.1-2-0.3-2.8c-0.2-0.7-0.5-1.3-0.9-1.8c-0.4-0.5-0.8-0.8-1.4-1
		s-1.2-0.3-1.9-0.3C118.3,142.3,117.6,142.4,117.1,142.6z"/>
	<path id="XMLID_37_" class="st4" d="M134.7,142.5h-2v10.1c0,1.1,0.3,2,1,2.6c0.6,0.6,1.5,0.9,2.6,0.9c0.5,0,1-0.1,1.5-0.2
		c0.5-0.2,0.9-0.4,1.2-0.7c0.3-0.3,0.6-0.7,0.8-1.1c0.2-0.4,0.3-0.9,0.3-1.5v-10.1h-2v-0.3h4.5v0.3h-2v10.1c0,1.3-0.4,2.2-1.3,2.9
		c-0.8,0.6-2,1-3.5,1c-0.6,0-1.2-0.1-1.9-0.2c-0.6-0.1-1.2-0.3-1.7-0.6c-0.5-0.3-0.9-0.7-1.3-1.2c-0.3-0.5-0.5-1.1-0.5-1.8v-10.1h-2
		v-0.3h6.4V142.5z"/>
	<path id="XMLID_39_" class="st4" d="M149.3,155.6h3.8c0.6,0,1-0.1,1.4-0.2c0.4-0.2,0.7-0.4,0.9-0.7c0.2-0.3,0.4-0.7,0.6-1.1
		c0.1-0.4,0.3-0.9,0.4-1.4c0.1-0.3,0.1-0.4,0.3-0.4c0.1,0,0.2,0.2,0.2,0.5v3.1c0,0.4-0.2,0.7-0.7,0.7H145v-0.3h2v-13.2h-2v-0.3h10.6
		c0.4,0,0.6,0.2,0.6,0.5v3.1c0,0.2-0.1,0.3-0.2,0.3c-0.1,0-0.2-0.1-0.2-0.3c0-0.3-0.1-0.6-0.2-1c-0.1-0.4-0.3-0.7-0.5-1.1
		c-0.2-0.3-0.5-0.6-0.9-0.8s-0.8-0.3-1.4-0.3h-3.6v6.1h1.9c0.3,0,0.6,0,0.8-0.1c0.2-0.1,0.4-0.2,0.5-0.4c0.1-0.2,0.2-0.4,0.3-0.6
		c0.1-0.2,0.1-0.5,0.2-0.8c0-0.2,0.1-0.3,0.2-0.3c0.1,0,0.1,0.1,0.1,0.2v4.2c0,0.2,0,0.3-0.1,0.3c-0.1,0-0.1-0.1-0.2-0.3
		c-0.1-0.3-0.1-0.6-0.2-0.8c-0.1-0.2-0.2-0.4-0.3-0.6c-0.1-0.2-0.3-0.3-0.5-0.4c-0.2-0.1-0.5-0.1-0.8-0.1h-1.9V155.6z"/>
	<path id="XMLID_41_" class="st4" d="M191.1,156h-4.7l-1.5-2c-0.1,0-0.3,0.2-0.6,0.4c-0.3,0.2-0.8,0.5-1.3,0.8
		c-0.5,0.3-1.2,0.5-1.9,0.7c-0.7,0.2-1.5,0.3-2.4,0.3c-1.2,0-2.2-0.3-2.9-0.9c-0.7-0.6-1.1-1.4-1.1-2.5c0-1,0.4-2,1.3-2.9
		c0.9-0.9,2.2-1.7,4-2.4l-1.1-1.5c-0.2-0.2-0.3-0.4-0.3-0.6s-0.1-0.5-0.1-0.7c0-0.4,0.1-0.7,0.2-1.1c0.2-0.3,0.4-0.6,0.7-0.9
		c0.3-0.3,0.7-0.5,1.2-0.6c0.5-0.2,1-0.2,1.5-0.2c0.9,0,1.6,0.2,2.1,0.5c0.6,0.4,0.9,0.9,0.9,1.6c0,0.3-0.1,0.6-0.2,0.9
		c-0.1,0.3-0.3,0.5-0.5,0.7c-0.2,0.2-0.6,0.5-0.9,0.7c-0.4,0.2-0.9,0.5-1.4,0.7l4,5.3c0.8-0.7,1.5-1.4,1.9-2.2
		c0.5-0.8,0.8-1.5,0.9-2.3h-2.1v-0.3h4.6v0.3h-2c-0.2,0.9-0.5,1.7-1,2.6c-0.5,0.8-1.1,1.6-2,2.4l2.2,2.8h2.5V156z M177.2,152.5
		c0.2,0.5,0.4,0.9,0.7,1.3c0.3,0.4,0.7,0.7,1.1,1c0.4,0.3,0.9,0.4,1.5,0.4c0.3,0,0.7-0.1,1.1-0.2c0.4-0.1,0.7-0.2,1.1-0.4
		c0.3-0.2,0.7-0.3,1-0.5c0.3-0.2,0.6-0.4,0.9-0.5l-4.2-5.6c-0.6,0.2-1,0.5-1.5,0.7c-0.4,0.2-0.8,0.5-1.1,0.7
		c-0.3,0.3-0.5,0.5-0.6,0.8c-0.1,0.3-0.2,0.6-0.2,1C177,151.6,177,152,177.2,152.5z M183.6,143.7c-0.1-0.2-0.2-0.5-0.3-0.7
		c-0.2-0.2-0.3-0.4-0.6-0.5c-0.2-0.1-0.6-0.2-0.9-0.2c-0.5,0-0.9,0.1-1.3,0.3c-0.4,0.2-0.5,0.6-0.5,1c0,0.2,0,0.4,0.1,0.6
		c0,0.2,0.2,0.4,0.3,0.6l1.5,1.9c0.3-0.1,0.6-0.3,0.8-0.4c0.2-0.1,0.4-0.3,0.6-0.5c0.2-0.2,0.3-0.4,0.4-0.7c0.1-0.3,0.1-0.6,0.1-0.9
		C183.7,144.1,183.7,143.9,183.6,143.7z"/>
	<path id="XMLID_45_" class="st4" d="M217.2,141.8c0.1,0,0.1,0.1,0.1,0.2v3.7c0,0.1-0.1,0.2-0.2,0.2c-0.1,0-0.2-0.1-0.2-0.2
		c-0.1-0.4-0.2-0.9-0.4-1.3c-0.2-0.4-0.5-0.8-0.8-1.1c-0.3-0.3-0.7-0.6-1.2-0.8c-0.5-0.2-1.1-0.3-1.7-0.3c-0.4,0-0.9,0.1-1.3,0.2
		c-0.4,0.1-0.8,0.3-1.1,0.5c-0.3,0.2-0.6,0.5-0.8,0.8c-0.2,0.3-0.3,0.7-0.3,1.1c0,0.5,0.1,0.9,0.4,1.2s0.6,0.6,1.1,0.8
		c0.4,0.2,0.8,0.3,1.2,0.4c0.4,0.1,0.7,0.2,1,0.3c0.3,0.1,0.7,0.2,1,0.2c0.3,0.1,0.7,0.2,1,0.2c1.1,0.3,1.9,0.7,2.4,1.4
		c0.5,0.6,0.7,1.4,0.7,2.3c0,0.7-0.1,1.3-0.4,1.9c-0.3,0.6-0.7,1.1-1.1,1.5c-0.5,0.4-1,0.8-1.7,1c-0.6,0.2-1.4,0.4-2.1,0.4
		c-0.4,0-0.8,0-1.2-0.1c-0.4-0.1-0.8-0.2-1.1-0.3c-0.3-0.1-0.6-0.3-0.9-0.5c-0.3-0.2-0.5-0.3-0.7-0.5l-0.9,1.1
		c-0.1,0.1-0.2,0.2-0.3,0.2c-0.1,0-0.2-0.1-0.2-0.3v-3.7c0-0.2,0.1-0.3,0.2-0.3c0.1,0,0.2,0.1,0.3,0.3c0.2,0.6,0.4,1.1,0.7,1.6
		c0.3,0.5,0.7,0.9,1.2,1.2c0.4,0.3,0.9,0.6,1.4,0.7c0.5,0.2,1.1,0.3,1.6,0.3c0.5,0,1-0.1,1.4-0.2c0.5-0.2,0.9-0.4,1.3-0.6
		c0.4-0.3,0.7-0.6,0.9-1c0.2-0.4,0.3-0.9,0.3-1.3c0-0.4-0.1-0.8-0.3-1.2c-0.2-0.4-0.6-0.7-1.1-0.9c-0.4-0.2-0.8-0.3-1.1-0.4
		c-0.3-0.1-0.6-0.2-1-0.3c-0.3-0.1-0.7-0.2-1-0.3c-0.4-0.1-0.8-0.2-1.3-0.4c-1.1-0.3-1.9-0.8-2.4-1.4c-0.5-0.6-0.8-1.3-0.8-2
		c0-0.5,0.1-1,0.3-1.5c0.2-0.5,0.5-0.9,1-1.3c0.4-0.4,0.9-0.7,1.6-0.9c0.6-0.2,1.3-0.3,2.1-0.3c0.4,0,0.7,0,1,0.1
		c0.3,0,0.6,0.1,0.8,0.2c0.3,0.1,0.5,0.2,0.8,0.3c0.3,0.1,0.5,0.2,0.8,0.4l0.7-0.8C217,141.9,217.1,141.8,217.2,141.8z"/>
	<path id="XMLID_47_" class="st4" d="M230.9,155.6v0.3h-6.4v-0.3h2v-13.2h-2c-0.7,0-1.4,0.3-1.9,1c-0.5,0.6-0.9,1.5-1.1,2.6H221
		l0.4-3.6c0-0.2,0.2-0.4,0.5-0.4h11.7c0.3,0,0.5,0.1,0.5,0.4l0.4,3.6h-0.5c-0.2-1.1-0.5-2-1.1-2.6c-0.5-0.6-1.2-1-1.9-1h-2v13.2
		H230.9z"/>
	<path id="XMLID_49_" class="st4" d="M241.6,155.8c-0.9-0.4-1.7-0.9-2.3-1.6c-0.7-0.7-1.2-1.4-1.6-2.3c-0.4-0.9-0.6-1.8-0.6-2.7
		c0-0.9,0.2-1.8,0.6-2.7c0.4-0.9,0.9-1.6,1.6-2.3s1.4-1.2,2.3-1.6c0.9-0.4,1.8-0.6,2.9-0.6c1,0,2,0.2,2.9,0.6
		c0.9,0.4,1.7,0.9,2.3,1.6s1.2,1.4,1.6,2.3c0.4,0.9,0.6,1.8,0.6,2.7c0,0.9-0.2,1.8-0.6,2.7c-0.4,0.9-0.9,1.6-1.6,2.3
		c-0.7,0.7-1.4,1.2-2.3,1.6c-0.9,0.4-1.8,0.6-2.9,0.6C243.5,156.4,242.5,156.2,241.6,155.8z M242.6,142.6c-0.6,0.2-1,0.5-1.4,1
		c-0.4,0.5-0.7,1.1-0.9,1.8s-0.3,1.6-0.3,2.7v2.1c0,2,0.4,3.5,1.1,4.4c0.8,1,1.9,1.4,3.3,1.4s2.5-0.5,3.3-1.4c0.8-1,1.1-2.4,1.1-4.4
		v-2.1c0-1.1-0.1-2-0.3-2.8c-0.2-0.7-0.5-1.3-0.9-1.8c-0.4-0.5-0.8-0.8-1.4-1c-0.6-0.2-1.2-0.3-1.9-0.3
		C243.8,142.3,243.1,142.4,242.6,142.6z"/>
	<path id="XMLID_52_" class="st4" d="M267.2,155.6c0.4,0,0.8-0.1,1.1-0.3c0.1,0,0.1,0,0.1,0c0,0,0.1,0,0.1,0.1c0,0,0,0.1-0.1,0.1
		c-0.1,0.1-0.2,0.1-0.4,0.2c-0.2,0.1-0.4,0.1-0.6,0.2c-0.2,0.1-0.5,0.1-0.7,0.2c-0.3,0-0.5,0.1-0.8,0.1c-0.3,0-0.6,0-0.9-0.1
		c-0.3-0.1-0.5-0.2-0.7-0.4c-0.2-0.2-0.4-0.5-0.5-0.7c-0.1-0.3-0.2-0.6-0.2-0.9s-0.1-0.7-0.1-1.1c0-0.4,0-0.7-0.1-1.1
		c-0.1-0.6-0.2-1.1-0.4-1.5c-0.2-0.4-0.4-0.7-0.6-0.9c-0.2-0.2-0.5-0.4-0.8-0.4c-0.3-0.1-0.6-0.1-0.8-0.1h-2v6.7h2v0.3h-6.4v-0.3h2
		v-13.2h-2v-0.3h6.7c0.7,0,1.3,0.1,1.9,0.2c0.6,0.2,1.1,0.4,1.6,0.7c0.4,0.3,0.8,0.6,1.1,1.1c0.3,0.4,0.4,0.9,0.4,1.4
		c0,0.9-0.3,1.6-1,2.2c-0.7,0.6-1.6,1-2.8,1.1c0.5,0.1,0.9,0.2,1.3,0.4c0.4,0.1,0.8,0.3,1.1,0.5s0.6,0.5,0.8,0.9
		c0.2,0.4,0.4,0.8,0.5,1.4c0,0.3,0.1,0.6,0.1,0.9c0,0.3,0,0.6,0,0.9c0,0.3,0,0.6,0,0.8c0,0.2,0.1,0.4,0.1,0.6
		C266.4,155.4,266.7,155.6,267.2,155.6z M261.2,148.6c1.8,0,2.7-0.9,2.7-2.7v-0.7c0-1.8-0.9-2.7-2.7-2.7h-2.3v6.1H261.2z"/>
	<path id="XMLID_55_" class="st4" d="M275,155.6h3.8c0.6,0,1-0.1,1.4-0.2c0.4-0.2,0.7-0.4,0.9-0.7c0.2-0.3,0.4-0.7,0.6-1.1
		c0.1-0.4,0.3-0.9,0.4-1.4c0.1-0.3,0.1-0.4,0.3-0.4c0.1,0,0.2,0.2,0.2,0.5v3.1c0,0.4-0.2,0.7-0.7,0.7h-11.2v-0.3h2v-13.2h-2v-0.3
		h10.6c0.4,0,0.6,0.2,0.6,0.5v3.1c0,0.2-0.1,0.3-0.2,0.3c-0.1,0-0.2-0.1-0.2-0.3c0-0.3-0.1-0.6-0.2-1c-0.1-0.4-0.3-0.7-0.5-1.1
		c-0.2-0.3-0.5-0.6-0.9-0.8c-0.4-0.2-0.8-0.3-1.4-0.3H275v6.1h1.9c0.3,0,0.6,0,0.8-0.1c0.2-0.1,0.4-0.2,0.5-0.4
		c0.1-0.2,0.2-0.4,0.3-0.6c0.1-0.2,0.1-0.5,0.2-0.8c0-0.2,0.1-0.3,0.2-0.3c0.1,0,0.1,0.1,0.1,0.2v4.2c0,0.2,0,0.3-0.1,0.3
		c-0.1,0-0.1-0.1-0.2-0.3c-0.1-0.3-0.1-0.6-0.2-0.8c-0.1-0.2-0.2-0.4-0.3-0.6c-0.1-0.2-0.3-0.3-0.5-0.4c-0.2-0.1-0.5-0.1-0.8-0.1
		H275V155.6z"/>
</g>
</svg>
