<?xml version="1.0" encoding="utf-8"?>
<!-- Generator: Adobe Illustrator 19.0.0, SVG Export Plug-In . SVG Version: 6.00 Build 0)  -->
<svg version="1.1" xmlns="http://www.w3.org/2000/svg" xmlns:xlink="http://www.w3.org/1999/xlink" x="0px" y="0px"
	 viewBox="0 0 24 24" style="enable-background:new 0 0 24 24;" xml:space="preserve">
<style type="text/css">
	.st0{display:none;}
	.st1{display:inline;}
	.st2{fill:#3B3C3C;}
	.st3{display:inline;fill:none;}
	.st4{font-family:'FontAwesome5BrandsRegular';}
	.st5{font-size:14.1732px;}
</style>
<g id="Layer_1" class="st0">
	<g id="XMLID_8_" class="st1">
		<path id="XMLID_9_" class="st2" d="M10.5,12.3H8.3V9.8h2.1v-2c0-1.1,0.3-1.9,0.9-2.4c0.6-0.6,1.4-0.9,2.4-0.9c0.8,0,1.4,0,1.9,0.1
			v2.2h-1.3c-0.5,0-0.8,0.1-1,0.3c-0.1,0.2-0.2,0.5-0.2,0.9v1.7h2.4l-0.3,2.5h-2v6.3h-2.6V12.3z"/>
	</g>
</g>
<g id="Layer_2" class="st0">
	<g id="XMLID_1_" class="st1">
		<path id="XMLID_2_" class="st2" d="M17.6,9c0,1.3-0.3,2.6-1,3.8c-0.7,1.3-1.6,2.4-2.8,3.1c-1.3,0.9-2.8,1.3-4.5,1.3
			c-1.6,0-3.1-0.4-4.5-1.3c0.2,0,0.4,0,0.7,0c1.3,0,2.6-0.4,3.6-1.2c-0.6,0-1.2-0.2-1.7-0.6c-0.5-0.4-0.8-0.9-1-1.4
			c0.2,0,0.4,0,0.5,0c0.3,0,0.5,0,0.8-0.1c-0.7-0.1-1.2-0.5-1.7-1s-0.7-1.1-0.7-1.8V9.8c0.4,0.2,0.8,0.4,1.3,0.4
			C6.4,9.9,6.1,9.6,5.9,9.2C5.6,8.7,5.5,8.3,5.5,7.8s0.1-1,0.4-1.5c0.7,0.9,1.6,1.6,2.6,2.2c1,0.5,2.2,0.8,3.3,0.9
			c0-0.2-0.1-0.4-0.1-0.7c0-0.5,0.1-1,0.4-1.5c0.3-0.5,0.6-0.8,1.1-1.1c0.4-0.3,0.9-0.4,1.4-0.4c0.4,0,0.8,0.1,1.2,0.2
			c0.4,0.2,0.7,0.4,1,0.7c0.7-0.1,1.3-0.4,1.9-0.7c-0.2,0.7-0.6,1.2-1.3,1.6c0.6-0.1,1.1-0.2,1.7-0.5c-0.4,0.6-0.9,1.1-1.5,1.5
			C17.6,8.7,17.6,8.9,17.6,9z"/>
	</g>
</g>
<g id="Layer_3">
	<g id="XMLID_3_">
		<path id="XMLID_12_" class="st2" d="M18.2,9c0,0.5,0,1.4,0,2.6s0,2.1,0,2.6c0,0.5-0.1,1-0.2,1.4c-0.2,0.5-0.4,0.9-0.8,1.2
			c-0.3,0.3-0.7,0.6-1.2,0.8c-0.4,0.1-0.8,0.2-1.4,0.2c-0.5,0-1.4,0-2.6,0c-1.2,0-2.1,0-2.6,0c-0.5,0-1-0.1-1.4-0.3
			c-0.5-0.1-0.9-0.4-1.2-0.7c-0.3-0.3-0.6-0.7-0.8-1.2c-0.1-0.4-0.2-0.8-0.2-1.4c0-0.5,0-1.4,0-2.6s0-2.1,0-2.6s0.1-1,0.2-1.4
			c0.2-0.5,0.4-0.9,0.8-1.2S7.6,5.8,8,5.6c0.4-0.1,0.8-0.2,1.4-0.2s1.4,0,2.6,0c1.2,0,2.1,0,2.6,0c0.5,0,1,0.1,1.4,0.2
			c0.5,0.2,0.9,0.4,1.2,0.8c0.3,0.3,0.6,0.7,0.8,1.2C18.1,8,18.1,8.4,18.2,9z M16.8,15.2c0.1-0.3,0.2-0.8,0.2-1.5c0-0.4,0-1,0-1.7
			v-0.9c0-0.8,0-1.3,0-1.7c0-0.7-0.1-1.2-0.2-1.5c-0.2-0.6-0.6-1-1.2-1.2c-0.3-0.1-0.8-0.2-1.5-0.2c-0.4,0-1,0-1.7,0h-0.9
			c-0.7,0-1.3,0-1.7,0c-0.7,0-1.2,0.1-1.5,0.2c-0.6,0.2-1,0.6-1.2,1.2C7,8.2,7,8.7,6.9,9.4c0,0.4,0,1,0,1.7V12c0,0.7,0,1.3,0,1.7
			c0,0.7,0.1,1.2,0.2,1.5c0.2,0.6,0.6,1,1.2,1.2c0.3,0.1,0.8,0.2,1.5,0.2c0.4,0,1,0,1.7,0h0.9c0.8,0,1.3,0,1.7,0
			c0.7,0,1.2-0.1,1.5-0.2C16.2,16.1,16.6,15.8,16.8,15.2z M12,8.4c0.6,0,1.1,0.1,1.6,0.4c0.5,0.3,0.9,0.7,1.2,1.2
			c0.3,0.5,0.4,1,0.4,1.6s-0.1,1.1-0.4,1.6c-0.3,0.5-0.7,0.9-1.2,1.2c-0.5,0.3-1,0.4-1.6,0.4s-1.1-0.1-1.6-0.4
			c-0.5-0.3-0.9-0.7-1.2-1.2c-0.3-0.5-0.4-1-0.4-1.6S9,10.4,9.2,10c0.3-0.5,0.7-0.9,1.2-1.2C10.9,8.5,11.4,8.4,12,8.4z M12,13.6
			c0.6,0,1.1-0.2,1.5-0.6c0.4-0.4,0.6-0.9,0.6-1.5s-0.2-1.1-0.6-1.5c-0.4-0.4-0.9-0.6-1.5-0.6s-1.1,0.2-1.5,0.6
			c-0.4,0.4-0.6,0.9-0.6,1.5s0.2,1.1,0.6,1.5C10.9,13.4,11.4,13.6,12,13.6z M16.1,8.2c0-0.2-0.1-0.4-0.2-0.5
			c-0.1-0.1-0.3-0.2-0.5-0.2s-0.4,0.1-0.5,0.2c-0.1,0.1-0.2,0.3-0.2,0.5c0,0.2,0.1,0.4,0.2,0.5C14.9,8.9,15.1,9,15.3,9
			s0.4-0.1,0.5-0.2C16,8.6,16,8.4,16.1,8.2z"/>
	</g>
</g>
<g id="Layer_4" class="st0">
	<rect id="XMLID_7_" y="4.9" class="st3" width="24" height="14.9"/>
	<text id="XMLID_6_" transform="matrix(1 0 0 1 8.3462 16.8594)" class="st1 st4 st5"></text>
</g>
</svg>
