<?xml version="1.0" encoding="utf-8"?>
<!-- Generator: Adobe Illustrator 19.0.0, SVG Export Plug-In . SVG Version: 6.00 Build 0)  -->
<svg version="1.1" xmlns="http://www.w3.org/2000/svg" xmlns:xlink="http://www.w3.org/1999/xlink" x="0px" y="0px"
	 viewBox="0 0 24 24" style="enable-background:new 0 0 24 24;" xml:space="preserve">
<style type="text/css">
	.st0{display:none;}
	.st1{display:inline;}
	.st2{fill:#3B3C3C;}
	.st3{display:inline;fill:none;}
	.st4{font-family:'FontAwesome5BrandsRegular';}
	.st5{font-size:14.1732px;}
</style>
<g id="Layer_1" class="st0">
	<g id="XMLID_8_" class="st1">
		<path id="XMLID_9_" class="st2" d="M10.5,12.3H8.3V9.8h2.1v-2c0-1.1,0.3-1.9,0.9-2.4c0.6-0.6,1.4-0.9,2.4-0.9c0.8,0,1.4,0,1.9,0.1
			v2.2h-1.3c-0.5,0-0.8,0.1-1,0.3c-0.1,0.2-0.2,0.5-0.2,0.9v1.7h2.4l-0.3,2.5h-2v6.3h-2.6V12.3z"/>
	</g>
</g>
<g id="Layer_2">
	<g id="XMLID_1_">
		<path id="XMLID_2_" class="st2" d="M17.6,9c0,1.3-0.3,2.6-1,3.8c-0.7,1.3-1.6,2.4-2.8,3.1c-1.3,0.9-2.8,1.3-4.5,1.3
			c-1.6,0-3.1-0.4-4.5-1.3c0.2,0,0.4,0,0.7,0c1.3,0,2.6-0.4,3.6-1.2c-0.6,0-1.2-0.2-1.7-0.6c-0.5-0.4-0.8-0.9-1-1.4
			c0.2,0,0.4,0,0.5,0c0.3,0,0.5,0,0.8-0.1c-0.7-0.1-1.2-0.5-1.7-1s-0.7-1.1-0.7-1.8V9.8c0.4,0.2,0.8,0.4,1.3,0.4
			C6.4,9.9,6.1,9.6,5.9,9.2C5.6,8.7,5.5,8.3,5.5,7.8s0.1-1,0.4-1.5c0.7,0.9,1.6,1.6,2.6,2.2c1,0.5,2.2,0.8,3.3,0.9
			c0-0.2-0.1-0.4-0.1-0.7c0-0.5,0.1-1,0.4-1.5c0.3-0.5,0.6-0.8,1.1-1.1c0.4-0.3,0.9-0.4,1.4-0.4c0.4,0,0.8,0.1,1.2,0.2
			c0.4,0.2,0.7,0.4,1,0.7c0.7-0.1,1.3-0.4,1.9-0.7c-0.2,0.7-0.6,1.2-1.3,1.6c0.6-0.1,1.1-0.2,1.7-0.5c-0.4,0.6-0.9,1.1-1.5,1.5
			C17.6,8.7,17.6,8.9,17.6,9z"/>
	</g>
</g>
<g id="Layer_3" class="st0">
	<rect id="XMLID_5_" y="4.9" class="st3" width="24" height="14.9"/>
	<text id="XMLID_4_" transform="matrix(1 0 0 1 8.3462 16.8594)" class="st1 st4 st5"></text>
</g>
<g id="Layer_4" class="st0">
	<rect id="XMLID_7_" y="4.9" class="st3" width="24" height="14.9"/>
	<text id="XMLID_6_" transform="matrix(1 0 0 1 8.3462 16.8594)" class="st1 st4 st5"></text>
</g>
</svg>
