<?xml version="1.0" encoding="utf-8"?>
<!-- Generator: Adobe Illustrator 19.0.0, SVG Export Plug-In . SVG Version: 6.00 Build 0)  -->
<svg version="1.1" id="Layer_1" xmlns="http://www.w3.org/2000/svg" xmlns:xlink="http://www.w3.org/1999/xlink" x="0px" y="0px"
	 viewBox="-90 213.9 414 414" style="enable-background:new -90 213.9 414 414;" xml:space="preserve">
<style type="text/css">
	.st0{fill:#ECC4E2;}
	.st1{fill:#D194C2;}
	.st2{fill:#3A3B3B;}
</style>
<path class="st0" d="M122.4,497c-1.3-2.1-3.5-3.4-6-3.4L7.2,493.7l0,0c-18.2,0-33-14.8-33-33L-26,244.9c0-1,0.1-2,0.1-3h-17.2
	c-18.2,0-33,14.8-33,33l0.1,215.8c0,18.2,14.8,33,33,33l0,0l109.2-0.1c2.5,0,4.7,1.3,6,3.4l43.4,71.7l34-56.4L122.4,497z"/>
<g>
	<path class="st1" d="M244.5,437.9h-255c-3.9,0-7-3.1-7-7s3.1-7,7-7h254.9c3.9,0,7,3.1,7,7S248.3,437.9,244.5,437.9z"/>
	<path class="st1" d="M244.5,387.9h-255c-3.9,0-7-3.1-7-7s3.1-7,7-7h254.9c3.9,0,7,3.1,7,7S248.3,387.9,244.5,387.9z"/>
	<path class="st1" d="M244.5,337.9h-255c-3.9,0-7-3.1-7-7s3.1-7,7-7h254.9c3.9,0,7,3.1,7,7S248.3,337.9,244.5,337.9z"/>
</g>
<path class="st2" d="M310.1,241.5c-8.8-8.8-20.7-13.8-33.2-13.7l0,0L-43,227.9c-25.9,0-46.9,21.1-47,47l0.1,215.8
	c0,25.9,21,47,47,47l0,0l105.3-0.1l42.7,70.5l0.1,0.1c2.3,3.6,6.3,5.8,10.5,5.8l0,0c4.3,0,8.2-2.2,10.5-5.8l0.1-0.1l42.6-70.6
	l108.1-0.1c25.9,0,47-21.1,47-47l-0.1-215.8C323.9,262.2,318.9,250.3,310.1,241.5z M277,523.5l-112,0.1c-2.5,0-4.7,1.3-6,3.4
	l-43.3,71.7L72.3,527c-1.3-2.1-3.5-3.4-6-3.4l-109.2,0.1l0,0c-18.2,0-33-14.8-33-33L-76,274.9c0-18.2,14.8-33,33-33l319.9-0.2l0,0
	c18.2,0,33,14.8,33,33l0.1,215.8C310,508.7,295.3,523.5,277,523.5z"/>
</svg>
