<?xml version="1.0" encoding="utf-8"?>
<!-- Generator: Adobe Illustrator 19.0.0, SVG Export Plug-In . SVG Version: 6.00 Build 0)  -->
<svg version="1.1" id="Layer_1" xmlns="http://www.w3.org/2000/svg" xmlns:xlink="http://www.w3.org/1999/xlink" x="0px" y="0px"
	 viewBox="8 -10 24 24" style="enable-background:new 8 -10 24 24;" xml:space="preserve">
<style type="text/css">
	.st0{fill:#FFFFFF;}
</style>
<path class="st0" d="M11,2c0-0.6,0.4-1,1-1h16c0.6,0,1,0.4,1,1s-0.4,1-1,1H12C11.4,3,11,2.6,11,2z"/>
<path class="st0" d="M17.3,8.7l-6-6c-0.4-0.4-0.4-1,0-1.4l6-6c0.4-0.4,1-0.4,1.4,0s0.4,1,0,1.4L13.4,2l5.3,5.3c0.4,0.4,0.4,1,0,1.4
	C18.5,8.9,18.3,9,18,9S17.5,8.9,17.3,8.7z"/>
</svg>
