<?xml version="1.0" encoding="utf-8"?>
<!-- Generator: Adobe Illustrator 19.0.0, SVG Export Plug-In . SVG Version: 6.00 Build 0)  -->
<svg version="1.1" id="Layer_1" xmlns="http://www.w3.org/2000/svg" xmlns:xlink="http://www.w3.org/1999/xlink" x="0px" y="0px"
	 viewBox="-33 5 24 24" style="enable-background:new -33 5 24 24;" xml:space="preserve">
<style type="text/css">
	.st0{fill:#3B3C3C;}
</style>
<path class="st0" d="M-12,18h-18c-0.6,0-1-0.4-1-1s0.4-1,1-1h18c0.6,0,1,0.4,1,1S-11.4,18-12,18z"/>
<path class="st0" d="M-12,12h-18c-0.6,0-1-0.4-1-1s0.4-1,1-1h18c0.6,0,1,0.4,1,1S-11.4,12-12,12z"/>
<path class="st0" d="M-12,24h-18c-0.6,0-1-0.4-1-1s0.4-1,1-1h18c0.6,0,1,0.4,1,1S-11.4,24-12,24z"/>
</svg>
