<?xml version="1.0" encoding="utf-8"?>
<!-- Generator: Adobe Illustrator 19.0.0, SVG Export Plug-In . SVG Version: 6.00 Build 0)  -->
<svg version="1.1" id="Layer_1" xmlns="http://www.w3.org/2000/svg" xmlns:xlink="http://www.w3.org/1999/xlink" x="0px" y="0px"
	 viewBox="-85 208.9 424 424" style="enable-background:new -85 208.9 424 424;" xml:space="preserve">
<style type="text/css">
	.st0{fill:#C1E3F2;}
	.st1{fill:#D4E1F4;}
	.st2{fill:#3A3B3B;}
	.st3{fill:#A1DBF1;}
</style>
<path class="st0" d="M-11,509.2v-95.7l-40-17v142.7c0,7.2,5.8,13,13,13h18.6c2.2-12.8,10.1-23.9,21.6-30H2
	C-5.2,522.2-11,516.4-11,509.2z"/>
<path class="st0" d="M41.9,522.2c11.4,6.1,19.4,17.2,21.6,30h96.1v-30H41.9z"/>
<path class="st1" d="M2.1,522.2h39.7C29.5,515.6,14.5,515.6,2.1,522.2z"/>
<path class="st2" d="M-58,373.9c-3.9,0-7,3.1-7,7v158.4c0,14.9,12.1,27,27,27h25c3.9,0,7-3.1,7-7c0-3.9-3.1-7-7-7h-25
	c-7.2,0-13-5.8-13-13V380.9C-51,377-54.1,373.9-58,373.9z"/>
<path class="st2" d="M158.5,449.7v102.6H57c-3.9,0-7,3.1-7,7c0,3.9,3.1,7,7,7h160c3.9,0,7-3.1,7-7c0-3.9-3.1-7-7-7h-44.5v-95.6H325
	v82.6c0,7.2-5.8,13-13,13h-25c-3.9,0-7,3.1-7,7c0,3.9,3.1,7,7,7h25c14.9,0,27-12.1,27-27v-89.6c0-0.1,0-0.1,0-0.2s0-0.3,0-0.4
	s0-0.2,0-0.3c0-0.1,0-0.2-0.1-0.4c0-0.1,0-0.2-0.1-0.3c0-0.1-0.1-0.2-0.1-0.3c0-0.1-0.1-0.2-0.1-0.3s-0.1-0.2-0.1-0.3
	c0-0.1-0.1-0.2-0.1-0.3c0-0.1-0.1-0.2-0.1-0.3c-0.1-0.1-0.1-0.2-0.2-0.3c-0.1-0.1-0.1-0.2-0.2-0.3c-0.1-0.1-0.1-0.2-0.2-0.3
	c-0.1-0.1-0.1-0.2-0.2-0.3c-0.1-0.1-0.2-0.2-0.2-0.3l-0.1-0.1l-51.5-56.1c-5.1-5.6-12.3-8.7-19.9-8.7h-93.3v-72.7
	c0-14.9-12.1-27-27-27H72c-3.9,0-7,3.1-7,7s3.1,7,7,7h73.5c7.2,0,13,5.8,13,13V449.7z M265.7,394.1c3.6,0,7.1,1.5,9.6,4.2l40.8,44.4
	H172.5v-48.6H265.7z"/>
<g>
	<path class="st3" d="M252,601.2c-23.2,0-42-18.8-42-42c0-23.2,18.8-42,42-42s42,18.8,42,42C294,582.4,275.2,601.2,252,601.2z
		 M252,531.2c-15.5,0-28,12.5-28,28s12.5,28,28,28s28-12.5,28-28C280,543.8,267.5,531.3,252,531.2z"/>
	<path class="st3" d="M2,414.5c-48,0-87-39-87-87s39-87,87-87s87,39,87,87C88.9,375.5,50,414.4,2,414.5z M2,254.5
		c-40.3,0-73,32.7-73,73s32.7,73,73,73s73-32.7,73-73S42.3,254.5,2,254.5z"/>
	<path class="st3" d="M43.9,334.7H2.3c-3.9,0-7-3.1-7-7v-41.6c0-3.9,3.1-7,7-7s7,3.1,7,7v34.6h34.6c3.9,0,7,3.1,7,7
		C50.9,331.5,47.7,334.7,43.9,334.7z"/>
	<path class="st3" d="M22,601.2c-23.2,0-42-18.8-42-42c0-23.2,18.8-42,42-42s42,18.8,42,42C64,582.4,45.2,601.2,22,601.2z M22,531.2
		c-15.5,0-28,12.5-28,28s12.5,28,28,28s28-12.5,28-28C50,543.8,37.5,531.3,22,531.2z"/>
</g>
</svg>
