<?xml version="1.0" encoding="utf-8"?>
<!-- Generator: Adobe Illustrator 19.0.0, SVG Export Plug-In . SVG Version: 6.00 Build 0)  -->
<svg version="1.1" id="Layer_1" xmlns="http://www.w3.org/2000/svg" xmlns:xlink="http://www.w3.org/1999/xlink" x="0px" y="0px"
	 viewBox="-55 178.9 484 484" style="enable-background:new -55 178.9 484 484;" xml:space="preserve">
<style type="text/css">
	.st0{fill:#C1E3F2;}
	.st1{fill:#A1DBF1;}
	.st2{fill:#3A3B3B;}
</style>
<path class="st0" d="M362,543.9H22c-18.2,0-33-14.8-33-33v-200c0-1,0.1-1.9,0.1-2.9c-17,1.5-30.1,15.8-30.1,32.9v200
	c0,18.2,14.8,33,33,33h340c17.1,0,31.4-13.1,32.9-30.1C363.9,543.8,363,543.9,362,543.9z"/>
<g>
	<path class="st1" d="M422,330.4h-54c-3.9,0-7-3.1-7-7s3.1-7,7-7h54c3.9,0,7,3.1,7,7S425.9,330.4,422,330.4z"/>
	<path class="st1" d="M422,373.4h-50c-3.9,0-7-3.1-7-7s3.1-7,7-7h50c3.9,0,7,3.1,7,7S425.9,373.4,422,373.4z"/>
	<path class="st1" d="M-48,370.4h420c3.9,0,7-3.1,7-7s-3.1-7-7-7H-48c-3.9,0-7,3.1-7,7S-51.9,370.4-48,370.4z"/>
	<path class="st1" d="M372,399.4H-48c-3.9,0-7,3.1-7,7s3.1,7,7,7h420c3.9,0,7-3.1,7-7S375.9,399.4,372,399.4z"/>
	<path class="st1" d="M290.2,453.3c-7.3,0-14.5,1.7-21,5.1c-22.5-11.6-50.1-2.8-61.7,19.7s-2.8,50.1,19.7,61.7
		c13.2,6.8,28.8,6.8,42,0c22.5,11.6,50.1,2.8,61.7-19.7c11.6-22.5,2.8-50.1-19.7-61.7C304.7,455,297.5,453.3,290.2,453.3z
		 M216.4,499.1c0-17.5,14.2-31.8,31.8-31.8c17.5,0,31.8,14.2,31.8,31.8c0,17.5-14.2,31.8-31.8,31.8
		C230.6,530.8,216.4,516.6,216.4,499.1z M290.2,530.8c-2.7,0-5.4-0.4-8.1-1.1c15.8-17.4,15.8-44,0-61.4c17-4.5,34.3,5.7,38.8,22.6
		c4.5,17-5.7,34.3-22.6,38.8C295.6,530.5,292.9,530.8,290.2,530.8z"/>
</g>
<path class="st2" d="M382,253.9H42c-23.2,0-43,17-46.5,40H-8c-25.9,0-47,21.1-47,47v200c0,25.9,21.1,47,47,47h340
	c23.2,0,43-17,46.5-40h3.5c25.9,0,47-21.1,47-47v-200C429,275,407.9,253.9,382,253.9z M365,540.9c0,18.2-14.8,33-33,33H-8
	c-18.2,0-33-14.8-33-33v-200c0-18.2,14.8-33,33-33h340c18.2,0,33,14.8,33,33V540.9z M415,500.9c0,18.2-14.8,33-33,33h-3v-193
	c0-25.9-21.1-47-47-47H9.8c3.3-15.2,16.7-26,32.2-26h340c18.2,0,33,14.8,33,33V500.9z"/>
</svg>
