<?xml version="1.0" encoding="utf-8"?>
<!-- Generator: Adobe Illustrator 19.0.0, SVG Export Plug-In . SVG Version: 6.00 Build 0)  -->
<svg version="1.1" xmlns="http://www.w3.org/2000/svg" xmlns:xlink="http://www.w3.org/1999/xlink" x="0px" y="0px"
	 viewBox="0 0 24 24" style="enable-background:new 0 0 24 24;" xml:space="preserve">
<style type="text/css">
	.st0{fill:#3B3C3C;}
	.st1{display:none;}
	.st2{display:inline;fill:none;}
	.st3{display:inline;}
	.st4{font-family:'FontAwesome5BrandsRegular';}
	.st5{font-size:14.1732px;}
</style>
<g id="Layer_1">
	<g id="XMLID_8_">
		<path id="XMLID_9_" class="st0" d="M10.5,12.3H8.3V9.8h2.1v-2c0-1.1,0.3-1.9,0.9-2.4c0.6-0.6,1.4-0.9,2.4-0.9c0.8,0,1.4,0,1.9,0.1
			v2.2h-1.3c-0.5,0-0.8,0.1-1,0.3c-0.1,0.2-0.2,0.5-0.2,0.9v1.7h2.4l-0.3,2.5h-2v6.3h-2.6V12.3z"/>
	</g>
</g>
<g id="Layer_2" class="st1">
	<rect id="XMLID_16_" y="4.9" class="st2" width="24" height="14.9"/>
	<text id="XMLID_3_" transform="matrix(1 0 0 1 8.3462 16.8594)" class="st3 st4 st5"></text>
</g>
<g id="Layer_3" class="st1">
	<rect id="XMLID_5_" y="4.9" class="st2" width="24" height="14.9"/>
	<text id="XMLID_4_" transform="matrix(1 0 0 1 8.3462 16.8594)" class="st3 st4 st5"></text>
</g>
<g id="Layer_4" class="st1">
	<rect id="XMLID_7_" y="4.9" class="st2" width="24" height="14.9"/>
	<text id="XMLID_6_" transform="matrix(1 0 0 1 8.3462 16.8594)" class="st3 st4 st5"></text>
</g>
</svg>
