<?xml version="1.0" encoding="utf-8"?>
<!-- Generator: Adobe Illustrator 19.0.0, SVG Export Plug-In . SVG Version: 6.00 Build 0)  -->
<svg version="1.1" id="Layer_1" xmlns="http://www.w3.org/2000/svg" xmlns:xlink="http://www.w3.org/1999/xlink" x="0px" y="0px"
	 viewBox="-42 9 24 24" style="enable-background:new -42 9 24 24;" xml:space="preserve">
<style type="text/css">
	.st0{fill:#3B3C3C;}
</style>
<path class="st0" d="M-29,27c-0.3,0-0.5-0.1-0.7-0.3c-0.4-0.4-0.4-1,0-1.4l4.3-4.3l-4.3-4.3c-0.4-0.4-0.4-1,0-1.4s1-0.4,1.4,0l5,5
	c0.4,0.4,0.4,1,0,1.4l-5,5C-28.5,26.9-28.7,27-29,27z"/>
<path class="st0" d="M-36,27c-0.3,0-0.5-0.1-0.7-0.3c-0.4-0.4-0.4-1,0-1.4l4.3-4.3l-4.3-4.3c-0.4-0.4-0.4-1,0-1.4s1-0.4,1.4,0l5,5
	c0.4,0.4,0.4,1,0,1.4l-5,5C-35.5,26.9-35.7,27-36,27z"/>
</svg>
