<?xml version="1.0" encoding="utf-8"?>
<!-- Generator: Adobe Illustrator 23.0.4, SVG Export Plug-In . SVG Version: 6.00 Build 0)  -->
<svg version="1.1" id="Layer_1" xmlns="http://www.w3.org/2000/svg" xmlns:xlink="http://www.w3.org/1999/xlink" x="0px" y="0px"
	 viewBox="0 0 24 24" style="enable-background:new 0 0 24 24;" xml:space="preserve">
<style type="text/css">
	.st0{fill:#52B450;}
</style>
<path class="st0" d="M12,23.1c-0.2,0-0.3,0-0.5-0.1c-0.4-0.2-8.6-4.4-8.6-11V4c0-0.5,0.3-0.9,0.8-1l8-2c0.2,0,0.3,0,0.5,0l8,2
	C20.7,3.1,21,3.5,21,4v8c0,6.6-8.2,10.8-8.6,11C12.3,23,12.2,23.1,12,23.1z M5.1,4.8V12c0,4.5,5.3,7.9,6.9,8.8
	c1.6-0.9,6.9-4.3,6.9-8.8V4.8L12,3.1L5.1,4.8z"/>
</svg>
