<?xml version="1.0" encoding="utf-8"?>
<!-- Generator: Adobe Illustrator 19.0.0, SVG Export Plug-In . SVG Version: 6.00 Build 0)  -->
<svg version="1.1" id="Layer_1" xmlns="http://www.w3.org/2000/svg" xmlns:xlink="http://www.w3.org/1999/xlink" x="0px" y="0px"
	 viewBox="-243 245 24 24" style="enable-background:new -243 245 24 24;" xml:space="preserve">
<style type="text/css">
	.st0{fill:#232323;}
</style>
<path class="st0" d="M-232.5,264c-4.7,0-8.5-3.8-8.5-8.5c0-4.7,3.8-8.5,8.5-8.5c4.7,0,8.5,3.8,8.5,8.5
	C-224,260.2-227.8,264-232.5,264z M-232.5,249c-3.6,0-6.5,2.9-6.5,6.5s2.9,6.5,6.5,6.5s6.5-2.9,6.5-6.5S-228.9,249-232.5,249z"/>
<path class="st0" d="M-222,267c-0.3,0-0.5-0.1-0.7-0.3l-5.2-5.2c-0.4-0.4-0.4-1,0-1.4s1-0.4,1.4,0l5.2,5.2c0.4,0.4,0.4,1,0,1.4
	C-221.5,266.9-221.7,267-222,267z"/>
</svg>
