<?xml version="1.0" encoding="utf-8"?>
<!-- Generator: Adobe Illustrator 19.0.0, SVG Export Plug-In . SVG Version: 6.00 Build 0)  -->
<svg version="1.1" id="Layer_1" xmlns="http://www.w3.org/2000/svg" xmlns:xlink="http://www.w3.org/1999/xlink" x="0px" y="0px"
	 viewBox="8 -10 24 24" style="enable-background:new 8 -10 24 24;" xml:space="preserve">
<style type="text/css">
	.st0{fill:#01A3CD;}
</style>
<path class="st0" d="M20,13.1c-0.2,0-0.3,0-0.5-0.1c-0.4-0.2-8.6-4.4-8.6-11v-8c0-0.5,0.3-0.9,0.8-1l8-2c0.2,0,0.3,0,0.5,0l8,2
	c0.5,0.1,0.8,0.5,0.8,1v8c0,6.6-8.2,10.8-8.6,11C20.3,13,20.2,13.1,20,13.1z M13.1-5.2V2c0,4.5,5.3,7.9,6.9,8.8
	c1.6-0.9,6.9-4.3,6.9-8.8v-7.2L20-6.9L13.1-5.2z"/>
</svg>
