<?xml version="1.0" encoding="utf-8"?>
<!-- Generator: Adobe Illustrator 19.0.0, SVG Export Plug-In . SVG Version: 6.00 Build 0)  -->
<svg version="1.1" id="Layer_1" xmlns="http://www.w3.org/2000/svg" xmlns:xlink="http://www.w3.org/1999/xlink" x="0px" y="0px"
	 viewBox="187 -222 484 484" style="enable-background:new 187 -222 484 484;" xml:space="preserve">
<style type="text/css">
	.st0{fill:#C5FFDF;}
	.st1{fill:#67BBA6;}
	.st2{fill:#3A3B3B;}
</style>
<path class="st0" d="M604,137H264c-18.2,0-33-14.8-33-33V-96c0-1,0.1-1.9,0.1-2.9C214.1-97.4,201-83.1,201-66v200
	c0,18.2,14.8,33,33,33h340c17.1,0,31.4-13.1,32.9-30.1C605.9,136.9,605,137,604,137z"/>
<g>
	<path class="st1" d="M664-76.5h-54c-3.9,0-7-3.1-7-7s3.1-7,7-7h54c3.9,0,7,3.1,7,7S667.9-76.5,664-76.5z"/>
	<path class="st1" d="M664-33.5h-50c-3.9,0-7-3.1-7-7s3.1-7,7-7h50c3.9,0,7,3.1,7,7S667.9-33.5,664-33.5z"/>
	<path class="st1" d="M194-36.5h420c3.9,0,7-3.1,7-7s-3.1-7-7-7H194c-3.9,0-7,3.1-7,7S190.1-36.5,194-36.5z"/>
	<path class="st1" d="M614-7.5H194c-3.9,0-7,3.1-7,7s3.1,7,7,7h420c3.9,0,7-3.1,7-7S617.9-7.5,614-7.5z"/>
	<path class="st1" d="M532.2,46.4c-7.3,0-14.5,1.7-21,5.1c-22.5-11.6-50.1-2.8-61.7,19.7s-2.8,50.1,19.7,61.7
		c13.2,6.8,28.8,6.8,42,0c22.5,11.6,50.1,2.8,61.7-19.7c11.6-22.5,2.8-50.1-19.7-61.7C546.7,48.1,539.5,46.4,532.2,46.4z
		 M458.4,92.2c0-17.5,14.2-31.8,31.8-31.8c17.5,0,31.8,14.2,31.8,31.8c0,17.5-14.2,31.8-31.8,31.8
		C472.6,123.9,458.4,109.7,458.4,92.2z M532.2,123.9c-2.7,0-5.4-0.4-8.1-1.1c15.8-17.4,15.8-44,0-61.4c17-4.5,34.3,5.7,38.8,22.6
		c4.5,17-5.7,34.3-22.6,38.8C537.6,123.6,534.9,123.9,532.2,123.9z"/>
</g>
<path class="st2" d="M624-153H284c-23.2,0-43,17-46.5,40H234c-25.9,0-47,21.1-47,47v200c0,25.9,21.1,47,47,47h340
	c23.2,0,43-17,46.5-40h3.5c25.9,0,47-21.1,47-47v-200C671-131.9,649.9-153,624-153z M607,134c0,18.2-14.8,33-33,33H234
	c-18.2,0-33-14.8-33-33V-66c0-18.2,14.8-33,33-33h340c18.2,0,33,14.8,33,33V134z M657,94c0,18.2-14.8,33-33,33h-3V-66
	c0-25.9-21.1-47-47-47H251.8c3.3-15.2,16.7-26,32.2-26h340c18.2,0,33,14.8,33,33V94z"/>
</svg>
