<?xml version="1.0" encoding="utf-8"?>
<!-- Generator: Adobe Illustrator 23.0.4, SVG Export Plug-In . SVG Version: 6.00 Build 0)  -->
<svg version="1.1" id="Layer_1" xmlns="http://www.w3.org/2000/svg" xmlns:xlink="http://www.w3.org/1999/xlink" x="0px" y="0px"
	 viewBox="0 0 24 24" style="enable-background:new 0 0 24 24;" xml:space="preserve">
<style type="text/css">
	.st0{fill:#3153D2;}
</style>
<g>
	<g>
		<path class="st0" d="M18.1,14.4c-1.7,0-3,1.3-3,3s1.3,3,3,3s3-1.3,3-3S19.7,14.4,18.1,14.4z M18.1,18.9c-0.8,0-1.5-0.7-1.5-1.5
			s0.7-1.5,1.5-1.5s1.5,0.7,1.5,1.5C19.6,18.3,18.9,18.9,18.1,18.9z"/>
	</g>
</g>
<g>
	<g>
		<path class="st0" d="M7.8,14.4c-1.7,0-3,1.3-3,3s1.3,3,3,3s3-1.3,3-3S9.5,14.4,7.8,14.4z M7.8,18.9c-0.8,0-1.5-0.7-1.5-1.5
			s0.7-1.5,1.5-1.5s1.5,0.7,1.5,1.5C9.3,18.3,8.7,18.9,7.8,18.9z"/>
	</g>
</g>
<g>
	<g>
		<path class="st0" d="M20.1,5.8c-0.1-0.3-0.4-0.4-0.7-0.4h-3.9v1.5H19l2,4.1l1.3-0.7L20.1,5.8z"/>
	</g>
</g>
<g>
	<g>
		<rect x="10.2" y="16.7" class="st0" width="5.7" height="1.5"/>
	</g>
</g>
<g>
	<g>
		<path class="st0" d="M5.6,16.7H3c-0.4,0-0.7,0.3-0.7,0.7s0.3,0.7,0.7,0.7h2.6c0.4,0,0.7-0.3,0.7-0.7S6,16.7,5.6,16.7z"/>
	</g>
</g>
<g>
	<g>
		<path class="st0" d="M23.7,12.1l-1.5-1.9c-0.1-0.2-0.4-0.3-0.6-0.3h-5.4V4.7c0-0.4-0.3-0.7-0.7-0.7H3C2.6,4,2.3,4.3,2.3,4.7
			c0,0.4,0.3,0.7,0.7,0.7h11.7v5.2c0,0.4,0.3,0.7,0.7,0.7h5.8l1.1,1.4v3.9h-2.1c-0.4,0-0.7,0.3-0.7,0.7c0,0.4,0.3,0.7,0.7,0.7H23
			c0.4,0,0.7-0.3,0.7-0.7v-4.7C23.9,12.4,23.8,12.3,23.7,12.1z"/>
	</g>
</g>
<g>
	<g>
		<path class="st0" d="M5.5,12.9H2.1c-0.4,0-0.7,0.3-0.7,0.7c0,0.4,0.3,0.7,0.7,0.7h3.4c0.4,0,0.7-0.3,0.7-0.7
			C6.3,13.2,5.9,12.9,5.5,12.9z"/>
	</g>
</g>
<g>
	<g>
		<path class="st0" d="M7.3,10H0.9c-0.5,0-0.8,0.3-0.8,0.7c0,0.4,0.3,0.7,0.7,0.7h6.4c0.4,0,0.7-0.3,0.7-0.7C7.9,10.3,7.7,10,7.3,10
			z"/>
	</g>
</g>
<g>
	<g>
		<path class="st0" d="M8.5,7H2.1C1.7,7,1.3,7.3,1.3,7.8c0,0.4,0.3,0.7,0.7,0.7h6.4c0.4,0,0.7-0.3,0.7-0.7C9.2,7.3,8.9,7,8.5,7z"/>
	</g>
</g>
</svg>
