<?xml version="1.0" encoding="utf-8"?>
<!-- Generator: Adobe Illustrator 19.0.0, SVG Export Plug-In . SVG Version: 6.00 Build 0)  -->
<svg version="1.1" id="Layer_1" xmlns="http://www.w3.org/2000/svg" xmlns:xlink="http://www.w3.org/1999/xlink" x="0px" y="0px"
	 viewBox="0 0 92 32" style="enable-background:new 0 0 92 32;" xml:space="preserve">
<style type="text/css">
	.st0{fill:#FFFFFF;}
	.st1{fill:#3A3B3B;}
</style>
<g id="XMLID_43_">
	<path id="XMLID_41_" class="st0" d="M70.6,1.6c2.1,1.1,2.1,1.1,0.6,2.6c-0.3,0.3-0.4,0.6-0.4,0.9c0,0.9-0.6,1.7-2,2.3
		c-0.9,0.4-1.7,0.9-2.5,1.3c0,0.1-0.8,0.4,0.1,0.4c0.6,0,1.3,0.1,1.9-0.1c2.1-0.2,4.1-0.4,6.2-0.3c0.5,0,0.7,0,0.8,0.4
		c0,0.5,0.4,1,1.7,1c0.3,0,0.7,0.1,0.6,0.3c-0.4,0.5,0.3,0.5,0.8,0.6c0.7,0.2,0.6,0.4-0.1,0.6c-0.4,0.1-0.9,0.2-1.2,0.4
		c-0.4,0.2-1.4,0.3-1.1,0.7c0.3,0.4,1.2,0.5,2,0.4c0.7-0.1,1.3-0.2,1.9-0.3c0.6-0.1,0.7,0.1,0.9,0.3c1,0.6,2.4,0.4,3.7,0.3
		c0.4,0.8,1.7,0.7,2.8,0.8c0.5,0,0.7,0.1,0.7,0.4c0,0.5-0.5,1-1,1.4c-0.2,0.2-0.3,0.5-0.5,0.7c-0.1,0.2-1,0.4,0,0.6
		c0.6,0.1,0.5,0.7-0.1,0.8c-1.8,0.1-0.7,0.7-0.9,1c-1.1,0.5-2.4,0.6-3.6,0.8c-4.3,0.6-8.4,1.5-12.7,2.1c-1.2,0.2-2.5,0.4-3.7,0.5
		c-5.5,0.4-10.7,1.7-15.9,2.8c-4.4,0.9-8.6,2.1-13,3.1c-4.7,1.1-9.2,2.3-13.8,3.5c-1.1,0-2.4,0.6-3.3-0.1c-0.1-0.6-0.5-0.9-1.7-1
		c-0.9,0-2,0-2.4-0.6c-1-0.9-1.1-0.9-3-0.7c-1.7,0.2-3.2,0.1-4.3-0.6c-0.9-0.2-2,0.1-2.8-0.3c-0.1-0.1-0.3-0.1-0.3-0.2
		c-0.1-0.2,0.1-0.4-0.2-0.5c-0.2-0.1-0.4-0.3-0.5-0.4c-0.5-0.2-1.5,0-1.7-0.5c-0.2-0.1-0.4-0.3-0.3-0.4c1.1-0.8,1.1-1.8,2.3-2.5
		c1.3-0.9,2.2-1.8,3.8-2.6c0.7-0.7,2-1.2,2.9-1.8c0.1,0,0.2-0.1,0.2-0.1c-0.1-0.1,0.1,0-0.2,0c-0.1,0-0.2,0.1-0.3,0.1
		c-0.3,0.1-0.5,0.2-0.7,0.4c-1.2,0.5-1.8,0.2-2.1-0.4c0.1-1,0.7-1.9,2.1-2.7c0.6-0.3,1.1-0.7,1.3-1.1c0.4-0.7,1.2-1.3,1.9-1.9
		c1.3-1.1,3.2-1.7,5-2.4c0.4-0.1,0.8-0.2,1.3-0.4c0.7-0.3,2,0.2,2.3-0.6c3.7-1.4,7.3-3,11.5-4.1c2.8-0.7,5.3-1.8,8.3-2.5
		c2.9-0.7,5.8-1.5,9-1.8C52,2.1,53.2,1.9,54.4,2c0.3,0.6-1,0.3-1.1,0.6c0.5-0.2,1.2-0.2,1.8-0.5c0.8-0.2,1.5-0.4,2.3-0.6
		c-0.8,0-1.8,0.6-2.5,0c0-0.1,0-0.2,0-0.3c0,0,0-0.1,0-0.1c1.6-0.5,3.3-0.8,5.1-0.9c3-0.2,6-0.5,9-0.2c0.1,0,0.3,0.1,0.4,0.2l0,0
		C69.9,0.6,69.6,1.3,70.6,1.6z"/>
	<g id="XMLID_44_">
		<path id="XMLID_40_" class="st1" d="M60.1,26c0.9-0.1,1.5-0.6,1.7-1.5c0.2-0.7,0.2-1.5,0.1-2.2c-0.1-2.4-0.3-4.8-0.4-7.2
			c0-0.3-0.4-0.7,0.3-0.9c1.6,2.8,2.8,5.8,4,8.8c0.4,0.9,0.7,2.3,2,2c1.4-0.3,1.3-1.6,1.4-2.7c0.1-2.2,0.2-4.5,0.3-6.7
			c0-2-0.1-4.1-0.6-6.1c-0.2-0.8-0.2-1.9-1.4-1.9c-1.2,0-1.1,1.2-1.3,2c-0.4,2.2-0.7,4.5-0.9,6.8c-1.4-2-2.2-4.2-3.2-6.3
			c-0.3-0.6-0.5-1.2-0.8-1.7c-0.7-1-1.4-1.1-2.3-0.3c-0.8,0.7-0.9,1.6-0.9,2.5c-0.2,3.8-0.4,7.6-0.3,11.3c0,0.9,0.1,1.9,0.5,2.7
			C58.5,25.6,59.2,26.1,60.1,26z"/>
		<path id="XMLID_84_" class="st1" d="M11.9,15.2c0-0.7,0-1.3-0.1-2c-0.2-1.7-0.9-3.1-2.2-4.3C7.5,7.1,5.3,7.2,3.3,9.3
			C0.1,12.7-1,19,0.9,23.3c0.9,2.1,2.6,3.3,4.8,3.5c2.2,0.2,3.5-1.2,4.4-3C11.6,21.1,12.1,18.2,11.9,15.2z M7.3,22.6
			c-0.1,0.1-0.3,0.2-0.8,0.5C6,19.3,5.3,15.8,6.6,12.3c0.2-0.5,0.3-1.1,0.9-1.2c0.7-0.1,1,0.5,1.4,0.9c0.3,0.4,0.5,0.8,0.6,1.2
			C10.1,16.7,9.5,19.8,7.3,22.6z"/>
		<path id="XMLID_81_" class="st1" d="M23.3,18.2c0.4,0.8,0.6,1.8,1.3,2.5c0.4,0.4,0.8,0.6,1.3,0.4c0.6-0.1,0.8-0.6,0.8-1.1
			c0-0.3,0-0.6,0-0.9c-0.4-2.2-1.1-4.3-2.8-5.8c-0.8-0.7-0.5-1.2-0.2-1.9c0-0.4-0.1-0.8,0.3-1.1c0.1-0.1,0.1-0.2,0-0.3
			c-0.1-1.5-0.9-2.8-1.3-4.2c-0.6-0.2-1-0.5-1.2-1.1h0h0c-1.4-1-3-0.8-4.4-0.1c-1.4,0.6-2.5,1.8-2.2,3.7c0.2,1.3,0.2,2.6,0.2,3.9
			c0,3.5,0.1,7.1,0.7,10.6c0.1,0.5,0.2,1.1,0.3,1.6c0.2,0.7,0.7,1.2,1.5,1.1c0.8-0.1,1.2-0.6,1.2-1.4c0.1-0.9,0-1.9,0-2.8
			c-0.1-2-0.1-4-0.2-5.9c0.1,0,0.2-0.1,0.3-0.1c0.1,0,0.2,0,0.4,0C21.2,15.6,22.5,16.6,23.3,18.2z M18.2,11.4
			c-0.2-1.1-0.4-2.2-0.6-3.3c-0.2-1.3,0.1-1.8,1.5-2C19.6,6.1,20,6.1,20.5,6l0,0c0,0,0,0,0,0c0.3-0.1,0.7,0,0.8,0.4
			c0.2,0,0.3,0.2,0.4,0.4C22.8,7.7,23,8,22.6,9.1c0,0.1,0,0.1-0.1,0.2C21.5,10.8,20.8,11.2,18.2,11.4z"/>
		<path id="XMLID_78_" class="st1" d="M51.1,7.4c-0.2-1-0.5-1.9-1.1-2.7c-0.9-1.3-2.1-1.3-3,0.1c-0.6,0.9-1,2-1.4,3
			c-1.3,3.6-1.8,7.3-2.2,11.1c-0.2,1.5-0.4,3.1-0.3,4.6c0,0.6,0.1,1.2,0.8,1.3c0.7,0.1,1-0.5,1.1-1c0.3-0.9,0.5-1.8,0.7-2.7
			c0.2-0.7,0.2-1.6,0.6-2.1c0.5-0.6,1.4-0.1,2.1-0.3c0.3-0.1,0.6-0.1,0.9-0.1c1.4-0.2,1.4-0.2,1.5,1.3c0,0.2,0,0.4,0,0.6
			c0,0,0,0-0.1,0c0.1,0.7,0.1,1.4,0.3,2c0.2,0.8,0.8,1.2,1.7,1.1c0.8-0.1,1.2-0.6,1.2-1.4c0-0.7,0-1.5-0.2-2.2
			C52.9,15.8,52,11.6,51.1,7.4z M49.5,14.8c-0.7-0.1-1.5,0-2.4-0.1c0.2-2.5,0.8-4.9,1.6-7.3c0.9,2.1,1.4,4.2,1.7,6.4
			C50.5,14.6,50.3,14.9,49.5,14.8z"/>
		<path id="XMLID_33_" class="st1" d="M32.9,25.3c2.8,2.1,6.1,1,6.9-2.5c0.3-1.5,0.3-3,0.2-4.4c-0.2-1.8-1.1-2.6-2.9-2.6
			c-1.2,0-2,0.7-2.1,1.7c-0.1,0.9,0.5,1.5,1.7,1.8c0.4,0.1,0.7,0,0.8,0.5c0.1,0.9-0.7,2.8-1.2,3c-0.7,0.2-1.6-0.6-2.1-1.8
			c-0.1-0.2-0.2-0.5-0.3-0.7c-0.4-1.4-0.7-2.9-0.8-4.4c-0.1-1.9,0.2-3.7,1-5.4c0.8-1.8,1.2-1.9,3-1.2c0.5,0.2,0.9,0.5,1.3,0
			c0.4-0.5,0.1-1-0.3-1.5c-1.3-1.5-3.5-1.6-5-0.4c-1,0.9-1.7,2-2.2,3.2C29,14.7,29.4,18.9,31,23C31.4,23.9,32.1,24.7,32.9,25.3z"/>
		<path id="XMLID_32_" class="st1" d="M89.5,21c-1.3,1-1.7,0.9-2.3-0.7c-0.5-1.6-0.8-3.3-0.8-4.9c-0.1-2.1,0.1-4.2,0.6-6.3
			c0.5-1.9,0.5-1.9,2.6-2.1c0.8-0.1,1.2-0.7,0.8-1.4c-0.2-0.4-0.6-0.6-1-0.8c-1.5-0.7-3.2-0.3-4.2,1.2c-1,1.5-1.6,3.2-2.1,4.9
			c-1,3.8-0.6,7.5,1.6,10.9c0.7,1.1,1.6,1.9,2.8,2.3c1.5,0.5,3-0.1,3.8-1.3c0.4-0.6,0.5-1.3-0.1-1.9C90.7,20.4,90.1,20.6,89.5,21z"
			/>
		<path id="XMLID_31_" class="st1" d="M73.7,22.1c-0.6,0.4-0.8,1.1-0.4,1.8c0.4,0.7,1,0.9,1.7,0.8c1.3-0.2,2.5-0.6,3.7-1.3
			c0.9-0.5,1-1.3,0-1.8c-0.7-0.4-0.8-0.8-0.7-1.5c0.1-1.9-0.1-3.8-0.3-5.7c-0.2-1.9-0.4-3.8-0.7-5.7c-0.1-0.6-0.1-1.1,0.6-1.5
			c0.9-0.6,0.7-1.4-0.3-1.7c-0.7-0.3-1.3-0.2-2.2-0.2c-0.4,0-0.9,0.1-1.5,0.2c-0.5,0.1-0.9,0.5-1,1c-0.1,0.5,0.2,0.9,0.6,1
			c0.8,0.2,0.9,0.6,0.9,1.3c-0.1,3.8,0.1,7.6,0.3,11.3C74.4,20.8,74.5,21.5,73.7,22.1z"/>
		<path id="XMLID_30_" class="st1" d="M22.8,5.9c0.7,1.3,1.5,2.6,1.3,4.2C24.5,8.4,23.9,7.1,22.8,5.9C22.8,5.9,22.8,5.9,22.8,5.9
			C22.8,5.9,22.8,5.9,22.8,5.9z"/>
		<path id="XMLID_29_" class="st1" d="M22.8,5.9C22.8,5.9,22.8,5.9,22.8,5.9c0.4,1.4,1.1,2.7,1.3,4.2C24.3,8.5,23.5,7.2,22.8,5.9z"
			/>
		<path id="XMLID_28_" class="st1" d="M22.8,5.9C22.8,5.9,22.8,5.9,22.8,5.9C22.8,5.9,22.8,5.9,22.8,5.9C22.8,5.9,22.8,5.9,22.8,5.9
			L22.8,5.9C22.8,5.9,22.8,5.9,22.8,5.9c-0.2-0.6-0.6-0.9-1.2-1.1C22.1,5.1,22.4,5.5,22.8,5.9z"/>
		<path id="XMLID_27_" class="st1" d="M22.8,5.9C22.8,5.9,22.8,5.9,22.8,5.9c-0.4-0.4-0.8-0.8-1.2-1.1h0C21.9,5.3,22.2,5.7,22.8,5.9
			z"/>
		<polygon id="XMLID_26_" class="st1" points="22.8,5.9 22.8,5.9 22.8,5.9 		"/>
		<path id="XMLID_25_" class="st1" d="M22.8,5.9C22.8,5.9,22.8,5.9,22.8,5.9C22.8,5.9,22.8,5.9,22.8,5.9C22.8,5.9,22.8,5.9,22.8,5.9
			z"/>
		<rect id="XMLID_24_" x="22.8" y="5.9" class="st1" width="0" height="0"/>
		<polygon id="XMLID_23_" class="st1" points="22.8,5.9 22.8,5.9 22.8,5.9 		"/>
		<polygon id="XMLID_22_" class="st1" points="22.8,5.9 22.8,5.9 22.8,5.9 22.8,5.9 		"/>
		<path id="XMLID_21_" class="st1" d="M22.8,5.9L22.8,5.9C22.8,5.9,22.8,5.9,22.8,5.9C22.8,5.9,22.8,5.9,22.8,5.9
			C22.8,5.9,22.8,5.9,22.8,5.9z"/>
		<path id="XMLID_20_" class="st1" d="M24.1,10.4c-0.4,0.3,0,0.8-0.3,1.1C24.1,11.2,24.1,10.8,24.1,10.4z"/>
		<path id="XMLID_19_" class="st1" d="M23.7,11.5c0.3-0.3,0-0.8,0.3-1.1C23.6,10.6,23.7,11.1,23.7,11.5z"/>
		<path id="XMLID_18_" class="st1" d="M22.6,9.1c0,0.1,0,0.1-0.1,0.2C22.6,9.2,22.6,9.2,22.6,9.1z"/>
		<path id="XMLID_17_" class="st1" d="M21.6,6.8c0.5,0.7,1.2,1.3,1,2.3C23,8,22.8,7.7,21.6,6.8C21.6,6.8,21.7,6.8,21.6,6.8
			C21.6,6.8,21.6,6.8,21.6,6.8z"/>
		<path id="XMLID_16_" class="st1" d="M21.6,6.8C21.6,6.8,21.6,6.8,21.6,6.8c0.4,0.8,0.9,1.6,0.9,2.5c0-0.1,0-0.1,0.1-0.2
			C22.9,8.1,22.2,7.5,21.6,6.8z"/>
		<path id="XMLID_15_" class="st1" d="M21.3,6.4C21.3,6.4,21.3,6.4,21.3,6.4C21.1,6,20.8,6,20.5,6c0,0,0,0,0,0
			C20.7,6.2,21.1,6.1,21.3,6.4z"/>
		<polygon id="XMLID_14_" class="st1" points="21.2,6.4 21.2,6.4 21.2,6.4 		"/>
		<path id="XMLID_13_" class="st1" d="M21.2,6.4L21.2,6.4L21.2,6.4L21.2,6.4C21.2,6.4,21.2,6.4,21.2,6.4c-0.2-0.3-0.5-0.2-0.8-0.3
			C20.7,6.3,20.9,6.4,21.2,6.4C21.2,6.4,21.2,6.4,21.2,6.4z"/>
		<path id="XMLID_12_" class="st1" d="M21.6,6.8C21.6,6.8,21.6,6.8,21.6,6.8c0-0.2-0.2-0.3-0.4-0.4c0,0,0,0,0,0
			C21.4,6.5,21.6,6.6,21.6,6.8z"/>
		<polygon id="XMLID_11_" class="st1" points="21.6,6.7 21.6,6.7 21.6,6.7 		"/>
		<path id="XMLID_10_" class="st1" d="M21.6,6.7L21.6,6.7C21.6,6.7,21.6,6.7,21.6,6.7C21.6,6.8,21.6,6.8,21.6,6.7
			c-0.1-0.2-0.2-0.3-0.4-0.3c0,0,0,0,0,0c0,0,0,0,0,0C21.3,6.6,21.4,6.7,21.6,6.7C21.6,6.8,21.6,6.8,21.6,6.7
			C21.6,6.7,21.6,6.7,21.6,6.7z"/>
		<polygon id="XMLID_9_" class="st1" points="21.7,6.8 21.6,6.8 21.6,6.8 		"/>
		<path id="XMLID_8_" class="st1" d="M21.6,6.7C21.6,6.8,21.6,6.8,21.6,6.7C21.6,6.8,21.6,6.8,21.6,6.7L21.6,6.7L21.6,6.7z"/>
		<path id="XMLID_7_" class="st1" d="M21.6,6.7C21.6,6.8,21.6,6.8,21.6,6.7C21.6,6.8,21.6,6.8,21.6,6.7C21.6,6.8,21.6,6.8,21.6,6.7z
			"/>
		<path id="XMLID_6_" class="st1" d="M21.6,6.7L21.6,6.7C21.6,6.8,21.6,6.8,21.6,6.7C21.6,6.8,21.6,6.8,21.6,6.7
			C21.6,6.7,21.6,6.7,21.6,6.7z"/>
		<polygon id="XMLID_5_" class="st1" points="21.3,6.4 21.3,6.4 21.3,6.4 21.3,6.4 		"/>
		<path id="XMLID_4_" class="st1" d="M21.2,6.4C21.2,6.4,21.2,6.4,21.2,6.4C21.3,6.4,21.3,6.4,21.2,6.4L21.2,6.4z"/>
		<path id="XMLID_3_" class="st1" d="M21.3,6.4C21.2,6.4,21.2,6.4,21.3,6.4L21.3,6.4L21.3,6.4C21.3,6.4,21.3,6.4,21.3,6.4z"/>
		<path id="XMLID_2_" class="st1" d="M21.3,6.4C21.2,6.4,21.2,6.4,21.3,6.4L21.3,6.4C21.2,6.4,21.2,6.4,21.3,6.4
			C21.3,6.4,21.3,6.4,21.3,6.4z"/>
		<path id="XMLID_1_" class="st1" d="M21.3,6.4C21.3,6.4,21.3,6.4,21.3,6.4C21.3,6.4,21.3,6.4,21.3,6.4C21.3,6.4,21.3,6.4,21.3,6.4z
			"/>
	</g>
</g>
</svg>
