<?xml version="1.0" encoding="utf-8"?>
<!-- Generator: Adobe Illustrator 19.0.0, SVG Export Plug-In . SVG Version: 6.00 Build 0)  -->
<svg version="1.1" id="Layer_1" xmlns="http://www.w3.org/2000/svg" xmlns:xlink="http://www.w3.org/1999/xlink" x="0px" y="0px"
	 viewBox="-251 404.9 92 32" style="enable-background:new -251 404.9 92 32;" xml:space="preserve">
<style type="text/css">
	.st0{fill:#ECC4E2;}
	.st1{fill:#3A3B3B;}
</style>
<g id="XMLID_43_">
	<path id="XMLID_41_" class="st0" d="M-180.4,406.5c2.1,1.1,2.1,1.1,0.6,2.6c-0.3,0.3-0.4,0.6-0.4,0.9c0,0.9-0.6,1.7-2,2.3
		c-0.9,0.4-1.7,0.9-2.5,1.3c0,0.1-0.8,0.4,0.1,0.4c0.6,0,1.3,0.1,1.9-0.1c2.1-0.2,4.1-0.4,6.2-0.3c0.5,0,0.7,0,0.8,0.4
		c0,0.5,0.4,1,1.7,1c0.3,0,0.7,0.1,0.6,0.3c-0.4,0.5,0.3,0.5,0.8,0.6c0.7,0.2,0.6,0.4-0.1,0.6c-0.4,0.1-0.9,0.2-1.2,0.4
		c-0.4,0.2-1.4,0.3-1.1,0.7s1.2,0.5,2,0.4c0.7-0.1,1.3-0.2,1.9-0.3c0.6-0.1,0.7,0.1,0.9,0.3c1,0.6,2.4,0.4,3.7,0.3
		c0.4,0.8,1.7,0.7,2.8,0.8c0.5,0,0.7,0.1,0.7,0.4c0,0.5-0.5,1-1,1.4c-0.2,0.2-0.3,0.5-0.5,0.7c-0.1,0.2-1,0.4,0,0.6
		c0.6,0.1,0.5,0.7-0.1,0.8c-1.8,0.1-0.7,0.7-0.9,1c-1.1,0.5-2.4,0.6-3.6,0.8c-4.3,0.6-8.4,1.5-12.7,2.1c-1.2,0.2-2.5,0.4-3.7,0.5
		c-5.5,0.4-10.7,1.7-15.9,2.8c-4.4,0.9-8.6,2.1-13,3.1c-4.7,1.1-9.2,2.3-13.8,3.5c-1.1,0-2.4,0.6-3.3-0.1c-0.1-0.6-0.5-0.9-1.7-1
		c-0.9,0-2,0-2.4-0.6c-1-0.9-1.1-0.9-3-0.7c-1.7,0.2-3.2,0.1-4.3-0.6c-0.9-0.2-2,0.1-2.8-0.3c-0.1-0.1-0.3-0.1-0.3-0.2
		c-0.1-0.2,0.1-0.4-0.2-0.5c-0.2-0.1-0.4-0.3-0.5-0.4c-0.5-0.2-1.5,0-1.7-0.5c-0.2-0.1-0.4-0.3-0.3-0.4c1.1-0.8,1.1-1.8,2.3-2.5
		c1.3-0.9,2.2-1.8,3.8-2.6c0.7-0.7,2-1.2,2.9-1.8c0.1,0,0.2-0.1,0.2-0.1c-0.1-0.1,0.1,0-0.2,0c-0.1,0-0.2,0.1-0.3,0.1
		c-0.3,0.1-0.5,0.2-0.7,0.4c-1.2,0.5-1.8,0.2-2.1-0.4c0.1-1,0.7-1.9,2.1-2.7c0.6-0.3,1.1-0.7,1.3-1.1c0.4-0.7,1.2-1.3,1.9-1.9
		c1.3-1.1,3.2-1.7,5-2.4c0.4-0.1,0.8-0.2,1.3-0.4c0.7-0.3,2,0.2,2.3-0.6c3.7-1.4,7.3-3,11.5-4.1c2.8-0.7,5.3-1.8,8.3-2.5
		c2.9-0.7,5.8-1.5,9-1.8c1.1-0.1,2.3-0.3,3.5-0.2c0.3,0.6-1,0.3-1.1,0.6c0.5-0.2,1.2-0.2,1.8-0.5c0.8-0.2,1.5-0.4,2.3-0.6
		c-0.8,0-1.8,0.6-2.5,0c0-0.1,0-0.2,0-0.3V406c1.6-0.5,3.3-0.8,5.1-0.9c3-0.2,6-0.5,9-0.2c0.1,0,0.3,0.1,0.4,0.2l0,0
		C-181.1,405.5-181.4,406.2-180.4,406.5z"/>
	<g id="XMLID_44_">
		<path id="XMLID_40_" class="st1" d="M-190.9,430.9c0.9-0.1,1.5-0.6,1.7-1.5c0.2-0.7,0.2-1.5,0.1-2.2c-0.1-2.4-0.3-4.8-0.4-7.2
			c0-0.3-0.4-0.7,0.3-0.9c1.6,2.8,2.8,5.8,4,8.8c0.4,0.9,0.7,2.3,2,2c1.4-0.3,1.3-1.6,1.4-2.7c0.1-2.2,0.2-4.5,0.3-6.7
			c0-2-0.1-4.1-0.6-6.1c-0.2-0.8-0.2-1.9-1.4-1.9c-1.2,0-1.1,1.2-1.3,2c-0.4,2.2-0.7,4.5-0.9,6.8c-1.4-2-2.2-4.2-3.2-6.3
			c-0.3-0.6-0.5-1.2-0.8-1.7c-0.7-1-1.4-1.1-2.3-0.3c-0.8,0.7-0.9,1.6-0.9,2.5c-0.2,3.8-0.4,7.6-0.3,11.3c0,0.9,0.1,1.9,0.5,2.7
			C-192.5,430.5-191.8,431-190.9,430.9z"/>
		<path id="XMLID_84_" class="st1" d="M-239.1,420.1c0-0.7,0-1.3-0.1-2c-0.2-1.7-0.9-3.1-2.2-4.3c-2.1-1.8-4.3-1.7-6.3,0.4
			c-3.2,3.4-4.3,9.7-2.4,14c0.9,2.1,2.6,3.3,4.8,3.5s3.5-1.2,4.4-3C-239.4,426-238.9,423.1-239.1,420.1z M-243.7,427.5
			c-0.1,0.1-0.3,0.2-0.8,0.5c-0.5-3.8-1.2-7.3,0.1-10.8c0.2-0.5,0.3-1.1,0.9-1.2c0.7-0.1,1,0.5,1.4,0.9c0.3,0.4,0.5,0.8,0.6,1.2
			C-240.9,421.6-241.5,424.7-243.7,427.5z"/>
		<path id="XMLID_81_" class="st1" d="M-227.7,423.1c0.4,0.8,0.6,1.8,1.3,2.5c0.4,0.4,0.8,0.6,1.3,0.4c0.6-0.1,0.8-0.6,0.8-1.1
			c0-0.3,0-0.6,0-0.9c-0.4-2.2-1.1-4.3-2.8-5.8c-0.8-0.7-0.5-1.2-0.2-1.9c0-0.4-0.1-0.8,0.3-1.1c0.1-0.1,0.1-0.2,0-0.3
			c-0.1-1.5-0.9-2.8-1.3-4.2c-0.6-0.2-1-0.5-1.2-1.1l0,0l0,0c-1.4-1-3-0.8-4.4-0.1c-1.4,0.6-2.5,1.8-2.2,3.7
			c0.2,1.3,0.2,2.6,0.2,3.9c0,3.5,0.1,7.1,0.7,10.6c0.1,0.5,0.2,1.1,0.3,1.6c0.2,0.7,0.7,1.2,1.5,1.1c0.8-0.1,1.2-0.6,1.2-1.4
			c0.1-0.9,0-1.9,0-2.8c-0.1-2-0.1-4-0.2-5.9c0.1,0,0.2-0.1,0.3-0.1c0.1,0,0.2,0,0.4,0C-229.8,420.5-228.5,421.5-227.7,423.1z
			 M-232.8,416.3c-0.2-1.1-0.4-2.2-0.6-3.3c-0.2-1.3,0.1-1.8,1.5-2c0.5,0,0.9,0,1.4-0.1l0,0l0,0c0.3-0.1,0.7,0,0.8,0.4
			c0.2,0,0.3,0.2,0.4,0.4c1.1,0.9,1.3,1.2,0.9,2.3c0,0.1,0,0.1-0.1,0.2C-229.5,415.7-230.2,416.1-232.8,416.3z"/>
		<path id="XMLID_78_" class="st1" d="M-199.9,412.3c-0.2-1-0.5-1.9-1.1-2.7c-0.9-1.3-2.1-1.3-3,0.1c-0.6,0.9-1,2-1.4,3
			c-1.3,3.6-1.8,7.3-2.2,11.1c-0.2,1.5-0.4,3.1-0.3,4.6c0,0.6,0.1,1.2,0.8,1.3c0.7,0.1,1-0.5,1.1-1c0.3-0.9,0.5-1.8,0.7-2.7
			c0.2-0.7,0.2-1.6,0.6-2.1c0.5-0.6,1.4-0.1,2.1-0.3c0.3-0.1,0.6-0.1,0.9-0.1c1.4-0.2,1.4-0.2,1.5,1.3c0,0.2,0,0.4,0,0.6
			c0,0,0,0-0.1,0c0.1,0.7,0.1,1.4,0.3,2c0.2,0.8,0.8,1.2,1.7,1.1c0.8-0.1,1.2-0.6,1.2-1.4c0-0.7,0-1.5-0.2-2.2
			C-198.1,420.7-199,416.5-199.9,412.3z M-201.5,419.7c-0.7-0.1-1.5,0-2.4-0.1c0.2-2.5,0.8-4.9,1.6-7.3c0.9,2.1,1.4,4.2,1.7,6.4
			C-200.5,419.5-200.7,419.8-201.5,419.7z"/>
		<path id="XMLID_33_" class="st1" d="M-218.1,430.2c2.8,2.1,6.1,1,6.9-2.5c0.3-1.5,0.3-3,0.2-4.4c-0.2-1.8-1.1-2.6-2.9-2.6
			c-1.2,0-2,0.7-2.1,1.7c-0.1,0.9,0.5,1.5,1.7,1.8c0.4,0.1,0.7,0,0.8,0.5c0.1,0.9-0.7,2.8-1.2,3c-0.7,0.2-1.6-0.6-2.1-1.8
			c-0.1-0.2-0.2-0.5-0.3-0.7c-0.4-1.4-0.7-2.9-0.8-4.4c-0.1-1.9,0.2-3.7,1-5.4c0.8-1.8,1.2-1.9,3-1.2c0.5,0.2,0.9,0.5,1.3,0
			c0.4-0.5,0.1-1-0.3-1.5c-1.3-1.5-3.5-1.6-5-0.4c-1,0.9-1.7,2-2.2,3.2c-1.9,4.1-1.5,8.3,0.1,12.4
			C-219.6,428.8-218.9,429.6-218.1,430.2z"/>
		<path id="XMLID_32_" class="st1" d="M-161.5,425.9c-1.3,1-1.7,0.9-2.3-0.7c-0.5-1.6-0.8-3.3-0.8-4.9c-0.1-2.1,0.1-4.2,0.6-6.3
			c0.5-1.9,0.5-1.9,2.6-2.1c0.8-0.1,1.2-0.7,0.8-1.4c-0.2-0.4-0.6-0.6-1-0.8c-1.5-0.7-3.2-0.3-4.2,1.2s-1.6,3.2-2.1,4.9
			c-1,3.8-0.6,7.5,1.6,10.9c0.7,1.1,1.6,1.9,2.8,2.3c1.5,0.5,3-0.1,3.8-1.3c0.4-0.6,0.5-1.3-0.1-1.9
			C-160.3,425.3-160.9,425.5-161.5,425.9z"/>
		<path id="XMLID_31_" class="st1" d="M-177.3,427c-0.6,0.4-0.8,1.1-0.4,1.8c0.4,0.7,1,0.9,1.7,0.8c1.3-0.2,2.5-0.6,3.7-1.3
			c0.9-0.5,1-1.3,0-1.8c-0.7-0.4-0.8-0.8-0.7-1.5c0.1-1.9-0.1-3.8-0.3-5.7c-0.2-1.9-0.4-3.8-0.7-5.7c-0.1-0.6-0.1-1.1,0.6-1.5
			c0.9-0.6,0.7-1.4-0.3-1.7c-0.7-0.3-1.3-0.2-2.2-0.2c-0.4,0-0.9,0.1-1.5,0.2c-0.5,0.1-0.9,0.5-1,1s0.2,0.9,0.6,1
			c0.8,0.2,0.9,0.6,0.9,1.3c-0.1,3.8,0.1,7.6,0.3,11.3C-176.6,425.7-176.5,426.4-177.3,427z"/>
		<path id="XMLID_30_" class="st1" d="M-228.2,410.8c0.7,1.3,1.5,2.6,1.3,4.2C-226.5,413.3-227.1,412-228.2,410.8L-228.2,410.8
			L-228.2,410.8z"/>
		<path id="XMLID_29_" class="st1" d="M-228.2,410.8L-228.2,410.8c0.4,1.4,1.1,2.7,1.3,4.2C-226.7,413.4-227.5,412.1-228.2,410.8z"
			/>
		<path id="XMLID_28_" class="st1" d="M-228.2,410.8L-228.2,410.8L-228.2,410.8L-228.2,410.8L-228.2,410.8L-228.2,410.8
			c-0.2-0.6-0.6-0.9-1.2-1.1C-228.9,410-228.6,410.4-228.2,410.8z"/>
		<path id="XMLID_27_" class="st1" d="M-228.2,410.8L-228.2,410.8c-0.4-0.4-0.8-0.8-1.2-1.1l0,0
			C-229.1,410.2-228.8,410.6-228.2,410.8z"/>
		<path id="XMLID_26_" class="st1" d="M-228.2,410.8L-228.2,410.8L-228.2,410.8z"/>
		<path id="XMLID_25_" class="st1" d="M-228.2,410.8L-228.2,410.8L-228.2,410.8L-228.2,410.8z"/>
		<polygon id="XMLID_24_" class="st1" points="-228.2,410.8 -228.2,410.8 -228.2,410.8 		"/>
		<path id="XMLID_23_" class="st1" d="M-228.2,410.8L-228.2,410.8L-228.2,410.8z"/>
		<polygon id="XMLID_22_" class="st1" points="-228.2,410.8 -228.2,410.8 -228.2,410.8 		"/>
		<path id="XMLID_21_" class="st1" d="M-228.2,410.8L-228.2,410.8L-228.2,410.8L-228.2,410.8L-228.2,410.8z"/>
		<path id="XMLID_20_" class="st1" d="M-226.9,415.3c-0.4,0.3,0,0.8-0.3,1.1C-226.9,416.1-226.9,415.7-226.9,415.3z"/>
		<path id="XMLID_19_" class="st1" d="M-227.3,416.4c0.3-0.3,0-0.8,0.3-1.1C-227.4,415.5-227.3,416-227.3,416.4z"/>
		<path id="XMLID_18_" class="st1" d="M-228.4,414c0,0.1,0,0.1-0.1,0.2C-228.4,414.1-228.4,414.1-228.4,414z"/>
		<path id="XMLID_17_" class="st1" d="M-229.4,411.7c0.5,0.7,1.2,1.3,1,2.3C-228,412.9-228.2,412.6-229.4,411.7
			C-229.4,411.7-229.3,411.7-229.4,411.7L-229.4,411.7z"/>
		<path id="XMLID_16_" class="st1" d="M-229.4,411.7L-229.4,411.7c0.4,0.8,0.9,1.6,0.9,2.5c0-0.1,0-0.1,0.1-0.2
			C-228.1,413-228.8,412.4-229.4,411.7z"/>
		<path id="XMLID_15_" class="st1" d="M-229.7,411.3L-229.7,411.3c-0.2-0.4-0.5-0.4-0.8-0.4l0,0C-230.3,411.1-229.9,411-229.7,411.3
			z"/>
		<path id="XMLID_14_" class="st1" d="M-229.8,411.3L-229.8,411.3L-229.8,411.3z"/>
		<path id="XMLID_13_" class="st1" d="M-229.8,411.3L-229.8,411.3L-229.8,411.3L-229.8,411.3L-229.8,411.3c-0.2-0.3-0.5-0.2-0.8-0.3
			C-230.3,411.2-230.1,411.3-229.8,411.3L-229.8,411.3z"/>
		<path id="XMLID_12_" class="st1" d="M-229.4,411.7L-229.4,411.7c0-0.2-0.2-0.3-0.4-0.4l0,0C-229.6,411.4-229.4,411.5-229.4,411.7z
			"/>
		<path id="XMLID_11_" class="st1" d="M-229.4,411.6L-229.4,411.6L-229.4,411.6z"/>
		<path id="XMLID_10_" class="st1" d="M-229.4,411.6L-229.4,411.6L-229.4,411.6C-229.4,411.7-229.4,411.7-229.4,411.6
			c-0.1-0.2-0.2-0.3-0.4-0.3l0,0l0,0C-229.7,411.5-229.6,411.6-229.4,411.6C-229.4,411.7-229.4,411.7-229.4,411.6L-229.4,411.6z"/>
		<polygon id="XMLID_9_" class="st1" points="-229.3,411.7 -229.4,411.7 -229.4,411.7 		"/>
		<path id="XMLID_8_" class="st1" d="M-229.4,411.6C-229.4,411.7-229.4,411.7-229.4,411.6C-229.4,411.7-229.4,411.7-229.4,411.6
			L-229.4,411.6L-229.4,411.6z"/>
		<path id="XMLID_7_" class="st1" d="M-229.4,411.6C-229.4,411.7-229.4,411.7-229.4,411.6C-229.4,411.7-229.4,411.7-229.4,411.6
			C-229.4,411.7-229.4,411.7-229.4,411.6z"/>
		<path id="XMLID_6_" class="st1" d="M-229.4,411.6L-229.4,411.6C-229.4,411.7-229.4,411.7-229.4,411.6
			C-229.4,411.7-229.4,411.7-229.4,411.6L-229.4,411.6z"/>
		<polygon id="XMLID_5_" class="st1" points="-229.7,411.3 -229.7,411.3 -229.7,411.3 		"/>
		<path id="XMLID_4_" class="st1" d="M-229.8,411.3L-229.8,411.3C-229.7,411.3-229.7,411.3-229.8,411.3L-229.8,411.3z"/>
		<path id="XMLID_3_" class="st1" d="M-229.7,411.3C-229.8,411.3-229.8,411.3-229.7,411.3L-229.7,411.3L-229.7,411.3L-229.7,411.3z"
			/>
		<path id="XMLID_2_" class="st1" d="M-229.7,411.3C-229.8,411.3-229.8,411.3-229.7,411.3L-229.7,411.3
			C-229.8,411.3-229.8,411.3-229.7,411.3L-229.7,411.3z"/>
		<path id="XMLID_1_" class="st1" d="M-229.7,411.3L-229.7,411.3L-229.7,411.3L-229.7,411.3z"/>
	</g>
</g>
</svg>
